SplineFontDB: 3.0
FontName: TitilliumWeb-SemiBold
FullName: Titillium WebSemiBold
FamilyName: Titillium Web
Weight: Demi
Copyright: Copyright (c) 2009-2011 by Accademia di Belle Arti di Urbino and students of MA course of Visual design. Some rights reserved.
Version: 1.001;PS 57.000;hotconv 1.0.70;makeotf.lib2.5.55311
ItalicAngle: 0
UnderlinePosition: -80
UnderlineWidth: 30
Ascent: 800
Descent: 200
sfntRevision: 0x00010000
LayerCount: 2
Layer: 0 1 "Back"  1
Layer: 1 1 "Fore"  0
XUID: [1021 223 556279172 894677]
FSType: 8
OS2Version: 3
OS2_WeightWidthSlopeOnly: 0
OS2_UseTypoMetrics: 1
CreationTime: 1349090287
ModificationTime: 1349108893
PfmFamily: 81
TTFWeight: 600
TTFWidth: 5
LineGap: 0
VLineGap: 0
Panose: 0 0 7 0 0 0 0 0 0 0
OS2TypoAscent: 1133
OS2TypoAOffset: 0
OS2TypoDescent: -388
OS2TypoDOffset: 0
OS2TypoLinegap: 0
OS2WinAscent: 1133
OS2WinAOffset: 0
OS2WinDescent: 388
OS2WinDOffset: 0
HheadAscent: 1133
HheadAOffset: 0
HheadDescent: -388
HheadDOffset: 0
OS2SubXSize: 650
OS2SubYSize: 600
OS2SubXOff: 0
OS2SubYOff: 75
OS2SupXSize: 650
OS2SupYSize: 600
OS2SupXOff: 0
OS2SupYOff: 350
OS2StrikeYSize: 30
OS2StrikeYPos: 300
OS2Vendor: 'UKWN'
OS2CodePages: 20000093.00000000
OS2UnicodeRanges: 00000007.00000001.00000000.00000000
Lookup: 1 0 0 "'locl' Localized Forms in Latin lookup 0"  {"'locl' Localized Forms in Latin lookup 0 subtable"  } ['locl' ('DFLT' <'dflt' > 'latn' <'dflt' > ) ]
Lookup: 1 0 0 "'frac' Diagonal Fractions in Latin lookup 1"  {"'frac' Diagonal Fractions in Latin lookup 1 subtable"  } ['frac' ('DFLT' <'dflt' > 'latn' <'dflt' > ) ]
Lookup: 6 0 0 "'frac' Diagonal Fractions in Latin lookup 2"  {"'frac' Diagonal Fractions in Latin lookup 2 subtable"  } ['frac' ('DFLT' <'dflt' > 'latn' <'dflt' > ) ]
Lookup: 1 0 0 "'frac' Diagonal Fractions in Latin lookup 3"  {"'frac' Diagonal Fractions in Latin lookup 3 subtable"  } ['frac' ('DFLT' <'dflt' > 'latn' <'dflt' > ) ]

StartChar: exclam
Encoding: 33 33 4
Width: 266
GlyphClass: 2
Flags: W
LayerCount: 2
Fore
SplineSet
74 0 m 1,0,-1
 74 140 l 1,1,-1
 191 140 l 1,2,-1
 191 0 l 1,3,-1
 74 0 l 1,0,-1
85 241 m 1,4,-1
 75 685 l 1,5,-1
 191 685 l 1,6,-1
 181 241 l 1,7,-1
 85 241 l 1,4,-1
EndSplineSet
EndChar

StartChar: quotedbl
Encoding: 34 34 5
Width: 395
GlyphClass: 2
Flags: W
LayerCount: 2
Fore
SplineSet
329 453 m 1,0,-1
 234 453 l 1,1,-1
 230 685 l 1,2,-1
 335 685 l 1,3,-1
 329 453 l 1,0,-1
160 453 m 1,4,-1
 64 453 l 1,5,-1
 60 685 l 1,6,-1
 166 685 l 1,7,-1
 160 453 l 1,4,-1
EndSplineSet
EndChar

StartChar: numbersign
Encoding: 35 35 6
Width: 560
GlyphClass: 2
Flags: W
LayerCount: 2
Fore
SplineSet
540 160 m 1,0,-1
 438 160 l 1,1,-1
 438 0 l 1,2,-1
 343 0 l 1,3,-1
 343 160 l 1,4,-1
 217 160 l 1,5,-1
 217 0 l 1,6,-1
 122 0 l 1,7,-1
 122 160 l 1,8,-1
 20 160 l 1,9,-1
 20 251 l 1,10,-1
 122 251 l 1,11,-1
 122 403 l 1,12,-1
 20 403 l 1,13,-1
 20 494 l 1,14,-1
 122 494 l 1,15,-1
 122 663 l 1,16,-1
 217 663 l 1,17,-1
 217 494 l 1,18,-1
 343 494 l 1,19,-1
 343 663 l 1,20,-1
 438 663 l 1,21,-1
 438 494 l 1,22,-1
 540 494 l 1,23,-1
 540 403 l 1,24,-1
 438 403 l 1,25,-1
 438 251 l 1,26,-1
 540 251 l 1,27,-1
 540 160 l 1,0,-1
343 251 m 1,28,-1
 343 403 l 1,29,-1
 217 403 l 1,30,-1
 217 251 l 1,31,-1
 343 251 l 1,28,-1
EndSplineSet
EndChar

StartChar: dollar
Encoding: 36 36 7
Width: 560
GlyphClass: 2
Flags: W
LayerCount: 2
Fore
SplineSet
503 196 m 0,0,1
 503 92 503 92 443.5 40.5 c 128,-1,2
 384 -11 384 -11 282 -11 c 2,3,-1
 274 -11 l 1,4,-1
 260 -127 l 1,5,6
 196 -124 196 -124 196 -120 c 2,7,-1
 210 -7 l 1,8,9
 146 -1 146 -1 86 11 c 2,10,-1
 66 15 l 1,11,-1
 77 101 l 1,12,13
 156 90 156 90 222 86 c 1,14,-1
 249 293 l 1,15,16
 145 321 145 321 102 362 c 128,-1,17
 59 403 59 403 59 491 c 128,-1,18
 59 579 59 579 117.5 625 c 128,-1,19
 176 671 176 671 279 671 c 2,20,-1
 297 671 l 1,21,-1
 314 805 l 1,22,-1
 378 805 l 1,23,-1
 360 666 l 1,24,-1
 488 648 l 1,25,-1
 479 562 l 1,26,27
 408 570 408 570 349 574 c 1,28,-1
 324 381 l 1,29,30
 425 352 425 352 464 314 c 128,-1,31
 503 276 503 276 503 196 c 0,0,1
166 491 m 0,32,33
 166 454 166 454 186.5 435 c 128,-1,34
 207 416 207 416 262 398 c 1,35,-1
 285 577 l 1,36,37
 166 575 166 575 166 491 c 0,32,33
395 190 m 0,38,39
 395 224 395 224 376.5 243 c 128,-1,40
 358 262 358 262 311 276 c 1,41,-1
 286 84 l 1,42,43
 395 88 395 88 395 190 c 0,38,39
EndSplineSet
EndChar

StartChar: percent
Encoding: 37 37 8
Width: 560
GlyphClass: 2
Flags: W
LayerCount: 2
Fore
SplineSet
138 -6 m 1,0,-1
 360 691 l 1,1,-1
 422 670 l 1,2,-1
 200 -26 l 1,3,-1
 138 -6 l 1,0,-1
20 529 m 0,4,5
 20 671 20 671 135.5 671 c 128,-1,6
 251 671 251 671 251 529 c 0,7,8
 251 457 251 457 221 421 c 128,-1,9
 191 385 191 385 135.5 385 c 128,-1,10
 80 385 80 385 50 421 c 128,-1,11
 20 457 20 457 20 529 c 0,4,5
102 529 m 128,-1,13
 102 489 102 489 109.5 471 c 128,-1,14
 117 453 117 453 136 453 c 128,-1,15
 155 453 155 453 162.5 471 c 128,-1,16
 170 489 170 489 170 529 c 128,-1,17
 170 569 170 569 162.5 586.5 c 128,-1,18
 155 604 155 604 136 604 c 128,-1,19
 117 604 117 604 109.5 586.5 c 128,-1,12
 102 569 102 569 102 529 c 128,-1,13
309 133 m 0,20,21
 309 275 309 275 424.5 275 c 128,-1,22
 540 275 540 275 540 133 c 0,23,24
 540 61 540 61 510 25 c 128,-1,25
 480 -11 480 -11 424.5 -11 c 128,-1,26
 369 -11 369 -11 339 25 c 128,-1,27
 309 61 309 61 309 133 c 0,20,21
397.5 189.5 m 128,-1,29
 390 172 390 172 390 132.5 c 128,-1,30
 390 93 390 93 397.5 74.5 c 128,-1,31
 405 56 405 56 424 56 c 128,-1,32
 443 56 443 56 450.5 74 c 128,-1,33
 458 92 458 92 458 132.5 c 128,-1,34
 458 173 458 173 451 190 c 128,-1,35
 444 207 444 207 424.5 207 c 128,-1,28
 405 207 405 207 397.5 189.5 c 128,-1,29
EndSplineSet
EndChar

StartChar: ampersand
Encoding: 38 38 9
Width: 696
GlyphClass: 2
Flags: W
LayerCount: 2
Fore
SplineSet
174.5 667 m 128,-1,1
 226 707 226 707 317 707 c 128,-1,2
 408 707 408 707 457 666.5 c 128,-1,3
 506 626 506 626 506 554.5 c 128,-1,4
 506 483 506 483 474 442 c 128,-1,5
 442 401 442 401 361 354 c 1,6,-1
 483 233 l 1,7,8
 490 252 490 252 497 298.5 c 128,-1,9
 504 345 504 345 506 376 c 1,10,-1
 611 374 l 1,11,12
 597 252 597 252 562 169 c 1,13,-1
 681 60 l 1,14,-1
 619 -11 l 1,15,-1
 506 87 l 1,16,17
 473 41 473 41 418 15 c 128,-1,18
 363 -11 363 -11 297 -11 c 0,19,20
 156 -11 156 -11 97 42 c 128,-1,21
 38 95 38 95 38 199 c 0,22,23
 38 282 38 282 73 327.5 c 128,-1,24
 108 373 108 373 186 402 c 1,25,26
 147 447 147 447 135 478 c 128,-1,27
 123 509 123 509 123 558 c 0,28,0
 123 627 123 627 174.5 667 c 128,-1,1
285 86 m 0,29,30
 333 86 333 86 373 102.5 c 128,-1,31
 413 119 413 119 432 148 c 1,32,-1
 243 337 l 1,33,34
 193 318 193 318 170.5 288 c 128,-1,35
 148 258 148 258 148 208 c 0,36,37
 148 86 148 86 285 86 c 0,29,30
233 536 m 0,38,39
 233 487 233 487 278 439 c 2,40,-1
 300 416 l 1,41,42
 353 446 353 446 374.5 472 c 128,-1,43
 396 498 396 498 396 539 c 0,44,45
 396 615 396 615 314.5 615 c 128,-1,46
 233 615 233 615 233 536 c 0,38,39
EndSplineSet
EndChar

StartChar: quotesingle
Encoding: 39 39 10
Width: 225
GlyphClass: 2
Flags: W
LayerCount: 2
Fore
SplineSet
64 453 m 1,0,-1
 61 685 l 1,1,-1
 167 685 l 1,2,-1
 160 453 l 1,3,-1
 64 453 l 1,0,-1
EndSplineSet
EndChar

StartChar: parenleft
Encoding: 40 40 11
Width: 289
GlyphClass: 2
Flags: W
LayerCount: 2
Fore
SplineSet
163 301 m 128,-1,1
 163 214 163 214 186.5 107.5 c 128,-1,2
 210 1 210 1 234 -62 c 2,3,-1
 258 -125 l 1,4,-1
 155 -125 l 1,5,6
 141 -102 141 -102 119 -48.5 c 128,-1,7
 97 5 97 5 82 52.5 c 128,-1,8
 67 100 67 100 55 168.5 c 128,-1,9
 43 237 43 237 43 320 c 128,-1,10
 43 403 43 403 71 515 c 128,-1,11
 99 627 99 627 127 688 c 2,12,-1
 155 750 l 1,13,-1
 258 750 l 1,14,15
 224 664 224 664 193.5 526 c 128,-1,0
 163 388 163 388 163 301 c 128,-1,1
EndSplineSet
Substitution2: "'case' Case-Sensitive Forms in Latin lookup 4 subtable" parenleft.cap
EndChar

StartChar: parenright
Encoding: 41 41 12
Width: 289
GlyphClass: 2
Flags: W
LayerCount: 2
Fore
SplineSet
246 301 m 128,-1,1
 246 237 246 237 234.5 169.5 c 128,-1,2
 223 102 223 102 206 52 c 0,3,4
 172 -54 172 -54 146 -104 c 1,5,-1
 134 -125 l 1,6,-1
 31 -125 l 1,7,8
 42 -99 42 -99 57.5 -55.5 c 128,-1,9
 73 -12 73 -12 99.5 101 c 128,-1,10
 126 214 126 214 126 301 c 128,-1,11
 126 388 126 388 102.5 500.5 c 128,-1,12
 79 613 79 613 55 682 c 2,13,-1
 31 750 l 1,14,-1
 134 750 l 1,15,16
 148 724 148 724 170 666 c 128,-1,17
 192 608 192 608 207 557.5 c 128,-1,18
 222 507 222 507 234 436 c 128,-1,0
 246 365 246 365 246 301 c 128,-1,1
EndSplineSet
Substitution2: "'case' Case-Sensitive Forms in Latin lookup 4 subtable" parenright.cap
EndChar

StartChar: asterisk
Encoding: 42 42 13
Width: 423
GlyphClass: 2
Flags: W
LayerCount: 2
Fore
SplineSet
382 504 m 1,0,-1
 255 504 l 1,1,-1
 294 382 l 1,2,-1
 232 363 l 1,3,-1
 191 486 l 1,4,-1
 86 407 l 1,5,-1
 46 458 l 1,6,-1
 153 537 l 1,7,-1
 49 611 l 1,8,-1
 88 665 l 1,9,-1
 191 590 l 1,10,-1
 231 713 l 1,11,-1
 295 692 l 1,12,-1
 256 568 l 1,13,-1
 382 568 l 1,14,-1
 382 504 l 1,0,-1
EndSplineSet
EndChar

StartChar: plus
Encoding: 43 43 14
Width: 560
GlyphClass: 2
Flags: W
LayerCount: 2
Fore
SplineSet
52 202 m 1,0,-1
 52 300 l 1,1,-1
 230 300 l 1,2,-1
 230 479 l 1,3,-1
 328 479 l 1,4,-1
 328 300 l 1,5,-1
 508 300 l 1,6,-1
 508 202 l 1,7,-1
 328 202 l 1,8,-1
 328 21 l 1,9,-1
 230 21 l 1,10,-1
 230 202 l 1,11,-1
 52 202 l 1,0,-1
EndSplineSet
EndChar

StartChar: comma
Encoding: 44 44 15
Width: 246
GlyphClass: 2
Flags: W
LayerCount: 2
Fore
SplineSet
26 -123 m 1,0,-1
 74 124 l 1,1,-1
 194 124 l 1,2,-1
 114 -123 l 1,3,-1
 26 -123 l 1,0,-1
EndSplineSet
EndChar

StartChar: hyphen
Encoding: 45 45 16
Width: 421
GlyphClass: 2
Flags: W
LayerCount: 2
Fore
SplineSet
61 220 m 1,0,-1
 61 319 l 1,1,-1
 360 319 l 1,2,-1
 360 220 l 1,3,-1
 61 220 l 1,0,-1
EndSplineSet
EndChar

StartChar: period
Encoding: 46 46 17
Width: 239
GlyphClass: 2
Flags: W
LayerCount: 2
Fore
SplineSet
61 0 m 1,0,-1
 61 144 l 1,1,-1
 178 144 l 1,2,-1
 178 0 l 1,3,-1
 61 0 l 1,0,-1
EndSplineSet
EndChar

StartChar: slash
Encoding: 47 47 18
Width: 443
GlyphClass: 2
Flags: W
LayerCount: 2
Fore
SplineSet
32 9 m 1,0,-1
 317 714 l 1,1,-1
 413 679 l 1,2,-1
 127 -25 l 1,3,-1
 32 9 l 1,0,-1
EndSplineSet
Substitution2: "'frac' Diagonal Fractions in Latin lookup 3 subtable" fraction
EndChar

StartChar: zero
Encoding: 48 48 19
Width: 560
GlyphClass: 2
Flags: W
LayerCount: 2
Fore
SplineSet
280 671 m 128,-1,1
 405 671 405 671 467 591 c 128,-1,2
 529 511 529 511 529 326.5 c 128,-1,3
 529 142 529 142 466.5 65.5 c 128,-1,4
 404 -11 404 -11 279.5 -11 c 128,-1,5
 155 -11 155 -11 92.5 65 c 128,-1,6
 30 141 30 141 30 325.5 c 128,-1,7
 30 510 30 510 92.5 590.5 c 128,-1,0
 155 671 155 671 280 671 c 128,-1,1
280 574 m 128,-1,9
 208 574 208 574 176.5 519.5 c 128,-1,10
 145 465 145 465 145 328 c 128,-1,11
 145 191 145 191 177.5 138.5 c 128,-1,12
 210 86 210 86 280.5 86 c 128,-1,13
 351 86 351 86 382.5 138.5 c 128,-1,14
 414 191 414 191 414 328 c 128,-1,15
 414 465 414 465 383 519.5 c 128,-1,8
 352 574 352 574 280 574 c 128,-1,9
EndSplineSet
Substitution2: "'frac' Diagonal Fractions in Latin lookup 1 subtable" zerosuperior
EndChar

StartChar: one
Encoding: 49 49 20
Width: 560
GlyphClass: 2
Flags: W
LayerCount: 2
Fore
SplineSet
405 660 m 1,0,-1
 405 0 l 1,1,-1
 294 0 l 1,2,-1
 294 534 l 1,3,-1
 139 434 l 1,4,-1
 88 517 l 1,5,-1
 303 660 l 1,6,-1
 405 660 l 1,0,-1
EndSplineSet
Substitution2: "'frac' Diagonal Fractions in Latin lookup 1 subtable" onesuperior
EndChar

StartChar: two
Encoding: 50 50 21
Width: 560
GlyphClass: 2
Flags: W
LayerCount: 2
Fore
SplineSet
492 0 m 1,0,-1
 67 0 l 1,1,-1
 67 95 l 1,2,-1
 230 263 l 2,3,4
 304 339 304 339 334 382 c 128,-1,5
 364 425 364 425 364 476.5 c 128,-1,6
 364 528 364 528 335 550 c 128,-1,7
 306 572 306 572 240 572 c 0,8,9
 178 572 178 572 103 558 c 1,10,-1
 78 554 l 1,11,-1
 71 642 l 1,12,13
 168 671 168 671 272 671 c 0,14,15
 479 671 479 671 479 487 c 0,16,17
 479 415 479 415 447.5 362 c 128,-1,18
 416 309 416 309 335 234 c 1,19,-1
 194 97 l 1,20,-1
 492 97 l 1,21,-1
 492 0 l 1,0,-1
EndSplineSet
Substitution2: "'frac' Diagonal Fractions in Latin lookup 1 subtable" twosuperior
EndChar

StartChar: three
Encoding: 51 51 22
Width: 560
GlyphClass: 2
Flags: W
LayerCount: 2
Fore
SplineSet
66 639 m 1,0,1
 159 671 159 671 270 671 c 128,-1,2
 381 671 381 671 431.5 628.5 c 128,-1,3
 482 586 482 586 482 494 c 0,4,5
 482 454 482 454 466.5 422 c 128,-1,6
 451 390 451 390 435 375.5 c 128,-1,7
 419 361 419 361 395 345 c 1,8,9
 448 320 448 320 471.5 290.5 c 128,-1,10
 495 261 495 261 495 195 c 0,11,12
 495 90 495 90 442.5 39.5 c 128,-1,13
 390 -11 390 -11 275 -11 c 0,14,15
 230 -11 230 -11 176 -3.5 c 128,-1,16
 122 4 122 4 90 12 c 2,17,-1
 59 20 l 1,18,-1
 66 106 l 1,19,20
 176 86 176 86 260 86 c 0,21,22
 380 87 380 87 380 192 c 0,23,24
 380 240 380 240 349 265 c 128,-1,25
 318 290 318 290 267 291 c 1,26,-1
 134 291 l 1,27,-1
 134 384 l 1,28,-1
 267 384 l 2,29,30
 304 384 304 384 335.5 414.5 c 128,-1,31
 367 445 367 445 367 488.5 c 128,-1,32
 367 532 367 532 339.5 553 c 128,-1,33
 312 574 312 574 264 574 c 0,34,35
 185 574 185 574 101 560 c 1,36,-1
 75 555 l 1,37,-1
 66 639 l 1,0,1
EndSplineSet
Substitution2: "'frac' Diagonal Fractions in Latin lookup 1 subtable" threesuperior
EndChar

StartChar: four
Encoding: 52 52 23
Width: 560
GlyphClass: 2
Flags: W
LayerCount: 2
Fore
SplineSet
337 0 m 1,0,-1
 337 118 l 1,1,-1
 40 118 l 1,2,-1
 40 203 l 1,3,-1
 214 660 l 1,4,-1
 337 660 l 1,5,-1
 153 215 l 1,6,-1
 337 215 l 1,7,-1
 337 409 l 1,8,-1
 449 409 l 1,9,-1
 449 215 l 1,10,-1
 521 215 l 1,11,-1
 521 118 l 1,12,-1
 449 118 l 1,13,-1
 449 0 l 1,14,-1
 337 0 l 1,0,-1
EndSplineSet
Substitution2: "'frac' Diagonal Fractions in Latin lookup 1 subtable" foursuperior
EndChar

StartChar: five
Encoding: 53 53 24
Width: 560
GlyphClass: 2
Flags: W
LayerCount: 2
Fore
SplineSet
484 660 m 1,0,-1
 484 562 l 1,1,-1
 178 562 l 1,2,-1
 161 388 l 1,3,4
 229 419 229 419 295 419 c 0,5,6
 507 419 507 419 507 221 c 0,7,8
 507 109 507 109 448.5 49 c 128,-1,9
 390 -11 390 -11 283 -11 c 0,10,11
 238 -11 238 -11 181 -2.5 c 128,-1,12
 124 6 124 6 90 14 c 2,13,-1
 56 23 l 1,14,-1
 68 107 l 1,15,16
 186 87 186 87 270 87 c 0,17,18
 328 87 328 87 360 119 c 128,-1,19
 392 151 392 151 392 210 c 128,-1,20
 392 269 392 269 364 295 c 128,-1,21
 336 321 336 321 291 321 c 0,22,23
 210 321 210 321 159 301 c 2,24,-1
 141 294 l 1,25,-1
 71 309 l 1,26,-1
 89 660 l 1,27,-1
 484 660 l 1,0,-1
EndSplineSet
Substitution2: "'frac' Diagonal Fractions in Latin lookup 1 subtable" fivesuperior
EndChar

StartChar: six
Encoding: 54 54 25
Width: 560
GlyphClass: 2
Flags: W
LayerCount: 2
Fore
SplineSet
490 560 m 1,0,1
 393 574 393 574 314 574 c 128,-1,2
 235 574 235 574 196 525 c 128,-1,3
 157 476 157 476 156 388 c 1,4,-1
 179 396 l 1,5,6
 251 419 251 419 300 419 c 0,7,8
 524 419 524 419 524 209 c 0,9,10
 524 101 524 101 462 45 c 128,-1,11
 400 -11 400 -11 281 -11 c 128,-1,12
 162 -11 162 -11 101.5 77.5 c 128,-1,13
 41 166 41 166 41 330 c 0,14,15
 41 671 41 671 309 671 c 0,16,17
 384 671 384 671 471 653 c 2,18,-1
 500 647 l 1,19,-1
 490 560 l 1,0,1
174 299 m 2,20,-1
 155 292 l 1,21,22
 157 86 157 86 287 86 c 0,23,24
 346 86 346 86 377.5 118 c 128,-1,25
 409 150 409 150 409 207 c 128,-1,26
 409 264 409 264 378 292.5 c 128,-1,27
 347 321 347 321 291.5 321 c 128,-1,28
 236 321 236 321 174 299 c 2,20,-1
EndSplineSet
Substitution2: "'frac' Diagonal Fractions in Latin lookup 1 subtable" sixsuperior
EndChar

StartChar: seven
Encoding: 55 55 26
Width: 560
GlyphClass: 2
Flags: W
LayerCount: 2
Fore
SplineSet
73 560 m 1,0,-1
 73 660 l 1,1,-1
 489 660 l 1,2,-1
 489 528 l 1,3,-1
 246 -11 l 1,4,-1
 142 19 l 1,5,-1
 377 530 l 1,6,-1
 377 560 l 1,7,-1
 73 560 l 1,0,-1
EndSplineSet
Substitution2: "'frac' Diagonal Fractions in Latin lookup 1 subtable" sevensuperior
EndChar

StartChar: eight
Encoding: 56 56 27
Width: 560
GlyphClass: 2
Flags: W
LayerCount: 2
Fore
SplineSet
278 671 m 128,-1,1
 388 671 388 671 453.5 625.5 c 128,-1,2
 519 580 519 580 519 495 c 0,3,4
 519 435 519 435 500.5 404.5 c 128,-1,5
 482 374 482 374 431 342 c 1,6,7
 482 309 482 309 505.5 274.5 c 128,-1,8
 529 240 529 240 529 179 c 0,9,10
 529 79 529 79 460 34 c 128,-1,11
 391 -11 391 -11 278 -11 c 0,12,13
 30 -11 30 -11 30 168 c 0,14,15
 30 235 30 235 53 271 c 128,-1,16
 76 307 76 307 126 342 c 1,17,18
 79 373 79 373 60 406.5 c 128,-1,19
 41 440 41 440 41 496 c 0,20,21
 41 580 41 580 104.5 625.5 c 128,-1,0
 168 671 168 671 278 671 c 128,-1,1
149 192 m 0,22,23
 149 89 149 89 279.5 89 c 128,-1,24
 410 89 410 89 410 194 c 0,25,26
 410 263 410 263 326 289 c 1,27,-1
 230 289 l 1,28,29
 149 263 149 263 149 192 c 0,22,23
400 479 m 0,30,31
 400 571 400 571 280 571 c 128,-1,32
 160 571 160 571 160 479 c 0,33,34
 160 419 160 419 230 384 c 1,35,-1
 326 384 l 1,36,37
 400 419 400 419 400 479 c 0,30,31
EndSplineSet
Substitution2: "'frac' Diagonal Fractions in Latin lookup 1 subtable" eightsuperior
EndChar

StartChar: nine
Encoding: 57 57 28
Width: 560
GlyphClass: 2
Flags: W
LayerCount: 2
Fore
SplineSet
248 86 m 0,0,1
 400 86 400 86 402 278 c 1,2,-1
 378 270 l 2,3,4
 302 244 302 244 256 244 c 0,5,6
 148 244 148 244 91 295.5 c 128,-1,7
 34 347 34 347 34 450 c 128,-1,8
 34 553 34 553 97.5 612 c 128,-1,9
 161 671 161 671 270 671 c 0,10,11
 395 671 395 671 456 582 c 128,-1,12
 517 493 517 493 517 319 c 128,-1,13
 517 145 517 145 448.5 67 c 128,-1,14
 380 -11 380 -11 248 -11 c 0,15,16
 173 -11 173 -11 86 7 c 2,17,-1
 57 13 l 1,18,-1
 67 100 l 1,19,20
 164 86 164 86 248 86 c 0,0,1
265 342 m 0,21,22
 322 342 322 342 382 364 c 1,23,-1
 403 371 l 1,24,25
 401 574 401 574 270 574 c 0,26,27
 213 574 213 574 181 541 c 128,-1,28
 149 508 149 508 149 451 c 0,29,30
 149 342 149 342 265 342 c 0,21,22
EndSplineSet
Substitution2: "'frac' Diagonal Fractions in Latin lookup 1 subtable" ninesuperior
EndChar

StartChar: colon
Encoding: 58 58 29
Width: 239
GlyphClass: 2
Flags: W
LayerCount: 2
Fore
SplineSet
61 303 m 1,0,-1
 61 447 l 1,1,-1
 178 447 l 1,2,-1
 178 303 l 1,3,-1
 61 303 l 1,0,-1
61 0 m 1,4,-1
 61 144 l 1,5,-1
 178 144 l 1,6,-1
 178 0 l 1,7,-1
 61 0 l 1,4,-1
EndSplineSet
EndChar

StartChar: semicolon
Encoding: 59 59 30
Width: 266
GlyphClass: 2
Flags: W
LayerCount: 2
Fore
SplineSet
84 124 m 1,0,-1
 204 124 l 1,1,-1
 124 -123 l 1,2,-1
 36 -123 l 1,3,-1
 84 124 l 1,0,-1
77 303 m 1,4,-1
 77 447 l 1,5,-1
 194 447 l 1,6,-1
 194 303 l 1,7,-1
 77 303 l 1,4,-1
EndSplineSet
EndChar

StartChar: less
Encoding: 60 60 31
Width: 560
GlyphClass: 2
Flags: W
LayerCount: 2
Fore
SplineSet
474 377 m 1,0,-1
 180 253 l 1,1,-1
 474 123 l 1,2,-1
 474 11 l 1,3,-1
 64 206 l 1,4,-1
 64 296 l 1,5,-1
 474 488 l 1,6,-1
 474 377 l 1,0,-1
EndSplineSet
EndChar

StartChar: equal
Encoding: 61 61 32
Width: 560
GlyphClass: 2
Flags: W
LayerCount: 2
Fore
SplineSet
61 301 m 1,0,-1
 61 399 l 1,1,-1
 499 399 l 1,2,-1
 499 301 l 1,3,-1
 61 301 l 1,0,-1
61 103 m 1,4,-1
 61 201 l 1,5,-1
 499 201 l 1,6,-1
 499 103 l 1,7,-1
 61 103 l 1,4,-1
EndSplineSet
EndChar

StartChar: greater
Encoding: 62 62 33
Width: 560
GlyphClass: 2
Flags: W
LayerCount: 2
Fore
SplineSet
380 253 m 1,0,-1
 86 377 l 1,1,-1
 86 488 l 1,2,-1
 496 296 l 1,3,-1
 496 206 l 1,4,-1
 86 11 l 1,5,-1
 86 123 l 1,6,-1
 380 253 l 1,0,-1
EndSplineSet
EndChar

StartChar: question
Encoding: 63 63 34
Width: 441
GlyphClass: 2
Flags: W
LayerCount: 2
Fore
SplineSet
406 534 m 0,0,1
 406 467 406 467 389.5 432 c 128,-1,2
 373 397 373 397 322 357 c 128,-1,3
 271 317 271 317 254.5 293.5 c 128,-1,4
 238 270 238 270 238 243 c 2,5,-1
 238 210 l 1,6,-1
 150 210 l 1,7,8
 126 241 126 241 126 288 c 0,9,10
 126 313 126 313 145 338 c 128,-1,11
 164 363 164 363 213 403.5 c 128,-1,12
 262 444 262 444 278 466.5 c 128,-1,13
 294 489 294 489 294 526 c 0,14,15
 294 599 294 599 188 599 c 0,16,17
 128 599 128 599 62 585 c 2,18,-1
 39 580 l 1,19,-1
 33 663 l 1,20,21
 126 696 126 696 202 696 c 0,22,23
 307 696 307 696 356.5 657.5 c 128,-1,24
 406 619 406 619 406 534 c 0,0,1
133 0 m 1,25,-1
 133 140 l 1,26,-1
 249 140 l 1,27,-1
 249 0 l 1,28,-1
 133 0 l 1,25,-1
EndSplineSet
EndChar

StartChar: at
Encoding: 64 64 35
Width: 975
GlyphClass: 2
Flags: W
LayerCount: 2
Fore
SplineSet
939 305 m 2,0,-1
 939 295 l 2,1,2
 939 130 939 130 893 63.5 c 128,-1,3
 847 -3 847 -3 754 -3 c 0,4,5
 709 -3 709 -3 677.5 11.5 c 128,-1,6
 646 26 646 26 637 40 c 2,7,-1
 628 55 l 1,8,9
 540 -2 540 -2 460.5 -2 c 128,-1,10
 381 -2 381 -2 333.5 53.5 c 128,-1,11
 286 109 286 109 286 243.5 c 128,-1,12
 286 378 286 378 330 440 c 128,-1,13
 374 502 374 502 482 502 c 0,14,15
 522 502 522 502 568 484 c 1,16,-1
 584 477 l 1,17,-1
 584 491 l 1,18,-1
 692 491 l 1,19,-1
 692 307 l 2,20,21
 692 155 692 155 702 122 c 0,22,23
 705 110 705 110 713 101 c 128,-1,24
 721 92 721 92 729.5 90 c 128,-1,25
 738 88 738 88 759 88 c 128,-1,26
 780 88 780 88 796 102 c 0,27,28
 830 133 830 133 830 295 c 2,29,-1
 830 306 l 2,30,31
 830 477 830 477 752.5 554 c 128,-1,32
 675 631 675 631 502 631 c 128,-1,33
 329 631 329 631 240.5 538 c 128,-1,34
 152 445 152 445 152 253.5 c 128,-1,35
 152 62 152 62 233.5 -24.5 c 128,-1,36
 315 -111 315 -111 503 -111 c 1,37,-1
 646 -102 l 1,38,-1
 651 -197 l 1,39,40
 559 -206 559 -206 503 -206 c 0,41,42
 388 -206 388 -206 306 -183.5 c 128,-1,43
 224 -161 224 -161 164 -108 c 0,44,45
 44 -3 44 -3 44 261 c 0,46,47
 44 496 44 496 164.5 611 c 128,-1,48
 285 726 285 726 504 726 c 0,49,50
 939 726 939 726 939 305 c 2,0,-1
477 93 m 0,51,52
 519 93 519 93 591 127 c 1,53,54
 584 167 584 167 584 262 c 2,55,-1
 584 392 l 1,56,57
 534 407 534 407 504 407 c 0,58,59
 440 407 440 407 418 370.5 c 128,-1,60
 396 334 396 334 396 248 c 0,61,62
 396 93 396 93 477 93 c 0,51,52
EndSplineSet
EndChar

StartChar: A
Encoding: 65 65 36
Width: 599
GlyphClass: 2
Flags: W
LayerCount: 2
Fore
SplineSet
20 0 m 1,0,-1
 189 685 l 1,1,-1
 410 685 l 1,2,-1
 580 0 l 1,3,-1
 468 0 l 1,4,-1
 431 147 l 1,5,-1
 168 147 l 1,6,-1
 131 0 l 1,7,-1
 20 0 l 1,0,-1
275 592 m 1,8,-1
 190 245 l 1,9,-1
 409 245 l 1,10,-1
 325 592 l 1,11,-1
 275 592 l 1,8,-1
EndSplineSet
Position2: "'cpsp' Capital Spacing in Latin lookup 0 subtable" dx=5 dy=0 dh=10 dv=0
EndChar

StartChar: B
Encoding: 66 66 37
Width: 612
GlyphClass: 2
Flags: W
LayerCount: 2
Fore
SplineSet
79 685 m 1,0,-1
 339 685 l 2,1,2
 444 685 444 685 496 642.5 c 128,-1,3
 548 600 548 600 548 507 c 0,4,5
 548 446 548 446 528.5 411 c 128,-1,6
 509 376 509 376 467 353 c 1,7,8
 565 315 565 315 565 194 c 0,9,10
 565 0 565 0 347 0 c 2,11,-1
 79 0 l 1,12,-1
 79 685 l 1,0,-1
339 299 m 2,13,-1
 190 299 l 1,14,-1
 190 96 l 1,15,-1
 341 96 l 2,16,17
 396 96 396 96 423.5 119 c 128,-1,18
 451 142 451 142 451 198 c 128,-1,19
 451 254 451 254 419 276.5 c 128,-1,20
 387 299 387 299 339 299 c 2,13,-1
333 589 m 2,21,-1
 190 589 l 1,22,-1
 190 393 l 1,23,-1
 337 393 l 2,24,25
 435 393 435 393 435 494 c 0,26,27
 435 589 435 589 333 589 c 2,21,-1
EndSplineSet
Position2: "'cpsp' Capital Spacing in Latin lookup 0 subtable" dx=5 dy=0 dh=10 dv=0
EndChar

StartChar: C
Encoding: 67 67 38
Width: 544
GlyphClass: 2
Flags: W
LayerCount: 2
Fore
SplineSet
309 -11 m 0,0,1
 159 -11 159 -11 105.5 72 c 128,-1,2
 52 155 52 155 52 345 c 128,-1,3
 52 535 52 535 106 615.5 c 128,-1,4
 160 696 160 696 309 696 c 0,5,6
 398 696 398 696 505 671 c 1,7,-1
 501 581 l 1,8,9
 411 597 411 597 321 597 c 128,-1,10
 231 597 231 597 199 543.5 c 128,-1,11
 167 490 167 490 167 342.5 c 128,-1,12
 167 195 167 195 198 141.5 c 128,-1,13
 229 88 229 88 319 88 c 128,-1,14
 409 88 409 88 501 103 c 1,15,-1
 504 11 l 1,16,17
 401 -11 401 -11 309 -11 c 0,0,1
EndSplineSet
Position2: "'cpsp' Capital Spacing in Latin lookup 0 subtable" dx=5 dy=0 dh=10 dv=0
EndChar

StartChar: D
Encoding: 68 68 39
Width: 641
GlyphClass: 2
Flags: W
LayerCount: 2
Fore
SplineSet
316 0 m 2,0,-1
 79 0 l 1,1,-1
 79 685 l 1,2,-1
 316 685 l 2,3,4
 474 685 474 685 532 605 c 128,-1,5
 590 525 590 525 590 354 c 0,6,7
 590 267 590 267 578.5 206.5 c 128,-1,8
 567 146 567 146 538 97 c 0,9,10
 481 0 481 0 316 0 c 2,0,-1
475 354 m 0,11,12
 475 478 475 478 444 533 c 128,-1,13
 413 588 413 588 316 588 c 2,14,-1
 190 588 l 1,15,-1
 190 98 l 1,16,-1
 316 98 l 2,17,18
 415 98 415 98 448 171 c 0,19,20
 464 208 464 208 469.5 250 c 128,-1,21
 475 292 475 292 475 354 c 0,11,12
EndSplineSet
Position2: "'cpsp' Capital Spacing in Latin lookup 0 subtable" dx=5 dy=0 dh=10 dv=0
EndChar

StartChar: E
Encoding: 69 69 40
Width: 553
GlyphClass: 2
Flags: W
LayerCount: 2
Fore
SplineSet
79 0 m 1,0,-1
 79 685 l 1,1,-1
 511 685 l 1,2,-1
 511 588 l 1,3,-1
 190 588 l 1,4,-1
 190 394 l 1,5,-1
 451 394 l 1,6,-1
 451 298 l 1,7,-1
 190 298 l 1,8,-1
 190 98 l 1,9,-1
 511 98 l 1,10,-1
 511 0 l 1,11,-1
 79 0 l 1,0,-1
EndSplineSet
Position2: "'cpsp' Capital Spacing in Latin lookup 0 subtable" dx=5 dy=0 dh=10 dv=0
EndChar

StartChar: F
Encoding: 70 70 41
Width: 529
GlyphClass: 2
Flags: W
LayerCount: 2
Fore
SplineSet
79 0 m 1,0,-1
 79 685 l 1,1,-1
 504 685 l 1,2,-1
 504 588 l 1,3,-1
 190 588 l 1,4,-1
 190 357 l 1,5,-1
 451 357 l 1,6,-1
 451 260 l 1,7,-1
 190 260 l 1,8,-1
 190 0 l 1,9,-1
 79 0 l 1,0,-1
EndSplineSet
Position2: "'cpsp' Capital Spacing in Latin lookup 0 subtable" dx=5 dy=0 dh=10 dv=0
EndChar

StartChar: G
Encoding: 71 71 42
Width: 613
GlyphClass: 2
Flags: W
LayerCount: 2
Fore
SplineSet
358 262 m 1,0,-1
 358 360 l 1,1,-1
 553 360 l 1,2,-1
 553 12 l 1,3,4
 526 5 526 5 443.5 -3 c 128,-1,5
 361 -11 361 -11 324 -11 c 0,6,7
 168 -11 168 -11 109 75 c 128,-1,8
 50 161 50 161 50 344.5 c 128,-1,9
 50 528 50 528 110.5 612 c 128,-1,10
 171 696 171 696 320 696 c 0,11,12
 408 696 408 696 518 676 c 1,13,-1
 553 669 l 1,14,-1
 549 581 l 1,15,16
 428 597 428 597 332 597 c 128,-1,17
 236 597 236 597 200.5 543 c 128,-1,18
 165 489 165 489 165 343 c 128,-1,19
 165 197 165 197 198.5 141.5 c 128,-1,20
 232 86 232 86 334 86 c 0,21,22
 407 86 407 86 443 95 c 1,23,-1
 443 262 l 1,24,-1
 358 262 l 1,0,-1
EndSplineSet
Position2: "'cpsp' Capital Spacing in Latin lookup 0 subtable" dx=5 dy=0 dh=10 dv=0
EndChar

StartChar: H
Encoding: 72 72 43
Width: 676
GlyphClass: 2
Flags: W
LayerCount: 2
Fore
SplineSet
486 0 m 1,0,-1
 486 296 l 1,1,-1
 190 296 l 1,2,-1
 190 0 l 1,3,-1
 79 0 l 1,4,-1
 79 685 l 1,5,-1
 190 685 l 1,6,-1
 190 393 l 1,7,-1
 486 393 l 1,8,-1
 486 685 l 1,9,-1
 598 685 l 1,10,-1
 598 0 l 1,11,-1
 486 0 l 1,0,-1
EndSplineSet
Position2: "'cpsp' Capital Spacing in Latin lookup 0 subtable" dx=5 dy=0 dh=10 dv=0
EndChar

StartChar: I
Encoding: 73 73 44
Width: 269
GlyphClass: 2
Flags: W
LayerCount: 2
Fore
SplineSet
79 0 m 1,0,-1
 79 685 l 1,1,-1
 190 685 l 1,2,-1
 190 0 l 1,3,-1
 79 0 l 1,0,-1
EndSplineSet
Position2: "'cpsp' Capital Spacing in Latin lookup 0 subtable" dx=5 dy=0 dh=10 dv=0
EndChar

StartChar: J
Encoding: 74 74 45
Width: 296
GlyphClass: 2
Flags: W
LayerCount: 2
Fore
SplineSet
19 -71 m 1,0,-1
 19 27 l 1,1,2
 72 27 72 27 91.5 43 c 128,-1,3
 111 59 111 59 111 114 c 2,4,-1
 111 685 l 1,5,-1
 221 685 l 1,6,-1
 222 106 l 2,7,8
 222 -1 222 -1 177 -36 c 128,-1,9
 132 -71 132 -71 19 -71 c 1,0,-1
EndSplineSet
Position2: "'cpsp' Capital Spacing in Latin lookup 0 subtable" dx=5 dy=0 dh=10 dv=0
EndChar

StartChar: K
Encoding: 75 75 46
Width: 583
GlyphClass: 2
Flags: W
LayerCount: 2
Fore
SplineSet
190 0 m 1,0,-1
 79 0 l 1,1,-1
 79 685 l 1,2,-1
 190 685 l 1,3,-1
 190 376 l 1,4,-1
 292 384 l 1,5,-1
 432 685 l 1,6,-1
 559 685 l 1,7,-1
 390 341 l 1,8,-1
 566 0 l 1,9,-1
 437 0 l 1,10,-1
 292 286 l 1,11,-1
 190 279 l 1,12,-1
 190 0 l 1,0,-1
EndSplineSet
Position2: "'cpsp' Capital Spacing in Latin lookup 0 subtable" dx=5 dy=0 dh=10 dv=0
EndChar

StartChar: L
Encoding: 76 76 47
Width: 475
GlyphClass: 2
Flags: W
LayerCount: 2
Fore
SplineSet
463 0 m 1,0,-1
 79 0 l 1,1,-1
 79 685 l 1,2,-1
 190 685 l 1,3,-1
 190 99 l 1,4,-1
 463 99 l 1,5,-1
 463 0 l 1,0,-1
EndSplineSet
Position2: "'cpsp' Capital Spacing in Latin lookup 0 subtable" dx=5 dy=0 dh=10 dv=0
EndChar

StartChar: M
Encoding: 77 77 48
Width: 850
GlyphClass: 2
Flags: W
LayerCount: 2
Fore
SplineSet
79 0 m 1,0,-1
 79 685 l 1,1,-1
 272 685 l 1,2,-1
 425 150 l 1,3,-1
 578 685 l 1,4,-1
 772 685 l 1,5,-1
 772 0 l 1,6,-1
 660 0 l 1,7,-1
 660 562 l 1,8,-1
 645 562 l 1,9,-1
 483 28 l 1,10,-1
 367 28 l 1,11,-1
 205 562 l 1,12,-1
 190 562 l 1,13,-1
 190 0 l 1,14,-1
 79 0 l 1,0,-1
EndSplineSet
Position2: "'cpsp' Capital Spacing in Latin lookup 0 subtable" dx=5 dy=0 dh=10 dv=0
EndChar

StartChar: N
Encoding: 78 78 49
Width: 686
GlyphClass: 2
Flags: W
LayerCount: 2
Fore
SplineSet
79 0 m 1,0,-1
 79 685 l 1,1,-1
 273 685 l 1,2,-1
 481 98 l 1,3,-1
 496 98 l 1,4,-1
 496 685 l 1,5,-1
 607 685 l 1,6,-1
 607 0 l 1,7,-1
 417 0 l 1,8,-1
 204 588 l 1,9,-1
 190 588 l 1,10,-1
 190 0 l 1,11,-1
 79 0 l 1,0,-1
EndSplineSet
Position2: "'cpsp' Capital Spacing in Latin lookup 0 subtable" dx=5 dy=0 dh=10 dv=0
EndChar

StartChar: O
Encoding: 79 79 50
Width: 656
GlyphClass: 2
Flags: W
LayerCount: 2
Fore
SplineSet
328 86 m 128,-1,1
 424 86 424 86 457.5 144 c 128,-1,2
 491 202 491 202 491 338.5 c 128,-1,3
 491 475 491 475 456.5 537 c 128,-1,4
 422 599 422 599 328 599 c 128,-1,5
 234 599 234 599 199 537 c 128,-1,6
 164 475 164 475 164 339.5 c 128,-1,7
 164 204 164 204 198 145 c 128,-1,0
 232 86 232 86 328 86 c 128,-1,1
328 -11 m 128,-1,9
 173 -11 173 -11 111 73.5 c 128,-1,10
 49 158 49 158 49 339 c 128,-1,11
 49 520 49 520 111.5 608 c 128,-1,12
 174 696 174 696 328 696 c 128,-1,13
 482 696 482 696 544 608.5 c 128,-1,14
 606 521 606 521 606 339 c 128,-1,15
 606 157 606 157 544.5 73 c 128,-1,8
 483 -11 483 -11 328 -11 c 128,-1,9
EndSplineSet
Position2: "'cpsp' Capital Spacing in Latin lookup 0 subtable" dx=5 dy=0 dh=10 dv=0
EndChar

StartChar: P
Encoding: 80 80 51
Width: 591
GlyphClass: 2
Flags: W
LayerCount: 2
Fore
SplineSet
330 213 m 2,0,-1
 190 213 l 1,1,-1
 190 0 l 1,2,-1
 79 0 l 1,3,-1
 79 685 l 1,4,-1
 330 685 l 2,5,6
 563 685 563 685 563 455 c 0,7,8
 563 337 563 337 504.5 275 c 128,-1,9
 446 213 446 213 330 213 c 2,0,-1
190 309 m 1,10,-1
 329 309 l 2,11,12
 449 309 449 309 449 455 c 0,13,14
 449 525 449 525 420 557 c 128,-1,15
 391 589 391 589 329 589 c 2,16,-1
 190 589 l 1,17,-1
 190 309 l 1,10,-1
EndSplineSet
Position2: "'cpsp' Capital Spacing in Latin lookup 0 subtable" dx=5 dy=0 dh=10 dv=0
EndChar

StartChar: Q
Encoding: 81 81 52
Width: 656
GlyphClass: 2
Flags: W
LayerCount: 2
Fore
SplineSet
328 -11 m 0,0,1
 172 -11 172 -11 110.5 73 c 128,-1,2
 49 157 49 157 49 338.5 c 128,-1,3
 49 520 49 520 111.5 608 c 128,-1,4
 174 696 174 696 328 696 c 128,-1,5
 482 696 482 696 544 608.5 c 128,-1,6
 606 521 606 521 606 339 c 0,7,8
 606 219 606 219 580.5 145 c 128,-1,9
 555 71 555 71 497 32 c 1,10,-1
 581 -103 l 1,11,-1
 478 -151 l 1,12,-1
 389 -5 l 1,13,14
 370 -11 370 -11 328 -11 c 0,0,1
328 86 m 128,-1,16
 424 86 424 86 457.5 143.5 c 128,-1,17
 491 201 491 201 491 338 c 128,-1,18
 491 475 491 475 456.5 537 c 128,-1,19
 422 599 422 599 328 599 c 128,-1,20
 234 599 234 599 199 537 c 128,-1,21
 164 475 164 475 164 339 c 128,-1,22
 164 203 164 203 198 144.5 c 128,-1,15
 232 86 232 86 328 86 c 128,-1,16
EndSplineSet
Position2: "'cpsp' Capital Spacing in Latin lookup 0 subtable" dx=5 dy=0 dh=10 dv=0
EndChar

StartChar: R
Encoding: 82 82 53
Width: 618
GlyphClass: 2
Flags: W
LayerCount: 2
Fore
SplineSet
190 244 m 1,0,-1
 190 0 l 1,1,-1
 79 0 l 1,2,-1
 79 685 l 1,3,-1
 339 685 l 2,4,5
 571 685 571 685 571 467 c 0,6,7
 571 321 571 321 459 269 c 1,8,-1
 572 0 l 1,9,-1
 450 0 l 1,10,-1
 351 244 l 1,11,-1
 190 244 l 1,0,-1
457 466 m 0,12,13
 457 589 457 589 339 589 c 2,14,-1
 190 589 l 1,15,-1
 190 340 l 1,16,-1
 341 340 l 2,17,18
 401 340 401 340 429 374.5 c 128,-1,19
 457 409 457 409 457 466 c 0,12,13
EndSplineSet
Position2: "'cpsp' Capital Spacing in Latin lookup 0 subtable" dx=5 dy=0 dh=10 dv=0
EndChar

StartChar: S
Encoding: 83 83 54
Width: 543
GlyphClass: 2
Flags: W
LayerCount: 2
Fore
SplineSet
280 599 m 0,0,1
 153 599 153 599 153 510 c 0,2,3
 153 464 153 464 183 444.5 c 128,-1,4
 213 425 213 425 315.5 396.5 c 128,-1,5
 418 368 418 368 460 328.5 c 128,-1,6
 502 289 502 289 502 204 c 0,7,8
 502 96 502 96 440.5 42.5 c 128,-1,9
 379 -11 379 -11 273 -11 c 0,10,11
 188 -11 188 -11 85 9 c 2,12,-1
 49 16 l 1,13,-1
 60 105 l 1,14,15
 195 87 195 87 266 87 c 0,16,17
 390 87 390 87 390 197 c 0,18,19
 390 240 390 240 362 260.5 c 128,-1,20
 334 281 334 281 236 305.5 c 128,-1,21
 138 330 138 330 90 373 c 128,-1,22
 42 416 42 416 42 509 c 128,-1,23
 42 602 42 602 102.5 649.5 c 128,-1,24
 163 697 163 697 270 697 c 0,25,26
 347 697 347 697 452 679 c 2,27,-1
 487 673 l 1,28,-1
 478 583 l 1,29,30
 338 599 338 599 280 599 c 0,0,1
EndSplineSet
Position2: "'cpsp' Capital Spacing in Latin lookup 0 subtable" dx=5 dy=0 dh=10 dv=0
EndChar

StartChar: T
Encoding: 84 84 55
Width: 526
GlyphClass: 2
Flags: W
LayerCount: 2
Fore
SplineSet
13 586 m 1,0,-1
 13 685 l 1,1,-1
 513 685 l 1,2,-1
 513 586 l 1,3,-1
 320 586 l 1,4,-1
 320 0 l 1,5,-1
 208 0 l 1,6,-1
 208 586 l 1,7,-1
 13 586 l 1,0,-1
EndSplineSet
Position2: "'cpsp' Capital Spacing in Latin lookup 0 subtable" dx=5 dy=0 dh=10 dv=0
EndChar

StartChar: U
Encoding: 85 85 56
Width: 650
GlyphClass: 2
Flags: W
LayerCount: 2
Fore
SplineSet
185 219 m 2,0,1
 185 86 185 86 325 86 c 128,-1,2
 465 86 465 86 465 219 c 2,3,-1
 465 685 l 1,4,-1
 577 685 l 1,5,-1
 577 221 l 2,6,7
 577 100 577 100 513.5 44.5 c 128,-1,8
 450 -11 450 -11 324.5 -11 c 128,-1,9
 199 -11 199 -11 136 44.5 c 128,-1,10
 73 100 73 100 73 221 c 2,11,-1
 73 685 l 1,12,-1
 185 685 l 1,13,-1
 185 219 l 2,0,1
EndSplineSet
Position2: "'cpsp' Capital Spacing in Latin lookup 0 subtable" dx=5 dy=0 dh=10 dv=0
EndChar

StartChar: V
Encoding: 86 86 57
Width: 594
GlyphClass: 2
Flags: W
LayerCount: 2
Fore
SplineSet
458 685 m 1,0,-1
 574 685 l 1,1,-1
 406 0 l 1,2,-1
 188 0 l 1,3,-1
 20 685 l 1,4,-1
 136 685 l 1,5,-1
 272 98 l 1,6,-1
 322 98 l 1,7,-1
 458 685 l 1,0,-1
EndSplineSet
Position2: "'cpsp' Capital Spacing in Latin lookup 0 subtable" dx=5 dy=0 dh=10 dv=0
EndChar

StartChar: W
Encoding: 87 87 58
Width: 911
GlyphClass: 2
Flags: W
LayerCount: 2
Fore
SplineSet
24 685 m 1,0,-1
 141 685 l 1,1,-1
 239 96 l 1,2,-1
 260 96 l 1,3,-1
 390 683 l 1,4,-1
 520 683 l 1,5,-1
 650 96 l 1,6,-1
 672 96 l 1,7,-1
 770 685 l 1,8,-1
 887 685 l 1,9,-1
 752 0 l 1,10,-1
 573 0 l 1,11,-1
 455 549 l 1,12,-1
 338 0 l 1,13,-1
 158 0 l 1,14,-1
 24 685 l 1,0,-1
EndSplineSet
Position2: "'cpsp' Capital Spacing in Latin lookup 0 subtable" dx=5 dy=0 dh=10 dv=0
EndChar

StartChar: X
Encoding: 88 88 59
Width: 564
GlyphClass: 2
Flags: W
LayerCount: 2
Fore
SplineSet
138 685 m 1,0,-1
 285 415 l 1,1,-1
 434 685 l 1,2,-1
 551 685 l 1,3,-1
 348 337 l 1,4,-1
 551 0 l 1,5,-1
 427 0 l 1,6,-1
 280 258 l 1,7,-1
 130 0 l 1,8,-1
 13 0 l 1,9,-1
 217 331 l 1,10,-1
 13 685 l 1,11,-1
 138 685 l 1,0,-1
EndSplineSet
Position2: "'cpsp' Capital Spacing in Latin lookup 0 subtable" dx=5 dy=0 dh=10 dv=0
EndChar

StartChar: Y
Encoding: 89 89 60
Width: 549
GlyphClass: 2
Flags: W
LayerCount: 2
Fore
SplineSet
331 0 m 1,0,-1
 219 0 l 1,1,-1
 219 282 l 1,2,-1
 4 685 l 1,3,-1
 129 685 l 1,4,-1
 274 391 l 1,5,-1
 420 685 l 1,6,-1
 544 685 l 1,7,-1
 331 282 l 1,8,-1
 331 0 l 1,0,-1
EndSplineSet
Position2: "'cpsp' Capital Spacing in Latin lookup 0 subtable" dx=5 dy=0 dh=10 dv=0
EndChar

StartChar: Z
Encoding: 90 90 61
Width: 534
GlyphClass: 2
Flags: W
LayerCount: 2
Fore
SplineSet
42 588 m 1,0,-1
 42 685 l 1,1,-1
 492 685 l 1,2,-1
 492 578 l 1,3,-1
 174 116 l 1,4,-1
 174 97 l 1,5,-1
 492 97 l 1,6,-1
 492 0 l 1,7,-1
 42 0 l 1,8,-1
 42 106 l 1,9,-1
 359 568 l 1,10,-1
 359 588 l 1,11,-1
 42 588 l 1,0,-1
EndSplineSet
Position2: "'cpsp' Capital Spacing in Latin lookup 0 subtable" dx=5 dy=0 dh=10 dv=0
EndChar

StartChar: bracketleft
Encoding: 91 91 62
Width: 344
GlyphClass: 2
Flags: W
LayerCount: 2
Fore
SplineSet
306 749 m 1,0,-1
 306 652 l 1,1,-1
 183 652 l 1,2,-1
 183 -26 l 1,3,-1
 306 -26 l 1,4,-1
 306 -123 l 1,5,-1
 73 -123 l 1,6,-1
 73 749 l 1,7,-1
 306 749 l 1,0,-1
EndSplineSet
Substitution2: "'case' Case-Sensitive Forms in Latin lookup 4 subtable" bracketleft.cap
EndChar

StartChar: backslash
Encoding: 92 92 63
Width: 471
GlyphClass: 2
Flags: W
LayerCount: 2
Fore
SplineSet
440 13 m 1,0,-1
 345 -27 l 1,1,-1
 31 670 l 1,2,-1
 125 712 l 1,3,-1
 440 13 l 1,0,-1
EndSplineSet
EndChar

StartChar: bracketright
Encoding: 93 93 64
Width: 344
GlyphClass: 2
Flags: W
LayerCount: 2
Fore
SplineSet
38 652 m 1,0,-1
 38 749 l 1,1,-1
 271 749 l 1,2,-1
 271 -123 l 1,3,-1
 38 -123 l 1,4,-1
 38 -26 l 1,5,-1
 161 -26 l 1,6,-1
 161 652 l 1,7,-1
 38 652 l 1,0,-1
EndSplineSet
Substitution2: "'case' Case-Sensitive Forms in Latin lookup 4 subtable" bracketright.cap
EndChar

StartChar: asciicircum
Encoding: 94 94 65
Width: 560
GlyphClass: 2
Flags: W
LayerCount: 2
Fore
SplineSet
400 316 m 1,0,-1
 276 554 l 1,1,-1
 151 316 l 1,2,-1
 37 316 l 1,3,-1
 227 660 l 1,4,-1
 321 660 l 1,5,-1
 514 316 l 1,6,-1
 400 316 l 1,0,-1
EndSplineSet
EndChar

StartChar: underscore
Encoding: 95 95 66
Width: 625
GlyphClass: 2
Flags: W
LayerCount: 2
Fore
SplineSet
99 -81 m 1,0,-1
 527 -81 l 1,1,-1
 527 -174 l 1,2,-1
 99 -174 l 1,3,-1
 99 -81 l 1,0,-1
EndSplineSet
EndChar

StartChar: grave
Encoding: 96 96 67
Width: 254
GlyphClass: 2
Flags: W
LayerCount: 2
Fore
SplineSet
24 748 m 1,0,-1
 260 647 l 1,1,-1
 234 576 l 1,2,-1
 -10 654 l 1,3,-1
 24 748 l 1,0,-1
EndSplineSet
EndChar

StartChar: a
Encoding: 97 97 68
Width: 507
GlyphClass: 2
Flags: W
LayerCount: 2
Fore
SplineSet
436 346 m 2,0,-1
 436 118 l 1,1,2
 437 96 437 96 447.5 85.5 c 128,-1,3
 458 75 458 75 480 72 c 1,4,-1
 477 -11 l 1,5,6
 391 -11 391 -11 344 26 c 1,7,8
 264 -11 264 -11 183 -11 c 0,9,10
 34 -11 34 -11 34 148 c 0,11,12
 34 224 34 224 74.5 258 c 128,-1,13
 115 292 115 292 199 299 c 2,14,-1
 328 310 l 1,15,-1
 328 346 l 2,16,17
 328 386 328 386 310.5 402 c 128,-1,18
 293 418 293 418 259 418 c 0,19,20
 195 418 195 418 99 410 c 1,21,-1
 67 408 l 1,22,-1
 63 485 l 1,23,24
 172 511 172 511 263.5 511 c 128,-1,25
 355 511 355 511 395.5 471.5 c 128,-1,26
 436 432 436 432 436 346 c 2,0,-1
212 222 m 2,27,28
 143 216 143 216 143 147 c 128,-1,29
 143 78 143 78 204 78 c 0,30,31
 254 78 254 78 310 94 c 1,32,-1
 328 100 l 1,33,-1
 328 233 l 1,34,-1
 212 222 l 2,27,28
EndSplineSet
EndChar

StartChar: b
Encoding: 98 98 69
Width: 536
GlyphClass: 2
Flags: W
LayerCount: 2
Fore
SplineSet
299 511 m 0,0,1
 402 511 402 511 447.5 453.5 c 128,-1,2
 493 396 493 396 493 250 c 128,-1,3
 493 104 493 104 439 46.5 c 128,-1,4
 385 -11 385 -11 249 -11 c 0,5,6
 202 -11 202 -11 100 -2 c 2,7,-1
 66 1 l 1,8,-1
 66 708 l 1,9,-1
 174 708 l 1,10,-1
 174 481 l 1,11,12
 243 511 243 511 299 511 c 0,0,1
249 86 m 0,13,14
 329 86 329 86 355.5 123.5 c 128,-1,15
 382 161 382 161 382 251 c 128,-1,16
 382 341 382 341 359.5 377.5 c 128,-1,17
 337 414 337 414 286 414 c 0,18,19
 238 414 238 414 190 399 c 2,20,-1
 174 394 l 1,21,-1
 174 90 l 1,22,23
 229 86 229 86 249 86 c 0,13,14
EndSplineSet
EndChar

StartChar: c
Encoding: 99 99 70
Width: 442
GlyphClass: 2
Flags: W
LayerCount: 2
Fore
SplineSet
253 511 m 0,0,1
 306 511 306 511 378 497 c 2,2,-1
 403 492 l 1,3,-1
 399 406 l 1,4,5
 320 414 320 414 282 414 c 0,6,7
 206 414 206 414 180 380 c 128,-1,8
 154 346 154 346 154 252 c 128,-1,9
 154 158 154 158 179 122 c 128,-1,10
 204 86 204 86 283 86 c 1,11,-1
 400 94 l 1,12,-1
 403 7 l 1,13,14
 302 -11 302 -11 251 -11 c 0,15,16
 137 -11 137 -11 90.5 50.5 c 128,-1,17
 44 112 44 112 44 252 c 128,-1,18
 44 392 44 392 93 451.5 c 128,-1,19
 142 511 142 511 253 511 c 0,0,1
EndSplineSet
EndChar

StartChar: d
Encoding: 100 100 71
Width: 540
GlyphClass: 2
Flags: W
LayerCount: 2
Fore
SplineSet
474 708 m 1,0,-1
 474 0 l 1,1,-1
 366 0 l 1,2,-1
 366 26 l 1,3,4
 293 -11 293 -11 232 -11 c 0,5,6
 134 -11 134 -11 88.5 48 c 128,-1,7
 43 107 43 107 43 246 c 128,-1,8
 43 385 43 385 93.5 448 c 128,-1,9
 144 511 144 511 251 511 c 0,10,11
 287 511 287 511 365 498 c 1,12,-1
 365 708 l 1,13,-1
 474 708 l 1,0,-1
348 104 m 2,14,-1
 365 111 l 1,15,-1
 365 407 l 1,16,17
 305 417 305 417 254 417 c 0,18,19
 153 417 153 417 153 249 c 0,20,21
 153 157 153 157 176.5 121.5 c 128,-1,22
 200 86 200 86 251 86 c 128,-1,23
 302 86 302 86 348 104 c 2,14,-1
EndSplineSet
EndChar

StartChar: e
Encoding: 101 101 72
Width: 508
GlyphClass: 2
Flags: W
LayerCount: 2
Fore
SplineSet
422 90 m 1,0,-1
 450 93 l 1,1,-1
 452 12 l 1,2,3
 338 -11 338 -11 250 -11 c 0,4,5
 139 -11 139 -11 90.5 50 c 128,-1,6
 42 111 42 111 42 245 c 0,7,8
 42 511 42 511 259 511 c 0,9,10
 469 511 469 511 469 282 c 1,11,-1
 462 204 l 1,12,-1
 152 204 l 1,13,14
 153 142 153 142 179 113 c 128,-1,15
 205 84 205 84 276 84 c 128,-1,16
 347 84 347 84 422 90 c 1,0,-1
362 288 m 1,17,18
 362 362 362 362 338.5 391.5 c 128,-1,19
 315 421 315 421 259 421 c 128,-1,20
 203 421 203 421 177.5 390 c 128,-1,21
 152 359 152 359 151 288 c 1,22,-1
 362 288 l 1,17,18
EndSplineSet
EndChar

StartChar: f
Encoding: 102 102 73
Width: 346
GlyphClass: 2
Flags: W
LayerCount: 2
Fore
SplineSet
197 407 m 1,0,-1
 197 0 l 1,1,-1
 89 0 l 1,2,-1
 89 407 l 1,3,-1
 31 407 l 1,4,-1
 31 500 l 1,5,-1
 89 500 l 1,6,-1
 89 532 l 2,7,8
 89 639 89 639 120 679 c 128,-1,9
 151 719 151 719 230 719 c 1,10,-1
 338 709 l 1,11,-1
 337 620 l 1,12,13
 288 622 288 622 255.5 622 c 128,-1,14
 223 622 223 622 210 602.5 c 128,-1,15
 197 583 197 583 197 531 c 2,16,-1
 197 500 l 1,17,-1
 329 500 l 1,18,-1
 329 407 l 1,19,-1
 197 407 l 1,0,-1
EndSplineSet
EndChar

StartChar: g
Encoding: 103 103 74
Width: 525
GlyphClass: 2
Flags: W
LayerCount: 2
Fore
SplineSet
503 -68 m 0,0,1
 503 -232 503 -232 266 -232 c 0,2,3
 152 -232 152 -232 97 -201 c 128,-1,4
 42 -170 42 -170 42 -88 c 0,5,6
 42 -51 42 -51 60 -24.5 c 128,-1,7
 78 2 78 2 118 33 c 1,8,9
 85 55 85 55 85 106 c 0,10,11
 85 126 85 126 112 171 c 2,12,-1
 121 186 l 1,13,14
 49 229 49 229 49 336 c 0,15,16
 49 426 49 426 103 468 c 128,-1,17
 157 510 157 510 249 510 c 0,18,19
 293 510 293 510 336 500 c 1,20,-1
 351 497 l 1,21,-1
 506 501 l 1,22,-1
 506 413 l 1,23,-1
 423 418 l 1,24,25
 450 383 450 383 450 336 c 0,26,27
 450 238 450 238 400.5 200.5 c 128,-1,28
 351 163 351 163 246 163 c 0,29,30
 220 163 220 163 202 167 c 1,31,32
 188 133 188 133 188 114.5 c 128,-1,33
 188 96 188 96 206.5 89 c 128,-1,34
 225 82 225 82 296 81 c 0,35,36
 415 80 415 80 459 49 c 128,-1,37
 503 18 503 18 503 -68 c 0,0,1
149 -78 m 0,38,39
 149 -113 149 -113 177 -128 c 128,-1,40
 205 -143 205 -143 273 -143 c 0,41,42
 394 -143 394 -143 394 -74 c 0,43,44
 394 -35 394 -35 372.5 -24.5 c 128,-1,45
 351 -14 351 -14 287 -13 c 1,46,-1
 189 -7 l 1,47,48
 167 -25 167 -25 158 -40.5 c 128,-1,49
 149 -56 149 -56 149 -78 c 0,38,39
179 268.5 m 128,-1,51
 201 247 201 247 250 247 c 128,-1,52
 299 247 299 247 320.5 268.5 c 128,-1,53
 342 290 342 290 342 336 c 128,-1,54
 342 382 342 382 320 403.5 c 128,-1,55
 298 425 298 425 249 425 c 0,56,57
 157 425 157 425 157 336 c 0,58,50
 157 290 157 290 179 268.5 c 128,-1,51
EndSplineSet
EndChar

StartChar: h
Encoding: 104 104 75
Width: 546
GlyphClass: 2
Flags: W
LayerCount: 2
Fore
SplineSet
175 0 m 1,0,-1
 66 0 l 1,1,-1
 66 708 l 1,2,-1
 175 708 l 1,3,-1
 175 474 l 1,4,5
 249 511 249 511 312 511 c 0,6,7
 412 511 412 511 448.5 454.5 c 128,-1,8
 485 398 485 398 485 268 c 2,9,-1
 485 0 l 1,10,-1
 376 0 l 1,11,-1
 376 265 l 2,12,13
 376 346 376 346 359 380 c 128,-1,14
 342 414 342 414 287 414 c 0,15,16
 239 414 239 414 191 398 c 1,17,-1
 175 392 l 1,18,-1
 175 0 l 1,0,-1
EndSplineSet
EndChar

StartChar: i
Encoding: 105 105 76
Width: 241
GlyphClass: 2
Flags: W
LayerCount: 2
Fore
SplineSet
66 0 m 1,0,-1
 66 500 l 1,1,-1
 175 500 l 1,2,-1
 175 0 l 1,3,-1
 66 0 l 1,0,-1
66 585 m 1,4,-1
 66 700 l 1,5,-1
 175 700 l 1,6,-1
 175 585 l 1,7,-1
 66 585 l 1,4,-1
EndSplineSet
EndChar

StartChar: j
Encoding: 106 106 77
Width: 242
GlyphClass: 2
Flags: W
LayerCount: 2
Fore
SplineSet
67 19 m 2,0,-1
 67 500 l 1,1,-1
 175 500 l 1,2,-1
 175 18 l 2,3,4
 175 -80 175 -80 140.5 -127 c 128,-1,5
 106 -174 106 -174 2 -227 c 1,6,-1
 -41 -146 l 1,7,8
 29 -102 29 -102 48 -74.5 c 128,-1,9
 67 -47 67 -47 67 19 c 2,0,-1
67 585 m 1,10,-1
 67 700 l 1,11,-1
 175 700 l 1,12,-1
 175 585 l 1,13,-1
 67 585 l 1,10,-1
EndSplineSet
EndChar

StartChar: k
Encoding: 107 107 78
Width: 499
GlyphClass: 2
Flags: W
LayerCount: 2
Fore
SplineSet
175 0 m 1,0,-1
 66 0 l 1,1,-1
 66 708 l 1,2,-1
 175 708 l 1,3,-1
 175 299 l 1,4,-1
 237 305 l 1,5,-1
 355 500 l 1,6,-1
 477 500 l 1,7,-1
 333 266 l 1,8,-1
 485 0 l 1,9,-1
 362 0 l 1,10,-1
 240 211 l 1,11,-1
 175 204 l 1,12,-1
 175 0 l 1,0,-1
EndSplineSet
EndChar

StartChar: l
Encoding: 108 108 79
Width: 253
GlyphClass: 2
Flags: W
LayerCount: 2
Fore
SplineSet
72 0 m 1,0,-1
 72 708 l 1,1,-1
 181 708 l 1,2,-1
 181 0 l 1,3,-1
 72 0 l 1,0,-1
EndSplineSet
EndChar

StartChar: m
Encoding: 109 109 80
Width: 838
GlyphClass: 2
Flags: W
LayerCount: 2
Fore
SplineSet
175 0 m 1,0,-1
 66 0 l 1,1,-1
 66 500 l 1,2,-1
 174 500 l 1,3,-1
 174 469 l 1,4,5
 245 511 245 511 304 511 c 0,6,7
 391 511 391 511 431 462 c 1,8,9
 522 511 522 511 612 511 c 128,-1,10
 702 511 702 511 739 455.5 c 128,-1,11
 776 400 776 400 776 268 c 2,12,-1
 776 0 l 1,13,-1
 668 0 l 1,14,-1
 668 265 l 2,15,16
 668 346 668 346 651.5 380 c 128,-1,17
 635 414 635 414 583 414 c 0,18,19
 538 414 538 414 486 394 c 1,20,-1
 469 387 l 1,21,22
 477 367 477 367 477 259 c 2,23,-1
 477 0 l 1,24,-1
 369 0 l 1,25,-1
 369 257 l 2,26,27
 369 346 369 346 353 380 c 128,-1,28
 337 414 337 414 283 414 c 0,29,30
 233 414 233 414 190 394 c 1,31,-1
 175 388 l 1,32,-1
 175 0 l 1,0,-1
EndSplineSet
EndChar

StartChar: n
Encoding: 110 110 81
Width: 546
GlyphClass: 2
Flags: W
LayerCount: 2
Fore
SplineSet
175 0 m 1,0,-1
 66 0 l 1,1,-1
 66 500 l 1,2,-1
 174 500 l 1,3,-1
 174 469 l 1,4,5
 247 511 247 511 312 511 c 0,6,7
 412 511 412 511 448.5 454.5 c 128,-1,8
 485 398 485 398 485 268 c 2,9,-1
 485 0 l 1,10,-1
 377 0 l 1,11,-1
 377 265 l 2,12,13
 377 346 377 346 359.5 380 c 128,-1,14
 342 414 342 414 288 414 c 0,15,16
 237 414 237 414 190 394 c 1,17,-1
 175 388 l 1,18,-1
 175 0 l 1,0,-1
EndSplineSet
EndChar

StartChar: o
Encoding: 111 111 82
Width: 530
GlyphClass: 2
Flags: W
LayerCount: 2
Fore
SplineSet
265 511 m 128,-1,1
 385 511 385 511 436.5 446 c 128,-1,2
 488 381 488 381 488 251 c 128,-1,3
 488 121 488 121 438 55 c 128,-1,4
 388 -11 388 -11 265 -11 c 128,-1,5
 142 -11 142 -11 92 55 c 128,-1,6
 42 121 42 121 42 251 c 128,-1,7
 42 381 42 381 93.5 446 c 128,-1,0
 145 511 145 511 265 511 c 128,-1,1
265 81 m 128,-1,9
 332 81 332 81 355 121 c 128,-1,10
 378 161 378 161 378 252 c 128,-1,11
 378 343 378 343 353.5 381 c 128,-1,12
 329 419 329 419 265 419 c 128,-1,13
 201 419 201 419 176.5 381 c 128,-1,14
 152 343 152 343 152 252 c 128,-1,15
 152 161 152 161 175 121 c 128,-1,8
 198 81 198 81 265 81 c 128,-1,9
EndSplineSet
EndChar

StartChar: p
Encoding: 112 112 83
Width: 537
GlyphClass: 2
Flags: W
LayerCount: 2
Fore
SplineSet
66 -215 m 1,0,-1
 66 500 l 1,1,-1
 174 500 l 1,2,-1
 174 469 l 1,3,4
 243 511 243 511 303 511 c 0,5,6
 402 511 402 511 448 450.5 c 128,-1,7
 494 390 494 390 494 247.5 c 128,-1,8
 494 105 494 105 441.5 47 c 128,-1,9
 389 -11 389 -11 270 -11 c 0,10,11
 229 -11 229 -11 175 -2 c 1,12,-1
 175 -215 l 1,13,-1
 66 -215 l 1,0,-1
284 414 m 0,14,15
 237 414 237 414 190 393 c 2,16,-1
 175 386 l 1,17,-1
 175 91 l 1,18,19
 215 83 215 83 263 83 c 0,20,21
 331 83 331 83 357 122 c 128,-1,22
 383 161 383 161 383 255 c 0,23,24
 383 414 383 414 284 414 c 0,14,15
EndSplineSet
EndChar

StartChar: q
Encoding: 113 113 84
Width: 535
GlyphClass: 2
Flags: W
LayerCount: 2
Fore
SplineSet
239 -11 m 0,0,1
 136 -11 136 -11 89.5 47 c 128,-1,2
 43 105 43 105 43 250.5 c 128,-1,3
 43 396 43 396 97.5 453.5 c 128,-1,4
 152 511 152 511 286 511 c 0,5,6
 335 511 335 511 436 502 c 2,7,-1
 469 499 l 1,8,-1
 469 -215 l 1,9,-1
 361 -215 l 1,10,-1
 361 19 l 1,11,12
 294 -11 294 -11 239 -11 c 0,0,1
286 417 m 0,13,14
 207 417 207 417 179.5 377.5 c 128,-1,15
 152 338 152 338 152 249 c 128,-1,16
 152 160 152 160 176.5 123 c 128,-1,17
 201 86 201 86 252 86 c 0,18,19
 299 86 299 86 346 101 c 2,20,-1
 361 106 l 1,21,-1
 361 413 l 1,22,23
 313 417 313 417 286 417 c 0,13,14
EndSplineSet
EndChar

StartChar: r
Encoding: 114 114 85
Width: 361
GlyphClass: 2
Flags: W
LayerCount: 2
Fore
SplineSet
66 0 m 1,0,-1
 66 500 l 1,1,-1
 174 500 l 1,2,-1
 174 440 l 1,3,4
 259 495 259 495 344 511 c 1,5,-1
 344 402 l 1,6,7
 258 385 258 385 197 358 c 1,8,-1
 175 349 l 1,9,-1
 175 0 l 1,10,-1
 66 0 l 1,0,-1
EndSplineSet
EndChar

StartChar: s
Encoding: 115 115 86
Width: 469
GlyphClass: 2
Flags: W
LayerCount: 2
Fore
SplineSet
413 397 m 1,0,1
 295 413 295 413 242 413 c 128,-1,2
 189 413 189 413 168.5 400.5 c 128,-1,3
 148 388 148 388 148 361 c 128,-1,4
 148 334 148 334 170.5 323 c 128,-1,5
 193 312 193 312 276.5 297.5 c 128,-1,6
 360 283 360 283 395 252 c 128,-1,7
 430 221 430 221 430 142 c 128,-1,8
 430 63 430 63 379.5 26 c 128,-1,9
 329 -11 329 -11 232 -11 c 0,10,11
 171 -11 171 -11 78 6 c 1,12,-1
 47 11 l 1,13,-1
 51 102 l 1,14,15
 171 86 171 86 224 86 c 128,-1,16
 277 86 277 86 299.5 99 c 128,-1,17
 322 112 322 112 322 142 c 128,-1,18
 322 172 322 172 300.5 183.5 c 128,-1,19
 279 195 279 195 197.5 208.5 c 128,-1,20
 116 222 116 222 78 251 c 128,-1,21
 40 280 40 280 40 357 c 128,-1,22
 40 434 40 434 92.5 472 c 128,-1,23
 145 510 145 510 227 510 c 0,24,25
 291 510 291 510 384 494 c 1,26,-1
 415 488 l 1,27,-1
 413 397 l 1,0,1
EndSplineSet
EndChar

StartChar: t
Encoding: 116 116 87
Width: 358
GlyphClass: 2
Flags: W
LayerCount: 2
Fore
SplineSet
335 407 m 1,0,-1
 197 407 l 1,1,-1
 197 187 l 2,2,3
 197 126 197 126 206 106 c 128,-1,4
 215 86 215 86 252 86 c 1,5,-1
 334 89 l 1,6,-1
 339 2 l 1,7,8
 272 -11 272 -11 237 -11 c 0,9,10
 152 -11 152 -11 120.5 28 c 128,-1,11
 89 67 89 67 89 175 c 2,12,-1
 89 407 l 1,13,-1
 25 407 l 1,14,-1
 25 500 l 1,15,-1
 89 500 l 1,16,-1
 89 645 l 1,17,-1
 197 645 l 1,18,-1
 197 500 l 1,19,-1
 335 500 l 1,20,-1
 335 407 l 1,0,-1
EndSplineSet
EndChar

StartChar: u
Encoding: 117 117 88
Width: 543
GlyphClass: 2
Flags: W
LayerCount: 2
Fore
SplineSet
369 500 m 1,0,-1
 477 500 l 1,1,-1
 477 0 l 1,2,-1
 369 0 l 1,3,-1
 369 31 l 1,4,5
 296 -11 296 -11 234 -11 c 0,6,7
 131 -11 131 -11 96 44.5 c 128,-1,8
 61 100 61 100 61 239 c 2,9,-1
 61 500 l 1,10,-1
 170 500 l 1,11,-1
 170 238 l 2,12,13
 170 148 170 148 185 117 c 128,-1,14
 200 86 200 86 255 86 c 0,15,16
 309 86 309 86 354 106 c 1,17,-1
 369 112 l 1,18,-1
 369 500 l 1,0,-1
EndSplineSet
EndChar

StartChar: v
Encoding: 118 118 89
Width: 491
GlyphClass: 2
Flags: W
LayerCount: 2
Fore
SplineSet
19 500 m 1,0,-1
 133 500 l 1,1,-1
 229 93 l 1,2,-1
 261 93 l 1,3,-1
 361 500 l 1,4,-1
 472 500 l 1,5,-1
 342 0 l 1,6,-1
 148 0 l 1,7,-1
 19 500 l 1,0,-1
EndSplineSet
EndChar

StartChar: w
Encoding: 119 119 90
Width: 768
GlyphClass: 2
Flags: W
LayerCount: 2
Fore
SplineSet
27 500 m 1,0,-1
 134 500 l 1,1,-1
 213 93 l 1,2,-1
 233 93 l 1,3,-1
 328 490 l 1,4,-1
 440 490 l 1,5,-1
 535 93 l 1,6,-1
 555 93 l 1,7,-1
 633 500 l 1,8,-1
 741 500 l 1,9,-1
 635 0 l 1,10,-1
 462 0 l 1,11,-1
 384 343 l 1,12,-1
 306 0 l 1,13,-1
 133 0 l 1,14,-1
 27 500 l 1,0,-1
EndSplineSet
EndChar

StartChar: x
Encoding: 120 120 91
Width: 464
GlyphClass: 2
Flags: W
LayerCount: 2
Fore
SplineSet
18 500 m 1,0,-1
 134 500 l 1,1,-1
 232 327 l 1,2,-1
 331 500 l 1,3,-1
 447 500 l 1,4,-1
 298 254 l 1,5,-1
 447 0 l 1,6,-1
 331 0 l 1,7,-1
 232 171 l 1,8,-1
 134 0 l 1,9,-1
 18 0 l 1,10,-1
 163 251 l 1,11,-1
 18 500 l 1,0,-1
EndSplineSet
EndChar

StartChar: y
Encoding: 121 121 92
Width: 492
GlyphClass: 2
Flags: W
LayerCount: 2
Fore
SplineSet
20 500 m 1,0,-1
 127 500 l 1,1,-1
 233 93 l 1,2,-1
 260 93 l 1,3,-1
 366 500 l 1,4,-1
 474 500 l 1,5,-1
 284 -215 l 1,6,-1
 177 -215 l 1,7,-1
 237 0 l 1,8,-1
 151 0 l 1,9,-1
 20 500 l 1,0,-1
EndSplineSet
EndChar

StartChar: z
Encoding: 122 122 93
Width: 454
GlyphClass: 2
Flags: W
LayerCount: 2
Fore
SplineSet
41 403 m 1,0,-1
 41 500 l 1,1,-1
 412 500 l 1,2,-1
 412 403 l 1,3,-1
 172 97 l 1,4,-1
 412 97 l 1,5,-1
 412 0 l 1,6,-1
 41 0 l 1,7,-1
 41 97 l 1,8,-1
 282 403 l 1,9,-1
 41 403 l 1,0,-1
EndSplineSet
EndChar

StartChar: braceleft
Encoding: 123 123 94
Width: 357
GlyphClass: 2
Flags: W
LayerCount: 2
Fore
SplineSet
228 575 m 1,0,-1
 235 450 l 1,1,2
 235 387 235 387 214 359 c 128,-1,3
 193 331 193 331 126 313 c 1,4,5
 192 296 192 296 213.5 265.5 c 128,-1,6
 235 235 235 235 235 171 c 1,7,-1
 228 54 l 1,8,9
 228 11 228 11 247 -12.5 c 128,-1,10
 266 -36 266 -36 318 -39 c 1,11,-1
 318 -131 l 1,12,13
 211 -127 211 -127 166.5 -87.5 c 128,-1,14
 122 -48 122 -48 122 42 c 1,15,-1
 129 163 l 1,16,17
 129 240 129 240 19 270 c 1,18,-1
 19 355 l 1,19,20
 76 368 76 368 102.5 392.5 c 128,-1,21
 129 417 129 417 129 456 c 1,22,-1
 122 583 l 1,23,24
 122 677 122 677 166.5 715.5 c 128,-1,25
 211 754 211 754 319 758 c 1,26,-1
 320 666 l 1,27,28
 267 662 267 662 247.5 640 c 128,-1,29
 228 618 228 618 228 575 c 1,0,-1
EndSplineSet
Substitution2: "'case' Case-Sensitive Forms in Latin lookup 4 subtable" braceleft.cap
EndChar

StartChar: bar
Encoding: 124 124 95
Width: 252
GlyphClass: 2
Flags: W
LayerCount: 2
Fore
SplineSet
72 -215 m 1,0,-1
 72 708 l 1,1,-1
 180 708 l 1,2,-1
 180 -215 l 1,3,-1
 72 -215 l 1,0,-1
EndSplineSet
EndChar

StartChar: braceright
Encoding: 125 125 96
Width: 357
GlyphClass: 2
Flags: W
LayerCount: 2
Fore
SplineSet
129 54 m 1,0,-1
 122 171 l 1,1,2
 122 235 122 235 143.5 265.5 c 128,-1,3
 165 296 165 296 231 313 c 1,4,5
 164 331 164 331 143 359 c 128,-1,6
 122 387 122 387 122 450 c 1,7,-1
 129 575 l 1,8,9
 129 618 129 618 109.5 640 c 128,-1,10
 90 662 90 662 37 666 c 1,11,-1
 38 758 l 1,12,13
 146 754 146 754 190.5 715.5 c 128,-1,14
 235 677 235 677 235 583 c 1,15,-1
 228 456 l 1,16,17
 228 417 228 417 254.5 392.5 c 128,-1,18
 281 368 281 368 338 355 c 1,19,-1
 338 270 l 1,20,21
 228 240 228 240 228 163 c 1,22,-1
 235 42 l 1,23,24
 235 -48 235 -48 190.5 -87.5 c 128,-1,25
 146 -127 146 -127 39 -131 c 1,26,-1
 39 -39 l 1,27,28
 91 -36 91 -36 110 -12.5 c 128,-1,29
 129 11 129 11 129 54 c 1,0,-1
EndSplineSet
Substitution2: "'case' Case-Sensitive Forms in Latin lookup 4 subtable" braceright.cap
EndChar

StartChar: asciitilde
Encoding: 126 126 97
Width: 560
GlyphClass: 2
Flags: W
LayerCount: 2
Fore
SplineSet
381.5 181 m 128,-1,1
 354 181 354 181 276.5 206.5 c 128,-1,2
 199 232 199 232 180 232 c 128,-1,3
 161 232 161 232 134.5 221.5 c 128,-1,4
 108 211 108 211 91 200 c 2,5,-1
 74 190 l 1,6,-1
 64 278 l 1,7,8
 126 330 126 330 184 330 c 0,9,10
 212 330 212 330 287 304.5 c 128,-1,11
 362 279 362 279 382 279 c 0,12,13
 417 279 417 279 470 310 c 2,14,-1
 487 320 l 1,15,-1
 496 233 l 1,16,17
 478 215 478 215 443.5 198 c 128,-1,0
 409 181 409 181 381.5 181 c 128,-1,1
EndSplineSet
EndChar

StartChar: exclamdown
Encoding: 161 161 99
Width: 248
GlyphClass: 2
Flags: W
LayerCount: 2
Fore
SplineSet
183 500 m 1,0,-1
 183 360 l 1,1,-1
 66 360 l 1,2,-1
 66 500 l 1,3,-1
 183 500 l 1,0,-1
172 259 m 1,4,-1
 182 -185 l 1,5,-1
 66 -185 l 1,6,-1
 76 259 l 1,7,-1
 172 259 l 1,4,-1
EndSplineSet
Substitution2: "'case' Case-Sensitive Forms in Latin lookup 4 subtable" exclamdown.cap
EndChar

StartChar: cent
Encoding: 162 162 100
Width: 560
GlyphClass: 2
Flags: W
LayerCount: 2
Fore
SplineSet
274 -78 m 1,0,-1
 274 32 l 1,1,2
 183 37 183 37 138 88 c 128,-1,3
 93 139 93 139 93 249 c 0,4,5
 93 455 93 455 273 468 c 1,6,-1
 273 576 l 1,7,-1
 364 576 l 1,8,-1
 364 464 l 1,9,-1
 452 452 l 1,10,-1
 449 369 l 1,11,12
 370 374 370 374 327 374 c 0,13,14
 259 374 259 374 231.5 345 c 128,-1,15
 204 316 204 316 204 248.5 c 128,-1,16
 204 181 204 181 231.5 153.5 c 128,-1,17
 259 126 259 126 330 126 c 1,18,-1
 450 131 l 1,19,-1
 453 48 l 1,20,21
 405 38 405 38 364 36 c 1,22,-1
 364 -78 l 1,23,-1
 274 -78 l 1,0,-1
EndSplineSet
EndChar

StartChar: sterling
Encoding: 163 163 101
Width: 560
GlyphClass: 2
Flags: W
LayerCount: 2
Fore
SplineSet
456 564 m 1,0,1
 383 573 383 573 337.5 573 c 128,-1,2
 292 573 292 573 277.5 552.5 c 128,-1,3
 263 532 263 532 263 478 c 2,4,-1
 263 426 l 1,5,-1
 423 426 l 1,6,-1
 423 333 l 1,7,-1
 263 333 l 1,8,-1
 263 93 l 1,9,-1
 400 93 l 1,10,-1
 472 109 l 1,11,-1
 489 18 l 1,12,-1
 408 0 l 1,13,-1
 77 0 l 1,14,-1
 77 93 l 1,15,-1
 156 93 l 1,16,-1
 156 333 l 1,17,-1
 90 333 l 1,18,-1
 90 426 l 1,19,-1
 156 426 l 1,20,-1
 156 483 l 2,21,22
 156 592 156 592 193 631 c 128,-1,23
 230 670 230 670 314 670 c 0,24,25
 373 670 373 670 438 655 c 2,26,-1
 459 650 l 1,27,-1
 456 564 l 1,0,1
EndSplineSet
EndChar

StartChar: currency
Encoding: 164 164 102
Width: 560
GlyphClass: 2
Flags: W
LayerCount: 2
Fore
SplineSet
371 86 m 1,0,1
 328 62 328 62 279.5 62 c 128,-1,2
 231 62 231 62 188 86 c 1,3,-1
 117 14 l 1,4,-1
 42 89 l 1,5,-1
 114 160 l 1,6,7
 90 200 90 200 90 250 c 128,-1,8
 90 300 90 300 114 343 c 1,9,-1
 42 415 l 1,10,-1
 117 490 l 1,11,-1
 188 418 l 1,12,13
 231 442 231 442 279.5 442 c 128,-1,14
 328 442 328 442 371 418 c 1,15,-1
 443 490 l 1,16,-1
 518 415 l 1,17,-1
 446 343 l 1,18,19
 470 300 470 300 470 251.5 c 128,-1,20
 470 203 470 203 446 160 c 1,21,-1
 518 89 l 1,22,-1
 443 14 l 1,23,-1
 371 86 l 1,0,1
280 154 m 128,-1,25
 320 154 320 154 349 183 c 128,-1,26
 378 212 378 212 378 252 c 128,-1,27
 378 292 378 292 349 321 c 128,-1,28
 320 350 320 350 280 350 c 128,-1,29
 240 350 240 350 211 321 c 128,-1,30
 182 292 182 292 182 252 c 128,-1,31
 182 212 182 212 211 183 c 128,-1,24
 240 154 240 154 280 154 c 128,-1,25
EndSplineSet
EndChar

StartChar: yen
Encoding: 165 165 103
Width: 560
GlyphClass: 2
Flags: W
LayerCount: 2
Fore
SplineSet
58 301 m 1,0,-1
 58 393 l 1,1,-1
 170 393 l 1,2,-1
 13 660 l 1,3,-1
 137 660 l 1,4,-1
 281 424 l 1,5,-1
 424 660 l 1,6,-1
 548 660 l 1,7,-1
 392 393 l 1,8,-1
 502 393 l 1,9,-1
 502 301 l 1,10,-1
 341 301 l 1,11,-1
 337 283 l 1,12,-1
 337 238 l 1,13,-1
 502 238 l 1,14,-1
 502 146 l 1,15,-1
 337 146 l 1,16,-1
 337 0 l 1,17,-1
 226 0 l 1,18,-1
 226 146 l 1,19,-1
 58 146 l 1,20,-1
 58 238 l 1,21,-1
 226 238 l 1,22,-1
 226 283 l 1,23,-1
 223 301 l 1,24,-1
 58 301 l 1,0,-1
EndSplineSet
EndChar

StartChar: brokenbar
Encoding: 166 166 104
Width: 256
GlyphClass: 2
Flags: W
LayerCount: 2
Fore
SplineSet
74 708 m 1,0,-1
 182 708 l 1,1,-1
 182 335 l 1,2,-1
 74 335 l 1,3,-1
 74 708 l 1,0,-1
74 164 m 1,4,-1
 182 164 l 1,5,-1
 182 -215 l 1,6,-1
 74 -215 l 1,7,-1
 74 164 l 1,4,-1
EndSplineSet
EndChar

StartChar: section
Encoding: 167 167 105
Width: 509
GlyphClass: 2
Flags: W
LayerCount: 2
Fore
SplineSet
433 534 m 1,0,1
 322 550 322 550 267.5 550 c 128,-1,2
 213 550 213 550 189.5 532.5 c 128,-1,3
 166 515 166 515 166 477.5 c 128,-1,4
 166 440 166 440 195 425 c 128,-1,5
 224 410 224 410 309 391.5 c 128,-1,6
 394 373 394 373 427.5 344 c 128,-1,7
 461 315 461 315 461 244.5 c 128,-1,8
 461 174 461 174 414 109 c 1,9,10
 451 77 451 77 451 -6 c 0,11,12
 451 -173 451 -173 246 -173 c 0,13,14
 192 -173 192 -173 94 -157 c 2,15,-1
 64 -152 l 1,16,-1
 75 -64 l 1,17,18
 183 -79 183 -79 238 -79 c 0,19,20
 347 -79 347 -79 347 -4 c 0,21,22
 347 31 347 31 322 44 c 128,-1,23
 297 57 297 57 252 67 c 128,-1,24
 207 77 207 77 205 78 c 0,25,26
 116 98 116 98 79.5 129.5 c 128,-1,27
 43 161 43 161 43 231 c 0,28,29
 43 267 43 267 63.5 306 c 128,-1,30
 84 345 84 345 105 362 c 1,31,32
 61 394 61 394 61 471 c 0,33,34
 61 644 61 644 267 644 c 0,35,36
 333 644 333 644 410 628 c 1,37,-1
 438 623 l 1,38,-1
 433 534 l 1,0,1
177 325 m 1,39,40
 152 288 152 288 152 251.5 c 128,-1,41
 152 215 152 215 169.5 200.5 c 128,-1,42
 187 186 187 186 241 173.5 c 128,-1,43
 295 161 295 161 330 148 c 1,44,45
 336 156 336 156 343.5 181.5 c 128,-1,46
 351 207 351 207 351 235 c 128,-1,47
 351 263 351 263 331 277.5 c 128,-1,48
 311 292 311 292 246 308 c 128,-1,49
 181 324 181 324 177 325 c 1,39,40
EndSplineSet
EndChar

StartChar: dieresis
Encoding: 168 168 106
Width: 254
GlyphClass: 2
Flags: W
LayerCount: 2
Fore
SplineSet
-22 607 m 1,0,-1
 -22 721 l 1,1,-1
 82 721 l 1,2,-1
 82 607 l 1,3,-1
 -22 607 l 1,0,-1
187 607 m 1,4,-1
 187 721 l 1,5,-1
 291 721 l 1,6,-1
 291 607 l 1,7,-1
 187 607 l 1,4,-1
EndSplineSet
EndChar

StartChar: copyright
Encoding: 169 169 107
Width: 644
GlyphClass: 2
Flags: W
LayerCount: 2
Fore
SplineSet
128.5 235.5 m 128,-1,1
 52 316 52 316 52 435 c 128,-1,2
 52 554 52 554 128.5 633.5 c 128,-1,3
 205 713 205 713 323.5 713 c 128,-1,4
 442 713 442 713 517 632 c 128,-1,5
 592 551 592 551 592 432.5 c 128,-1,6
 592 314 592 314 517 234.5 c 128,-1,7
 442 155 442 155 323.5 155 c 128,-1,0
 205 155 205 155 128.5 235.5 c 128,-1,1
106 434 m 128,-1,9
 106 340 106 340 167.5 274 c 128,-1,10
 229 208 229 208 321.5 208 c 128,-1,11
 414 208 414 208 476 273.5 c 128,-1,12
 538 339 538 339 538 433.5 c 128,-1,13
 538 528 538 528 475.5 594.5 c 128,-1,14
 413 661 413 661 321.5 661 c 128,-1,15
 230 661 230 661 168 594.5 c 128,-1,8
 106 528 106 528 106 434 c 128,-1,9
331 595 m 0,16,17
 369 595 369 595 410 582 c 1,18,-1
 404 510 l 1,19,20
 368 517 368 517 338.5 517 c 128,-1,21
 309 517 309 517 299.5 499.5 c 128,-1,22
 290 482 290 482 290 436.5 c 128,-1,23
 290 391 290 391 300 371 c 128,-1,24
 310 351 310 351 336 351 c 1,25,-1
 404 357 l 1,26,-1
 410 288 l 1,27,28
 378 272 378 272 319.5 272 c 128,-1,29
 261 272 261 272 233 308.5 c 128,-1,30
 205 345 205 345 205 434 c 128,-1,31
 205 523 205 523 234 559 c 128,-1,32
 263 595 263 595 331 595 c 0,16,17
EndSplineSet
EndChar

StartChar: ordfeminine
Encoding: 170 170 108
Width: 403
GlyphClass: 2
Flags: W
LayerCount: 2
Fore
SplineSet
330 551 m 2,0,-1
 330 412 l 1,1,2
 338 402 338 402 353 400 c 1,3,-1
 351 332 l 1,4,5
 296 332 296 332 275.5 339 c 128,-1,6
 255 346 255 346 243 362 c 1,7,8
 195 333 195 333 147 333 c 128,-1,9
 99 333 99 333 73 360.5 c 128,-1,10
 47 388 47 388 47 435 c 0,11,12
 47 523 47 523 161 529 c 2,13,-1
 237 533 l 1,14,-1
 237 556 l 2,15,16
 237 582 237 582 191 582 c 1,17,-1
 67 575 l 1,18,-1
 64 638 l 1,19,20
 134 659 134 659 199 659 c 128,-1,21
 264 659 264 659 297 635.5 c 128,-1,22
 330 612 330 612 330 551 c 2,0,-1
177 470 m 2,23,24
 141 467 141 467 141 436.5 c 128,-1,25
 141 406 141 406 174 406 c 0,26,27
 199 406 199 406 228 418 c 2,28,-1
 237 422 l 1,29,-1
 237 474 l 1,30,-1
 177 470 l 2,23,24
EndSplineSet
EndChar

StartChar: guillemotleft
Encoding: 171 171 109
Width: 574
GlyphClass: 2
Flags: W
LayerCount: 2
Fore
SplineSet
251 330 m 1,0,-1
 135 247 l 1,1,-1
 251 153 l 1,2,-1
 251 42 l 1,3,-1
 42 204 l 1,4,-1
 42 285 l 1,5,-1
 251 440 l 1,6,-1
 251 330 l 1,0,-1
514 330 m 1,7,-1
 398 247 l 1,8,-1
 514 153 l 1,9,-1
 514 42 l 1,10,-1
 305 204 l 1,11,-1
 305 285 l 1,12,-1
 514 440 l 1,13,-1
 514 330 l 1,7,-1
EndSplineSet
EndChar

StartChar: logicalnot
Encoding: 172 172 110
Width: 560
GlyphClass: 2
Flags: W
LayerCount: 2
Fore
SplineSet
61 351 m 1,0,-1
 493 351 l 1,1,-1
 493 110 l 1,2,-1
 395 110 l 1,3,-1
 395 254 l 1,4,-1
 61 254 l 1,5,-1
 61 351 l 1,0,-1
EndSplineSet
EndChar

StartChar: registered
Encoding: 174 174 111
Width: 644
GlyphClass: 2
Flags: W
LayerCount: 2
Fore
SplineSet
129 235.5 m 128,-1,1
 52 316 52 316 52 435 c 128,-1,2
 52 554 52 554 128.5 633.5 c 128,-1,3
 205 713 205 713 323.5 713 c 128,-1,4
 442 713 442 713 517 632 c 128,-1,5
 592 551 592 551 592 432.5 c 128,-1,6
 592 314 592 314 517 234.5 c 128,-1,7
 442 155 442 155 324 155 c 128,-1,0
 206 155 206 155 129 235.5 c 128,-1,1
106 434 m 128,-1,9
 106 340 106 340 168.5 274 c 128,-1,10
 231 208 231 208 323 208 c 128,-1,11
 415 208 415 208 476.5 273.5 c 128,-1,12
 538 339 538 339 538 433.5 c 128,-1,13
 538 528 538 528 475.5 594.5 c 128,-1,14
 413 661 413 661 321.5 661 c 128,-1,15
 230 661 230 661 168 594.5 c 128,-1,8
 106 528 106 528 106 434 c 128,-1,9
286 378 m 1,16,-1
 286 279 l 1,17,-1
 206 279 l 1,18,-1
 206 588 l 1,19,-1
 331 588 l 2,20,21
 445 588 445 588 445 488 c 0,22,23
 445 450 445 450 435.5 428.5 c 128,-1,24
 426 407 426 407 401 391 c 1,25,-1
 449 279 l 1,26,-1
 365 279 l 1,27,-1
 328 378 l 1,28,-1
 286 378 l 1,16,-1
285 527 m 1,29,-1
 285 438 l 1,30,-1
 326 438 l 2,31,32
 368 438 368 438 368 482.5 c 128,-1,33
 368 527 368 527 321 527 c 2,34,-1
 285 527 l 1,29,-1
EndSplineSet
EndChar

StartChar: macron
Encoding: 175 175 112
Width: 254
GlyphClass: 2
Flags: W
LayerCount: 2
Fore
SplineSet
-9 609 m 1,0,-1
 -9 691 l 1,1,-1
 273 691 l 1,2,-1
 273 609 l 1,3,-1
 -9 609 l 1,0,-1
EndSplineSet
EndChar

StartChar: degree
Encoding: 176 176 113
Width: 560
GlyphClass: 2
Flags: W
LayerCount: 2
Fore
SplineSet
134 550 m 128,-1,1
 134 615 134 615 174.5 655.5 c 128,-1,2
 215 696 215 696 280 696 c 128,-1,3
 345 696 345 696 385.5 655.5 c 128,-1,4
 426 615 426 615 426 550 c 128,-1,5
 426 485 426 485 385.5 445 c 128,-1,6
 345 405 345 405 280 405 c 128,-1,7
 215 405 215 405 174.5 445 c 128,-1,0
 134 485 134 485 134 550 c 128,-1,1
198 550 m 128,-1,9
 198 513 198 513 220.5 490 c 128,-1,10
 243 467 243 467 280 467 c 128,-1,11
 317 467 317 467 340.5 490 c 128,-1,12
 364 513 364 513 364 550 c 128,-1,13
 364 587 364 587 340.5 610.5 c 128,-1,14
 317 634 317 634 280 634 c 128,-1,15
 243 634 243 634 220.5 610.5 c 128,-1,8
 198 587 198 587 198 550 c 128,-1,9
EndSplineSet
EndChar

StartChar: plusminus
Encoding: 177 177 114
Width: 560
GlyphClass: 2
Flags: W
LayerCount: 2
Fore
SplineSet
52 280 m 1,0,-1
 52 378 l 1,1,-1
 230 378 l 1,2,-1
 230 493 l 1,3,-1
 328 493 l 1,4,-1
 328 378 l 1,5,-1
 508 378 l 1,6,-1
 508 280 l 1,7,-1
 328 280 l 1,8,-1
 328 168 l 1,9,-1
 230 168 l 1,10,-1
 230 280 l 1,11,-1
 52 280 l 1,0,-1
52 125 m 1,12,-1
 508 125 l 1,13,-1
 508 27 l 1,14,-1
 52 27 l 1,15,-1
 52 125 l 1,12,-1
EndSplineSet
EndChar

StartChar: twosuperior
Encoding: 178 178 115
Width: 280
GlyphClass: 2
Flags: W
LayerCount: 2
Fore
SplineSet
246 478 m 1,0,-1
 25 478 l 1,1,-1
 25 553 l 1,2,-1
 104 624 l 1,3,4
 152 665 152 665 152 692 c 0,5,6
 152 717 152 717 110 717 c 1,7,-1
 31 710 l 1,8,-1
 27 790 l 1,9,10
 94 800 94 800 145 800 c 128,-1,11
 196 800 196 800 220 777.5 c 128,-1,12
 244 755 244 755 244 713 c 128,-1,13
 244 671 244 671 231 647.5 c 128,-1,14
 218 624 218 624 186 599 c 1,15,-1
 137 557 l 1,16,-1
 246 557 l 1,17,-1
 246 478 l 1,0,-1
EndSplineSet
Substitution2: "Single Substitution lookup 5 subtable" twoinferior
EndChar

StartChar: threesuperior
Encoding: 179 179 116
Width: 280
GlyphClass: 2
Flags: W
LayerCount: 2
Fore
SplineSet
134 800 m 0,0,1
 248 800 248 800 248 714 c 0,2,3
 248 661 248 661 214 642 c 1,4,5
 255 626 255 626 255 567 c 0,6,7
 255 468 255 468 142 468 c 1,8,-1
 24 476 l 1,9,-1
 30 553 l 1,10,11
 89 546 89 546 126.5 546 c 128,-1,12
 164 546 164 546 164 574 c 0,13,14
 164 600 164 600 129 600 c 2,15,-1
 63 600 l 1,16,-1
 63 672 l 1,17,-1
 128 672 l 2,18,19
 140 672 140 672 148 679 c 128,-1,20
 156 686 156 686 156 698 c 0,21,22
 156 722 156 722 121 722 c 1,23,-1
 34 716 l 1,24,-1
 28 791 l 1,25,26
 93 800 93 800 134 800 c 0,0,1
EndSplineSet
Substitution2: "Single Substitution lookup 5 subtable" threeinferior
EndChar

StartChar: acute
Encoding: 180 180 117
Width: 268
GlyphClass: 2
Flags: W
LayerCount: 2
Fore
SplineSet
14 647 m 1,0,-1
 250 748 l 1,1,-1
 284 654 l 1,2,-1
 40 576 l 1,3,-1
 14 647 l 1,0,-1
EndSplineSet
EndChar

StartChar: mu
Encoding: 181 181 118
Width: 560
GlyphClass: 2
Flags: W
LayerCount: 2
Fore
SplineSet
380 500 m 1,0,-1
 488 500 l 1,1,-1
 488 0 l 1,2,-1
 380 0 l 1,3,-1
 380 31 l 1,4,5
 307 -11 307 -11 245 -11 c 0,6,7
 206 -11 206 -11 181 -4 c 1,8,-1
 181 -215 l 1,9,-1
 72 -215 l 1,10,-1
 72 500 l 1,11,-1
 181 500 l 1,12,-1
 181 214 l 1,13,14
 182 140 182 140 198 113 c 128,-1,15
 214 86 214 86 266 86 c 0,16,17
 320 86 320 86 365 106 c 1,18,-1
 380 112 l 1,19,-1
 380 500 l 1,0,-1
EndSplineSet
EndChar

StartChar: paragraph
Encoding: 182 182 119
Width: 596
GlyphClass: 2
Flags: W
LayerCount: 2
Fore
SplineSet
403 0 m 1,0,-1
 403 592 l 1,1,-1
 318 592 l 1,2,-1
 318 0 l 1,3,-1
 224 0 l 1,4,-1
 224 303 l 1,5,-1
 217 303 l 2,6,7
 135 303 135 303 83 356 c 128,-1,8
 31 409 31 409 31 493 c 128,-1,9
 31 577 31 577 83.5 631 c 128,-1,10
 136 685 136 685 219 685 c 2,11,-1
 549 685 l 1,12,-1
 549 592 l 1,13,-1
 497 592 l 1,14,-1
 497 0 l 1,15,-1
 403 0 l 1,0,-1
EndSplineSet
EndChar

StartChar: periodcentered
Encoding: 183 183 120
Width: 239
GlyphClass: 2
Flags: W
LayerCount: 2
Fore
SplineSet
61 194 m 1,0,-1
 61 338 l 1,1,-1
 178 338 l 1,2,-1
 178 194 l 1,3,-1
 61 194 l 1,0,-1
EndSplineSet
Substitution2: "'case' Case-Sensitive Forms in Latin lookup 4 subtable" periodcentered.cap
EndChar

StartChar: cedilla
Encoding: 184 184 121
Width: 264
GlyphClass: 2
Flags: W
LayerCount: 2
Fore
SplineSet
201 -60 m 128,-1,1
 229 -77 229 -77 229 -128 c 128,-1,2
 229 -179 229 -179 201.5 -205 c 128,-1,3
 174 -231 174 -231 125 -231 c 0,4,5
 87 -231 87 -231 48 -224 c 1,6,-1
 35 -221 l 1,7,-1
 39 -156 l 1,8,9
 73 -158 73 -158 94 -158 c 0,10,11
 135 -158 135 -158 135 -127 c 0,12,13
 135 -112 135 -112 125.5 -106 c 128,-1,14
 116 -100 116 -100 94 -100 c 2,15,-1
 63 -100 l 1,16,-1
 63 1 l 1,17,-1
 110 1 l 1,18,-1
 110 -42 l 1,19,0
 173 -43 173 -43 201 -60 c 128,-1,1
EndSplineSet
EndChar

StartChar: onesuperior
Encoding: 185 185 122
Width: 280
GlyphClass: 2
Flags: W
LayerCount: 2
Fore
SplineSet
204 790 m 1,0,-1
 204 478 l 1,1,-1
 116 478 l 1,2,-1
 116 693 l 1,3,-1
 60 655 l 1,4,-1
 19 717 l 1,5,-1
 124 790 l 1,6,-1
 204 790 l 1,0,-1
EndSplineSet
Substitution2: "Single Substitution lookup 5 subtable" oneinferior
EndChar

StartChar: ordmasculine
Encoding: 186 186 123
Width: 403
GlyphClass: 2
Flags: W
LayerCount: 2
Fore
SplineSet
201.5 659 m 128,-1,1
 357 659 357 659 357 496 c 128,-1,2
 357 333 357 333 201.5 333 c 128,-1,3
 46 333 46 333 46 496 c 128,-1,0
 46 659 46 659 201.5 659 c 128,-1,1
202 419 m 128,-1,5
 234 419 234 419 246 437 c 128,-1,6
 258 455 258 455 258 497 c 128,-1,7
 258 539 258 539 246.5 556.5 c 128,-1,8
 235 574 235 574 202.5 574 c 128,-1,9
 170 574 170 574 156.5 556 c 128,-1,10
 143 538 143 538 143 497 c 128,-1,11
 143 456 143 456 156.5 437.5 c 128,-1,4
 170 419 170 419 202 419 c 128,-1,5
EndSplineSet
EndChar

StartChar: guillemotright
Encoding: 187 187 124
Width: 575
GlyphClass: 2
Flags: W
LayerCount: 2
Fore
SplineSet
439 247 m 1,0,-1
 323 330 l 1,1,-1
 323 440 l 1,2,-1
 532 285 l 1,3,-1
 532 204 l 1,4,-1
 323 42 l 1,5,-1
 323 153 l 1,6,-1
 439 247 l 1,0,-1
176 247 m 1,7,-1
 60 330 l 1,8,-1
 60 440 l 1,9,-1
 269 285 l 1,10,-1
 269 204 l 1,11,-1
 60 42 l 1,12,-1
 60 153 l 1,13,-1
 176 247 l 1,7,-1
EndSplineSet
EndChar

StartChar: onequarter
Encoding: 188 188 125
Width: 542
GlyphClass: 2
Flags: W
LayerCount: 2
Fore
SplineSet
211 790 m 1,0,-1
 211 478 l 1,1,-1
 123 478 l 1,2,-1
 123 693 l 1,3,-1
 67 655 l 1,4,-1
 26 717 l 1,5,-1
 131 790 l 1,6,-1
 211 790 l 1,0,-1
32 29 m 1,7,-1
 425 660 l 1,8,-1
 472 630 l 1,9,-1
 79 -3 l 1,10,-1
 32 29 l 1,7,-1
410 -100 m 1,11,-1
 410 -59 l 1,12,-1
 274 -59 l 1,13,-1
 274 14 l 1,14,-1
 326 212 l 1,15,-1
 424 212 l 1,16,-1
 363 20 l 1,17,-1
 410 20 l 1,18,-1
 420 109 l 1,19,-1
 497 109 l 1,20,-1
 497 20 l 1,21,-1
 515 20 l 1,22,-1
 515 -59 l 1,23,-1
 497 -59 l 1,24,-1
 497 -100 l 1,25,-1
 410 -100 l 1,11,-1
EndSplineSet
EndChar

StartChar: onehalf
Encoding: 189 189 126
Width: 536
GlyphClass: 2
Flags: W
LayerCount: 2
Fore
SplineSet
213 790 m 1,0,-1
 213 478 l 1,1,-1
 125 478 l 1,2,-1
 125 693 l 1,3,-1
 69 655 l 1,4,-1
 28 717 l 1,5,-1
 133 790 l 1,6,-1
 213 790 l 1,0,-1
31 29 m 1,7,-1
 424 660 l 1,8,-1
 471 630 l 1,9,-1
 78 -3 l 1,10,-1
 31 29 l 1,7,-1
501 -100 m 1,11,-1
 280 -100 l 1,12,-1
 280 -25 l 1,13,-1
 359 46 l 1,14,15
 407 87 407 87 407 114 c 0,16,17
 407 139 407 139 365 139 c 1,18,-1
 286 132 l 1,19,-1
 282 212 l 1,20,21
 349 222 349 222 400 222 c 128,-1,22
 451 222 451 222 475 199.5 c 128,-1,23
 499 177 499 177 499 135 c 128,-1,24
 499 93 499 93 486 69.5 c 128,-1,25
 473 46 473 46 441 21 c 1,26,-1
 392 -21 l 1,27,-1
 501 -21 l 1,28,-1
 501 -100 l 1,11,-1
EndSplineSet
EndChar

StartChar: threequarters
Encoding: 190 190 127
Width: 556
GlyphClass: 2
Flags: W
LayerCount: 2
Fore
SplineSet
151 800 m 0,0,1
 265 800 265 800 265 714 c 0,2,3
 265 661 265 661 231 642 c 1,4,5
 272 626 272 626 272 567 c 0,6,7
 272 468 272 468 159 468 c 1,8,-1
 41 476 l 1,9,-1
 47 553 l 1,10,11
 106 546 106 546 143.5 546 c 128,-1,12
 181 546 181 546 181 574 c 0,13,14
 181 600 181 600 146 600 c 2,15,-1
 80 600 l 1,16,-1
 80 672 l 1,17,-1
 145 672 l 2,18,19
 157 672 157 672 165 679 c 128,-1,20
 173 686 173 686 173 698 c 0,21,22
 173 722 173 722 138 722 c 1,23,-1
 51 716 l 1,24,-1
 45 791 l 1,25,26
 110 800 110 800 151 800 c 0,0,1
47 29 m 1,27,-1
 440 660 l 1,28,-1
 487 630 l 1,29,-1
 94 -3 l 1,30,-1
 47 29 l 1,27,-1
426 -100 m 1,31,-1
 426 -59 l 1,32,-1
 290 -59 l 1,33,-1
 290 14 l 1,34,-1
 342 212 l 1,35,-1
 440 212 l 1,36,-1
 379 20 l 1,37,-1
 426 20 l 1,38,-1
 436 109 l 1,39,-1
 513 109 l 1,40,-1
 513 20 l 1,41,-1
 531 20 l 1,42,-1
 531 -59 l 1,43,-1
 513 -59 l 1,44,-1
 513 -100 l 1,45,-1
 426 -100 l 1,31,-1
EndSplineSet
EndChar

StartChar: questiondown
Encoding: 191 191 128
Width: 437
GlyphClass: 2
Flags: W
LayerCount: 2
Fore
SplineSet
32 -34 m 0,0,1
 32 33 32 33 48.5 68 c 128,-1,2
 65 103 65 103 116 143 c 128,-1,3
 167 183 167 183 183.5 206.5 c 128,-1,4
 200 230 200 230 200 257 c 2,5,-1
 200 290 l 1,6,-1
 288 290 l 1,7,8
 312 259 312 259 312 212 c 0,9,10
 312 187 312 187 293 162 c 128,-1,11
 274 137 274 137 225 96.5 c 128,-1,12
 176 56 176 56 160 33.5 c 128,-1,13
 144 11 144 11 144 -26 c 0,14,15
 144 -99 144 -99 250 -99 c 0,16,17
 310 -99 310 -99 376 -85 c 2,18,-1
 399 -80 l 1,19,-1
 405 -163 l 1,20,21
 312 -196 312 -196 236 -196 c 0,22,23
 131 -196 131 -196 81.5 -157.5 c 128,-1,24
 32 -119 32 -119 32 -34 c 0,0,1
305 500 m 1,25,-1
 305 360 l 1,26,-1
 189 360 l 1,27,-1
 189 500 l 1,28,-1
 305 500 l 1,25,-1
EndSplineSet
Substitution2: "'case' Case-Sensitive Forms in Latin lookup 4 subtable" questiondown.cap
EndChar

StartChar: Agrave
Encoding: 192 192 129
Width: 599
GlyphClass: 2
Flags: W
LayerCount: 2
Fore
SplineSet
20 0 m 1,0,-1
 189 685 l 1,1,-1
 410 685 l 1,2,-1
 580 0 l 1,3,-1
 468 0 l 1,4,-1
 431 147 l 1,5,-1
 168 147 l 1,6,-1
 131 0 l 1,7,-1
 20 0 l 1,0,-1
275 592 m 1,8,-1
 190 245 l 1,9,-1
 409 245 l 1,10,-1
 325 592 l 1,11,-1
 275 592 l 1,8,-1
186 939 m 1,12,-1
 422 836 l 1,13,-1
 394 760 l 1,14,-1
 151 842 l 1,15,-1
 186 939 l 1,12,-1
EndSplineSet
Position2: "'cpsp' Capital Spacing in Latin lookup 0 subtable" dx=5 dy=0 dh=10 dv=0
EndChar

StartChar: Aacute
Encoding: 193 193 130
Width: 599
GlyphClass: 2
Flags: W
LayerCount: 2
Fore
SplineSet
20 0 m 1,0,-1
 189 685 l 1,1,-1
 410 685 l 1,2,-1
 580 0 l 1,3,-1
 468 0 l 1,4,-1
 431 147 l 1,5,-1
 168 147 l 1,6,-1
 131 0 l 1,7,-1
 20 0 l 1,0,-1
275 592 m 1,8,-1
 190 245 l 1,9,-1
 409 245 l 1,10,-1
 325 592 l 1,11,-1
 275 592 l 1,8,-1
172 836 m 1,12,-1
 408 939 l 1,13,-1
 443 842 l 1,14,-1
 200 760 l 1,15,-1
 172 836 l 1,12,-1
EndSplineSet
Position2: "'cpsp' Capital Spacing in Latin lookup 0 subtable" dx=5 dy=0 dh=10 dv=0
EndChar

StartChar: Acircumflex
Encoding: 194 194 131
Width: 599
GlyphClass: 2
Flags: W
LayerCount: 2
Fore
SplineSet
20 0 m 1,0,-1
 189 685 l 1,1,-1
 410 685 l 1,2,-1
 580 0 l 1,3,-1
 468 0 l 1,4,-1
 431 147 l 1,5,-1
 168 147 l 1,6,-1
 131 0 l 1,7,-1
 20 0 l 1,0,-1
275 592 m 1,8,-1
 190 245 l 1,9,-1
 409 245 l 1,10,-1
 325 592 l 1,11,-1
 275 592 l 1,8,-1
117 776 m 1,12,-1
 251 919 l 1,13,-1
 345 919 l 1,14,-1
 479 776 l 1,15,-1
 363 776 l 1,16,-1
 299 843 l 1,17,-1
 234 776 l 1,18,-1
 117 776 l 1,12,-1
EndSplineSet
Position2: "'cpsp' Capital Spacing in Latin lookup 0 subtable" dx=5 dy=0 dh=10 dv=0
EndChar

StartChar: Atilde
Encoding: 195 195 132
Width: 599
GlyphClass: 2
Flags: W
LayerCount: 2
Fore
SplineSet
20 0 m 1,0,-1
 189 685 l 1,1,-1
 410 685 l 1,2,-1
 580 0 l 1,3,-1
 468 0 l 1,4,-1
 431 147 l 1,5,-1
 168 147 l 1,6,-1
 131 0 l 1,7,-1
 20 0 l 1,0,-1
275 592 m 1,8,-1
 190 245 l 1,9,-1
 409 245 l 1,10,-1
 325 592 l 1,11,-1
 275 592 l 1,8,-1
376 777 m 128,-1,13
 352 777 352 777 289 802 c 128,-1,14
 226 827 226 827 213 827 c 0,15,16
 188 827 188 827 149 794 c 2,17,-1
 136 783 l 1,18,-1
 112 861 l 1,19,20
 118 868 118 868 127.5 878.5 c 128,-1,21
 137 889 137 889 163.5 906 c 128,-1,22
 190 923 190 923 216 923 c 128,-1,23
 242 923 242 923 303.5 898 c 128,-1,24
 365 873 365 873 376 873 c 0,25,26
 398 873 398 873 438 906 c 1,27,-1
 452 917 l 1,28,-1
 476 838 l 1,29,30
 461 817 461 817 430.5 797 c 128,-1,12
 400 777 400 777 376 777 c 128,-1,13
EndSplineSet
Position2: "'cpsp' Capital Spacing in Latin lookup 0 subtable" dx=5 dy=0 dh=10 dv=0
EndChar

StartChar: Adieresis
Encoding: 196 196 133
Width: 599
GlyphClass: 2
Flags: W
LayerCount: 2
Fore
SplineSet
20 0 m 1,0,-1
 189 685 l 1,1,-1
 410 685 l 1,2,-1
 580 0 l 1,3,-1
 468 0 l 1,4,-1
 431 147 l 1,5,-1
 168 147 l 1,6,-1
 131 0 l 1,7,-1
 20 0 l 1,0,-1
275 592 m 1,8,-1
 190 245 l 1,9,-1
 409 245 l 1,10,-1
 325 592 l 1,11,-1
 275 592 l 1,8,-1
142 783 m 1,12,-1
 142 897 l 1,13,-1
 246 897 l 1,14,-1
 246 783 l 1,15,-1
 142 783 l 1,12,-1
351 783 m 1,16,-1
 351 897 l 1,17,-1
 455 897 l 1,18,-1
 455 783 l 1,19,-1
 351 783 l 1,16,-1
EndSplineSet
Position2: "'cpsp' Capital Spacing in Latin lookup 0 subtable" dx=5 dy=0 dh=10 dv=0
EndChar

StartChar: Aring
Encoding: 197 197 134
Width: 599
GlyphClass: 2
Flags: W
LayerCount: 2
Fore
SplineSet
436 731 m 0,0,1
 436 693 436 693 415 664 c 1,2,-1
 580 0 l 1,3,-1
 468 0 l 1,4,-1
 431 147 l 1,5,-1
 168 147 l 1,6,-1
 131 0 l 1,7,-1
 20 0 l 1,8,-1
 184 664 l 1,9,10
 163 693 163 693 163 731 c 0,11,12
 163 785 163 785 202 816.5 c 128,-1,13
 241 848 241 848 299.5 848 c 128,-1,14
 358 848 358 848 397 816.5 c 128,-1,15
 436 785 436 785 436 731 c 0,0,1
275 592 m 1,16,-1
 190 245 l 1,17,-1
 409 245 l 1,18,-1
 325 592 l 1,19,-1
 275 592 l 1,16,-1
239 731 m 128,-1,21
 239 709 239 709 255 697 c 128,-1,22
 271 685 271 685 299 685 c 128,-1,23
 327 685 327 685 343.5 697 c 128,-1,24
 360 709 360 709 360 731 c 128,-1,25
 360 753 360 753 343.5 765.5 c 128,-1,26
 327 778 327 778 299 778 c 128,-1,27
 271 778 271 778 255 765.5 c 128,-1,20
 239 753 239 753 239 731 c 128,-1,21
EndSplineSet
Position2: "'cpsp' Capital Spacing in Latin lookup 0 subtable" dx=5 dy=0 dh=10 dv=0
EndChar

StartChar: AE
Encoding: 198 198 135
Width: 873
GlyphClass: 2
Flags: W
LayerCount: 2
Fore
SplineSet
399 0 m 1,0,-1
 399 142 l 1,1,-1
 170 142 l 1,2,-1
 128 0 l 1,3,-1
 15 0 l 1,4,-1
 217 693 l 1,5,-1
 829 693 l 1,6,-1
 829 586 l 1,7,-1
 509 586 l 1,8,-1
 509 405 l 1,9,-1
 769 405 l 1,10,-1
 769 300 l 1,11,-1
 509 300 l 1,12,-1
 509 107 l 1,13,-1
 829 107 l 1,14,-1
 829 0 l 1,15,-1
 399 0 l 1,0,-1
296 586 m 1,16,-1
 198 249 l 1,17,-1
 399 249 l 1,18,-1
 400 586 l 1,19,-1
 296 586 l 1,16,-1
EndSplineSet
Position2: "'cpsp' Capital Spacing in Latin lookup 0 subtable" dx=5 dy=0 dh=10 dv=0
EndChar

StartChar: Ccedilla
Encoding: 199 199 136
Width: 544
GlyphClass: 2
Flags: W
LayerCount: 2
Fore
SplineSet
409 -60 m 128,-1,1
 437 -77 437 -77 437 -128 c 128,-1,2
 437 -179 437 -179 409.5 -205 c 128,-1,3
 382 -231 382 -231 333 -231 c 0,4,5
 295 -231 295 -231 256 -224 c 1,6,-1
 243 -221 l 1,7,-1
 247 -156 l 1,8,9
 281 -158 281 -158 302 -158 c 0,10,11
 343 -158 343 -158 343 -127 c 0,12,13
 343 -112 343 -112 333.5 -106 c 128,-1,14
 324 -100 324 -100 302 -100 c 2,15,-1
 271 -100 l 1,16,-1
 271 -9 l 1,17,18
 145 0 145 0 98.5 83.5 c 128,-1,19
 52 167 52 167 52 351 c 128,-1,20
 52 535 52 535 106 615.5 c 128,-1,21
 160 696 160 696 309 696 c 0,22,23
 398 696 398 696 505 671 c 1,24,-1
 501 581 l 1,25,26
 411 597 411 597 321 597 c 128,-1,27
 231 597 231 597 199 543.5 c 128,-1,28
 167 490 167 490 167 342.5 c 128,-1,29
 167 195 167 195 198 141.5 c 128,-1,30
 229 88 229 88 319 88 c 128,-1,31
 409 88 409 88 501 103 c 1,32,-1
 504 11 l 1,33,34
 412 -9 412 -9 318 -11 c 1,35,-1
 318 -42 l 1,36,0
 381 -43 381 -43 409 -60 c 128,-1,1
EndSplineSet
Position2: "'cpsp' Capital Spacing in Latin lookup 0 subtable" dx=5 dy=0 dh=10 dv=0
EndChar

StartChar: Egrave
Encoding: 200 200 137
Width: 553
GlyphClass: 2
Flags: W
LayerCount: 2
Fore
SplineSet
79 0 m 1,0,-1
 79 685 l 1,1,-1
 511 685 l 1,2,-1
 511 588 l 1,3,-1
 190 588 l 1,4,-1
 190 394 l 1,5,-1
 451 394 l 1,6,-1
 451 298 l 1,7,-1
 190 298 l 1,8,-1
 190 98 l 1,9,-1
 511 98 l 1,10,-1
 511 0 l 1,11,-1
 79 0 l 1,0,-1
187 939 m 1,12,-1
 423 836 l 1,13,-1
 395 760 l 1,14,-1
 152 842 l 1,15,-1
 187 939 l 1,12,-1
EndSplineSet
Position2: "'cpsp' Capital Spacing in Latin lookup 0 subtable" dx=5 dy=0 dh=10 dv=0
EndChar

StartChar: Eacute
Encoding: 201 201 138
Width: 553
GlyphClass: 2
Flags: W
LayerCount: 2
Fore
SplineSet
79 0 m 1,0,-1
 79 685 l 1,1,-1
 511 685 l 1,2,-1
 511 588 l 1,3,-1
 190 588 l 1,4,-1
 190 394 l 1,5,-1
 451 394 l 1,6,-1
 451 298 l 1,7,-1
 190 298 l 1,8,-1
 190 98 l 1,9,-1
 511 98 l 1,10,-1
 511 0 l 1,11,-1
 79 0 l 1,0,-1
164 836 m 1,12,-1
 400 939 l 1,13,-1
 435 842 l 1,14,-1
 192 760 l 1,15,-1
 164 836 l 1,12,-1
EndSplineSet
Position2: "'cpsp' Capital Spacing in Latin lookup 0 subtable" dx=5 dy=0 dh=10 dv=0
EndChar

StartChar: Ecircumflex
Encoding: 202 202 139
Width: 553
GlyphClass: 2
Flags: W
LayerCount: 2
Fore
SplineSet
79 0 m 1,0,-1
 79 685 l 1,1,-1
 511 685 l 1,2,-1
 511 588 l 1,3,-1
 190 588 l 1,4,-1
 190 394 l 1,5,-1
 451 394 l 1,6,-1
 451 298 l 1,7,-1
 190 298 l 1,8,-1
 190 98 l 1,9,-1
 511 98 l 1,10,-1
 511 0 l 1,11,-1
 79 0 l 1,0,-1
115 776 m 1,12,-1
 249 919 l 1,13,-1
 343 919 l 1,14,-1
 477 776 l 1,15,-1
 361 776 l 1,16,-1
 297 843 l 1,17,-1
 232 776 l 1,18,-1
 115 776 l 1,12,-1
EndSplineSet
Position2: "'cpsp' Capital Spacing in Latin lookup 0 subtable" dx=5 dy=0 dh=10 dv=0
EndChar

StartChar: Edieresis
Encoding: 203 203 140
Width: 553
GlyphClass: 2
Flags: W
LayerCount: 2
Fore
SplineSet
79 0 m 1,0,-1
 79 685 l 1,1,-1
 511 685 l 1,2,-1
 511 588 l 1,3,-1
 190 588 l 1,4,-1
 190 394 l 1,5,-1
 451 394 l 1,6,-1
 451 298 l 1,7,-1
 190 298 l 1,8,-1
 190 98 l 1,9,-1
 511 98 l 1,10,-1
 511 0 l 1,11,-1
 79 0 l 1,0,-1
138 783 m 1,12,-1
 138 897 l 1,13,-1
 242 897 l 1,14,-1
 242 783 l 1,15,-1
 138 783 l 1,12,-1
347 783 m 1,16,-1
 347 897 l 1,17,-1
 451 897 l 1,18,-1
 451 783 l 1,19,-1
 347 783 l 1,16,-1
EndSplineSet
Position2: "'cpsp' Capital Spacing in Latin lookup 0 subtable" dx=5 dy=0 dh=10 dv=0
EndChar

StartChar: Igrave
Encoding: 204 204 141
Width: 269
GlyphClass: 2
Flags: W
LayerCount: 2
Fore
SplineSet
79 0 m 1,0,-1
 79 685 l 1,1,-1
 190 685 l 1,2,-1
 190 0 l 1,3,-1
 79 0 l 1,0,-1
12 939 m 1,4,-1
 248 836 l 1,5,-1
 220 760 l 1,6,-1
 -23 842 l 1,7,-1
 12 939 l 1,4,-1
EndSplineSet
Position2: "'cpsp' Capital Spacing in Latin lookup 0 subtable" dx=5 dy=0 dh=10 dv=0
EndChar

StartChar: Iacute
Encoding: 205 205 142
Width: 269
GlyphClass: 2
Flags: W
LayerCount: 2
Fore
SplineSet
79 0 m 1,0,-1
 79 685 l 1,1,-1
 190 685 l 1,2,-1
 190 0 l 1,3,-1
 79 0 l 1,0,-1
10 836 m 1,4,-1
 246 939 l 1,5,-1
 281 842 l 1,6,-1
 38 760 l 1,7,-1
 10 836 l 1,4,-1
EndSplineSet
Position2: "'cpsp' Capital Spacing in Latin lookup 0 subtable" dx=5 dy=0 dh=10 dv=0
EndChar

StartChar: Icircumflex
Encoding: 206 206 143
Width: 269
GlyphClass: 2
Flags: W
LayerCount: 2
Fore
SplineSet
79 0 m 1,0,-1
 79 685 l 1,1,-1
 190 685 l 1,2,-1
 190 0 l 1,3,-1
 79 0 l 1,0,-1
-49 776 m 1,4,-1
 85 919 l 1,5,-1
 179 919 l 1,6,-1
 313 776 l 1,7,-1
 197 776 l 1,8,-1
 133 843 l 1,9,-1
 68 776 l 1,10,-1
 -49 776 l 1,4,-1
EndSplineSet
Position2: "'cpsp' Capital Spacing in Latin lookup 0 subtable" dx=5 dy=0 dh=10 dv=0
EndChar

StartChar: Idieresis
Encoding: 207 207 144
Width: 269
GlyphClass: 2
Flags: W
LayerCount: 2
Fore
SplineSet
79 0 m 1,0,-1
 79 685 l 1,1,-1
 190 685 l 1,2,-1
 190 0 l 1,3,-1
 79 0 l 1,0,-1
-22 783 m 1,4,-1
 -22 897 l 1,5,-1
 82 897 l 1,6,-1
 82 783 l 1,7,-1
 -22 783 l 1,4,-1
187 783 m 1,8,-1
 187 897 l 1,9,-1
 291 897 l 1,10,-1
 291 783 l 1,11,-1
 187 783 l 1,8,-1
EndSplineSet
Position2: "'cpsp' Capital Spacing in Latin lookup 0 subtable" dx=5 dy=0 dh=10 dv=0
EndChar

StartChar: Eth
Encoding: 208 208 145
Width: 644
GlyphClass: 2
Flags: W
LayerCount: 2
Fore
SplineSet
23 292 m 1,0,-1
 23 398 l 1,1,-1
 83 398 l 1,2,-1
 83 693 l 1,3,-1
 318 693 l 2,4,5
 480 693 480 693 539 606 c 0,6,7
 569 561 569 561 581 502.5 c 128,-1,8
 593 444 593 444 593 357.5 c 128,-1,9
 593 271 593 271 581.5 209.5 c 128,-1,10
 570 148 570 148 541 98 c 0,11,12
 483 0 483 0 318 0 c 2,13,-1
 83 0 l 1,14,-1
 83 292 l 1,15,-1
 23 292 l 1,0,-1
478 359 m 0,16,17
 478 478 478 478 446.5 532.5 c 128,-1,18
 415 587 415 587 318 587 c 2,19,-1
 193 587 l 1,20,-1
 193 398 l 1,21,-1
 335 398 l 1,22,-1
 335 292 l 1,23,-1
 193 292 l 1,24,-1
 193 106 l 1,25,-1
 318 106 l 2,26,27
 418 106 418 106 450 179 c 0,28,29
 467 216 467 216 472.5 257 c 128,-1,30
 478 298 478 298 478 359 c 0,16,17
EndSplineSet
Position2: "'cpsp' Capital Spacing in Latin lookup 0 subtable" dx=5 dy=0 dh=10 dv=0
EndChar

StartChar: Ntilde
Encoding: 209 209 146
Width: 686
GlyphClass: 2
Flags: W
LayerCount: 2
Fore
SplineSet
79 0 m 1,0,-1
 79 685 l 1,1,-1
 273 685 l 1,2,-1
 481 98 l 1,3,-1
 496 98 l 1,4,-1
 496 685 l 1,5,-1
 607 685 l 1,6,-1
 607 0 l 1,7,-1
 417 0 l 1,8,-1
 204 588 l 1,9,-1
 190 588 l 1,10,-1
 190 0 l 1,11,-1
 79 0 l 1,0,-1
421 777 m 128,-1,13
 397 777 397 777 334 802 c 128,-1,14
 271 827 271 827 258 827 c 0,15,16
 233 827 233 827 194 794 c 2,17,-1
 181 783 l 1,18,-1
 157 861 l 1,19,20
 163 868 163 868 172.5 878.5 c 128,-1,21
 182 889 182 889 208.5 906 c 128,-1,22
 235 923 235 923 261 923 c 128,-1,23
 287 923 287 923 348.5 898 c 128,-1,24
 410 873 410 873 421 873 c 0,25,26
 443 873 443 873 484 906 c 1,27,-1
 497 917 l 1,28,-1
 521 838 l 1,29,30
 506 817 506 817 475.5 797 c 128,-1,12
 445 777 445 777 421 777 c 128,-1,13
EndSplineSet
Position2: "'cpsp' Capital Spacing in Latin lookup 0 subtable" dx=5 dy=0 dh=10 dv=0
EndChar

StartChar: Ograve
Encoding: 210 210 147
Width: 656
GlyphClass: 2
Flags: W
LayerCount: 2
Fore
SplineSet
328 86 m 128,-1,1
 424 86 424 86 457.5 144 c 128,-1,2
 491 202 491 202 491 338.5 c 128,-1,3
 491 475 491 475 456.5 537 c 128,-1,4
 422 599 422 599 328 599 c 128,-1,5
 234 599 234 599 199 537 c 128,-1,6
 164 475 164 475 164 339.5 c 128,-1,7
 164 204 164 204 198 145 c 128,-1,0
 232 86 232 86 328 86 c 128,-1,1
328 -11 m 128,-1,9
 173 -11 173 -11 111 73.5 c 128,-1,10
 49 158 49 158 49 339 c 128,-1,11
 49 520 49 520 111.5 608 c 128,-1,12
 174 696 174 696 328 696 c 128,-1,13
 482 696 482 696 544 608.5 c 128,-1,14
 606 521 606 521 606 339 c 128,-1,15
 606 157 606 157 544.5 73 c 128,-1,8
 483 -11 483 -11 328 -11 c 128,-1,9
214 939 m 1,16,-1
 450 836 l 1,17,-1
 422 760 l 1,18,-1
 179 842 l 1,19,-1
 214 939 l 1,16,-1
EndSplineSet
Position2: "'cpsp' Capital Spacing in Latin lookup 0 subtable" dx=5 dy=0 dh=10 dv=0
EndChar

StartChar: Oacute
Encoding: 211 211 148
Width: 656
GlyphClass: 2
Flags: W
LayerCount: 2
Fore
SplineSet
328 86 m 128,-1,1
 424 86 424 86 457.5 144 c 128,-1,2
 491 202 491 202 491 338.5 c 128,-1,3
 491 475 491 475 456.5 537 c 128,-1,4
 422 599 422 599 328 599 c 128,-1,5
 234 599 234 599 199 537 c 128,-1,6
 164 475 164 475 164 339.5 c 128,-1,7
 164 204 164 204 198 145 c 128,-1,0
 232 86 232 86 328 86 c 128,-1,1
328 -11 m 128,-1,9
 173 -11 173 -11 111 73.5 c 128,-1,10
 49 158 49 158 49 339 c 128,-1,11
 49 520 49 520 111.5 608 c 128,-1,12
 174 696 174 696 328 696 c 128,-1,13
 482 696 482 696 544 608.5 c 128,-1,14
 606 521 606 521 606 339 c 128,-1,15
 606 157 606 157 544.5 73 c 128,-1,8
 483 -11 483 -11 328 -11 c 128,-1,9
181 836 m 1,16,-1
 417 939 l 1,17,-1
 452 842 l 1,18,-1
 209 760 l 1,19,-1
 181 836 l 1,16,-1
EndSplineSet
Position2: "'cpsp' Capital Spacing in Latin lookup 0 subtable" dx=5 dy=0 dh=10 dv=0
EndChar

StartChar: Ocircumflex
Encoding: 212 212 149
Width: 656
GlyphClass: 2
Flags: W
LayerCount: 2
Fore
SplineSet
328 86 m 128,-1,1
 424 86 424 86 457.5 144 c 128,-1,2
 491 202 491 202 491 338.5 c 128,-1,3
 491 475 491 475 456.5 537 c 128,-1,4
 422 599 422 599 328 599 c 128,-1,5
 234 599 234 599 199 537 c 128,-1,6
 164 475 164 475 164 339.5 c 128,-1,7
 164 204 164 204 198 145 c 128,-1,0
 232 86 232 86 328 86 c 128,-1,1
328 -11 m 128,-1,9
 173 -11 173 -11 111 73.5 c 128,-1,10
 49 158 49 158 49 339 c 128,-1,11
 49 520 49 520 111.5 608 c 128,-1,12
 174 696 174 696 328 696 c 128,-1,13
 482 696 482 696 544 608.5 c 128,-1,14
 606 521 606 521 606 339 c 128,-1,15
 606 157 606 157 544.5 73 c 128,-1,8
 483 -11 483 -11 328 -11 c 128,-1,9
148 776 m 1,16,-1
 282 919 l 1,17,-1
 376 919 l 1,18,-1
 510 776 l 1,19,-1
 394 776 l 1,20,-1
 330 843 l 1,21,-1
 265 776 l 1,22,-1
 148 776 l 1,16,-1
EndSplineSet
Position2: "'cpsp' Capital Spacing in Latin lookup 0 subtable" dx=5 dy=0 dh=10 dv=0
EndChar

StartChar: Otilde
Encoding: 213 213 150
Width: 656
GlyphClass: 2
Flags: W
LayerCount: 2
Fore
SplineSet
328 86 m 128,-1,1
 424 86 424 86 457.5 144 c 128,-1,2
 491 202 491 202 491 338.5 c 128,-1,3
 491 475 491 475 456.5 537 c 128,-1,4
 422 599 422 599 328 599 c 128,-1,5
 234 599 234 599 199 537 c 128,-1,6
 164 475 164 475 164 339.5 c 128,-1,7
 164 204 164 204 198 145 c 128,-1,0
 232 86 232 86 328 86 c 128,-1,1
328 -11 m 128,-1,9
 173 -11 173 -11 111 73.5 c 128,-1,10
 49 158 49 158 49 339 c 128,-1,11
 49 520 49 520 111.5 608 c 128,-1,12
 174 696 174 696 328 696 c 128,-1,13
 482 696 482 696 544 608.5 c 128,-1,14
 606 521 606 521 606 339 c 128,-1,15
 606 157 606 157 544.5 73 c 128,-1,8
 483 -11 483 -11 328 -11 c 128,-1,9
408 777 m 128,-1,17
 384 777 384 777 321 802 c 128,-1,18
 258 827 258 827 245 827 c 0,19,20
 220 827 220 827 181 794 c 2,21,-1
 168 783 l 1,22,-1
 144 861 l 1,23,24
 150 868 150 868 159.5 878.5 c 128,-1,25
 169 889 169 889 195.5 906 c 128,-1,26
 222 923 222 923 248 923 c 128,-1,27
 274 923 274 923 335.5 898 c 128,-1,28
 397 873 397 873 408 873 c 0,29,30
 430 873 430 873 470 906 c 1,31,-1
 484 917 l 1,32,-1
 508 838 l 1,33,34
 493 817 493 817 462.5 797 c 128,-1,16
 432 777 432 777 408 777 c 128,-1,17
EndSplineSet
Position2: "'cpsp' Capital Spacing in Latin lookup 0 subtable" dx=5 dy=0 dh=10 dv=0
EndChar

StartChar: Odieresis
Encoding: 214 214 151
Width: 656
GlyphClass: 2
Flags: W
LayerCount: 2
Fore
SplineSet
328 86 m 128,-1,1
 424 86 424 86 457.5 144 c 128,-1,2
 491 202 491 202 491 338.5 c 128,-1,3
 491 475 491 475 456.5 537 c 128,-1,4
 422 599 422 599 328 599 c 128,-1,5
 234 599 234 599 199 537 c 128,-1,6
 164 475 164 475 164 339.5 c 128,-1,7
 164 204 164 204 198 145 c 128,-1,0
 232 86 232 86 328 86 c 128,-1,1
328 -11 m 128,-1,9
 173 -11 173 -11 111 73.5 c 128,-1,10
 49 158 49 158 49 339 c 128,-1,11
 49 520 49 520 111.5 608 c 128,-1,12
 174 696 174 696 328 696 c 128,-1,13
 482 696 482 696 544 608.5 c 128,-1,14
 606 521 606 521 606 339 c 128,-1,15
 606 157 606 157 544.5 73 c 128,-1,8
 483 -11 483 -11 328 -11 c 128,-1,9
172 783 m 1,16,-1
 172 897 l 1,17,-1
 276 897 l 1,18,-1
 276 783 l 1,19,-1
 172 783 l 1,16,-1
381 783 m 1,20,-1
 381 897 l 1,21,-1
 485 897 l 1,22,-1
 485 783 l 1,23,-1
 381 783 l 1,20,-1
EndSplineSet
Position2: "'cpsp' Capital Spacing in Latin lookup 0 subtable" dx=5 dy=0 dh=10 dv=0
EndChar

StartChar: multiply
Encoding: 215 215 152
Width: 560
GlyphClass: 2
Flags: W
LayerCount: 2
Fore
SplineSet
132 467 m 1,0,-1
 280 317 l 1,1,-1
 429 468 l 1,2,-1
 497 399 l 1,3,-1
 346 250 l 1,4,-1
 497 102 l 1,5,-1
 428 33 l 1,6,-1
 280 184 l 1,7,-1
 132 33 l 1,8,-1
 62 102 l 1,9,-1
 213 250 l 1,10,-1
 63 398 l 1,11,-1
 132 467 l 1,0,-1
EndSplineSet
EndChar

StartChar: Oslash
Encoding: 216 216 153
Width: 656
GlyphClass: 2
Flags: W
LayerCount: 2
Fore
SplineSet
328 -11 m 0,0,1
 268 -11 268 -11 221 1 c 1,2,-1
 164 -122 l 1,3,-1
 84 -83 l 1,4,-1
 142 41 l 1,5,6
 49 116 49 116 49 339 c 0,7,8
 49 520 49 520 111.5 608 c 128,-1,9
 174 696 174 696 328 696 c 0,10,11
 389 696 389 696 440 680 c 1,12,-1
 498 805 l 1,13,-1
 580 770 l 1,14,-1
 518 637 l 1,15,16
 606 557 606 557 606 339 c 0,17,18
 606 157 606 157 544.5 73 c 128,-1,19
 483 -11 483 -11 328 -11 c 0,0,1
199 537 m 128,-1,21
 164 475 164 475 164 341 c 128,-1,22
 164 207 164 207 194 152 c 1,23,-1
 397 588 l 1,24,25
 367 599 367 599 328 599 c 0,26,20
 234 599 234 599 199 537 c 128,-1,21
328 86 m 0,27,28
 424 86 424 86 457.5 144 c 128,-1,29
 491 202 491 202 491 332.5 c 128,-1,30
 491 463 491 463 464 522 c 1,31,-1
 265 94 l 1,32,33
 294 86 294 86 328 86 c 0,27,28
EndSplineSet
Position2: "'cpsp' Capital Spacing in Latin lookup 0 subtable" dx=5 dy=0 dh=10 dv=0
EndChar

StartChar: Ugrave
Encoding: 217 217 154
Width: 650
GlyphClass: 2
Flags: W
LayerCount: 2
Fore
SplineSet
185 219 m 2,0,1
 185 86 185 86 325 86 c 128,-1,2
 465 86 465 86 465 219 c 2,3,-1
 465 685 l 1,4,-1
 577 685 l 1,5,-1
 577 221 l 2,6,7
 577 100 577 100 513.5 44.5 c 128,-1,8
 450 -11 450 -11 324.5 -11 c 128,-1,9
 199 -11 199 -11 136 44.5 c 128,-1,10
 73 100 73 100 73 221 c 2,11,-1
 73 685 l 1,12,-1
 185 685 l 1,13,-1
 185 219 l 2,0,1
219 939 m 1,14,-1
 455 836 l 1,15,-1
 427 760 l 1,16,-1
 184 842 l 1,17,-1
 219 939 l 1,14,-1
EndSplineSet
Position2: "'cpsp' Capital Spacing in Latin lookup 0 subtable" dx=5 dy=0 dh=10 dv=0
EndChar

StartChar: Uacute
Encoding: 218 218 155
Width: 650
GlyphClass: 2
Flags: W
LayerCount: 2
Fore
SplineSet
185 219 m 2,0,1
 185 86 185 86 325 86 c 128,-1,2
 465 86 465 86 465 219 c 2,3,-1
 465 685 l 1,4,-1
 577 685 l 1,5,-1
 577 221 l 2,6,7
 577 100 577 100 513.5 44.5 c 128,-1,8
 450 -11 450 -11 324.5 -11 c 128,-1,9
 199 -11 199 -11 136 44.5 c 128,-1,10
 73 100 73 100 73 221 c 2,11,-1
 73 685 l 1,12,-1
 185 685 l 1,13,-1
 185 219 l 2,0,1
185 836 m 1,14,-1
 421 939 l 1,15,-1
 456 842 l 1,16,-1
 213 760 l 1,17,-1
 185 836 l 1,14,-1
EndSplineSet
Position2: "'cpsp' Capital Spacing in Latin lookup 0 subtable" dx=5 dy=0 dh=10 dv=0
EndChar

StartChar: Ucircumflex
Encoding: 219 219 156
Width: 650
GlyphClass: 2
Flags: W
LayerCount: 2
Fore
SplineSet
185 219 m 2,0,1
 185 86 185 86 325 86 c 128,-1,2
 465 86 465 86 465 219 c 2,3,-1
 465 685 l 1,4,-1
 577 685 l 1,5,-1
 577 221 l 2,6,7
 577 100 577 100 513.5 44.5 c 128,-1,8
 450 -11 450 -11 324.5 -11 c 128,-1,9
 199 -11 199 -11 136 44.5 c 128,-1,10
 73 100 73 100 73 221 c 2,11,-1
 73 685 l 1,12,-1
 185 685 l 1,13,-1
 185 219 l 2,0,1
144 776 m 1,14,-1
 278 919 l 1,15,-1
 372 919 l 1,16,-1
 506 776 l 1,17,-1
 390 776 l 1,18,-1
 326 843 l 1,19,-1
 261 776 l 1,20,-1
 144 776 l 1,14,-1
EndSplineSet
Position2: "'cpsp' Capital Spacing in Latin lookup 0 subtable" dx=5 dy=0 dh=10 dv=0
EndChar

StartChar: Udieresis
Encoding: 220 220 157
Width: 650
GlyphClass: 2
Flags: W
LayerCount: 2
Fore
SplineSet
185 219 m 2,0,1
 185 86 185 86 325 86 c 128,-1,2
 465 86 465 86 465 219 c 2,3,-1
 465 685 l 1,4,-1
 577 685 l 1,5,-1
 577 221 l 2,6,7
 577 100 577 100 513.5 44.5 c 128,-1,8
 450 -11 450 -11 324.5 -11 c 128,-1,9
 199 -11 199 -11 136 44.5 c 128,-1,10
 73 100 73 100 73 221 c 2,11,-1
 73 685 l 1,12,-1
 185 685 l 1,13,-1
 185 219 l 2,0,1
169 783 m 1,14,-1
 169 897 l 1,15,-1
 273 897 l 1,16,-1
 273 783 l 1,17,-1
 169 783 l 1,14,-1
378 783 m 1,18,-1
 378 897 l 1,19,-1
 482 897 l 1,20,-1
 482 783 l 1,21,-1
 378 783 l 1,18,-1
EndSplineSet
Position2: "'cpsp' Capital Spacing in Latin lookup 0 subtable" dx=5 dy=0 dh=10 dv=0
EndChar

StartChar: Yacute
Encoding: 221 221 158
Width: 549
GlyphClass: 2
Flags: W
LayerCount: 2
Fore
SplineSet
331 0 m 1,0,-1
 219 0 l 1,1,-1
 219 282 l 1,2,-1
 4 685 l 1,3,-1
 129 685 l 1,4,-1
 274 391 l 1,5,-1
 420 685 l 1,6,-1
 544 685 l 1,7,-1
 331 282 l 1,8,-1
 331 0 l 1,0,-1
148 836 m 1,9,-1
 384 939 l 1,10,-1
 419 842 l 1,11,-1
 176 760 l 1,12,-1
 148 836 l 1,9,-1
EndSplineSet
Position2: "'cpsp' Capital Spacing in Latin lookup 0 subtable" dx=5 dy=0 dh=10 dv=0
EndChar

StartChar: Thorn
Encoding: 222 222 159
Width: 597
GlyphClass: 2
Flags: W
LayerCount: 2
Fore
SplineSet
329 216 m 2,0,1
 390 216 390 216 420.5 253 c 128,-1,2
 451 290 451 290 451 355.5 c 128,-1,3
 451 421 451 421 421 451.5 c 128,-1,4
 391 482 391 482 329 482 c 2,5,-1
 190 482 l 1,6,-1
 190 216 l 1,7,-1
 329 216 l 2,0,1
330 108 m 2,8,-1
 190 108 l 1,9,-1
 190 0 l 1,10,-1
 79 0 l 1,11,-1
 79 693 l 1,12,-1
 190 693 l 1,13,-1
 190 588 l 1,14,-1
 330 588 l 2,15,16
 564 588 564 588 564 357 c 0,17,18
 564 238 564 238 504.5 173 c 128,-1,19
 445 108 445 108 330 108 c 2,8,-1
EndSplineSet
Position2: "'cpsp' Capital Spacing in Latin lookup 0 subtable" dx=5 dy=0 dh=10 dv=0
EndChar

StartChar: germandbls
Encoding: 223 223 160
Width: 595
GlyphClass: 2
Flags: W
LayerCount: 2
Fore
SplineSet
175 0 m 1,0,-1
 66 0 l 1,1,-1
 66 532 l 2,2,3
 66 634 66 634 116 676.5 c 128,-1,4
 166 719 166 719 279 719 c 128,-1,5
 392 719 392 719 444 683.5 c 128,-1,6
 496 648 496 648 496 567 c 0,7,8
 496 514 496 514 475.5 487.5 c 128,-1,9
 455 461 455 461 413 442 c 128,-1,10
 371 423 371 423 360 414 c 128,-1,11
 349 405 349 405 349 391 c 128,-1,12
 349 377 349 377 365.5 364.5 c 128,-1,13
 382 352 382 352 447 321 c 128,-1,14
 512 290 512 290 539.5 259 c 128,-1,15
 567 228 567 228 567 170 c 0,16,17
 567 69 567 69 521 29 c 128,-1,18
 475 -11 475 -11 365 -11 c 0,19,20
 308 -11 308 -11 244 3 c 2,21,-1
 221 8 l 1,22,-1
 225 96 l 1,23,24
 317 85 317 85 364 85 c 0,25,26
 455 85 455 85 455 154 c 0,27,28
 455 184 455 184 437.5 200 c 128,-1,29
 420 216 420 216 356 246 c 1,30,31
 289 275 289 275 263 304.5 c 128,-1,32
 237 334 237 334 237 379.5 c 128,-1,33
 237 425 237 425 255 450 c 128,-1,34
 273 475 273 475 314.5 492.5 c 128,-1,35
 356 510 356 510 370 524 c 128,-1,36
 384 538 384 538 384 566 c 128,-1,37
 384 594 384 594 362 608.5 c 128,-1,38
 340 623 340 623 280.5 623 c 128,-1,39
 221 623 221 623 198 602 c 128,-1,40
 175 581 175 581 175 527 c 2,41,-1
 175 0 l 1,0,-1
EndSplineSet
EndChar

StartChar: agrave
Encoding: 224 224 161
Width: 507
GlyphClass: 2
Flags: W
LayerCount: 2
Fore
SplineSet
436 346 m 2,0,-1
 436 118 l 1,1,2
 437 96 437 96 447.5 85.5 c 128,-1,3
 458 75 458 75 480 72 c 1,4,-1
 477 -11 l 1,5,6
 391 -11 391 -11 344 26 c 1,7,8
 264 -11 264 -11 183 -11 c 0,9,10
 34 -11 34 -11 34 148 c 0,11,12
 34 224 34 224 74.5 258 c 128,-1,13
 115 292 115 292 199 299 c 2,14,-1
 328 310 l 1,15,-1
 328 346 l 2,16,17
 328 386 328 386 310.5 402 c 128,-1,18
 293 418 293 418 259 418 c 0,19,20
 195 418 195 418 99 410 c 1,21,-1
 67 408 l 1,22,-1
 63 485 l 1,23,24
 172 511 172 511 263.5 511 c 128,-1,25
 355 511 355 511 395.5 471.5 c 128,-1,26
 436 432 436 432 436 346 c 2,0,-1
212 222 m 2,27,28
 143 216 143 216 143 147 c 128,-1,29
 143 78 143 78 204 78 c 0,30,31
 254 78 254 78 310 94 c 1,32,-1
 328 100 l 1,33,-1
 328 233 l 1,34,-1
 212 222 l 2,27,28
145 748 m 1,35,-1
 381 647 l 1,36,-1
 355 576 l 1,37,-1
 111 654 l 1,38,-1
 145 748 l 1,35,-1
EndSplineSet
EndChar

StartChar: aacute
Encoding: 225 225 162
Width: 507
GlyphClass: 2
Flags: W
LayerCount: 2
Fore
SplineSet
436 346 m 2,0,-1
 436 118 l 1,1,2
 437 96 437 96 447.5 85.5 c 128,-1,3
 458 75 458 75 480 72 c 1,4,-1
 477 -11 l 1,5,6
 391 -11 391 -11 344 26 c 1,7,8
 264 -11 264 -11 183 -11 c 0,9,10
 34 -11 34 -11 34 148 c 0,11,12
 34 224 34 224 74.5 258 c 128,-1,13
 115 292 115 292 199 299 c 2,14,-1
 328 310 l 1,15,-1
 328 346 l 2,16,17
 328 386 328 386 310.5 402 c 128,-1,18
 293 418 293 418 259 418 c 0,19,20
 195 418 195 418 99 410 c 1,21,-1
 67 408 l 1,22,-1
 63 485 l 1,23,24
 172 511 172 511 263.5 511 c 128,-1,25
 355 511 355 511 395.5 471.5 c 128,-1,26
 436 432 436 432 436 346 c 2,0,-1
212 222 m 2,27,28
 143 216 143 216 143 147 c 128,-1,29
 143 78 143 78 204 78 c 0,30,31
 254 78 254 78 310 94 c 1,32,-1
 328 100 l 1,33,-1
 328 233 l 1,34,-1
 212 222 l 2,27,28
105 647 m 1,35,-1
 341 748 l 1,36,-1
 375 654 l 1,37,-1
 131 576 l 1,38,-1
 105 647 l 1,35,-1
EndSplineSet
EndChar

StartChar: acircumflex
Encoding: 226 226 163
Width: 507
GlyphClass: 2
Flags: W
LayerCount: 2
Fore
SplineSet
436 346 m 2,0,-1
 436 118 l 1,1,2
 437 96 437 96 447.5 85.5 c 128,-1,3
 458 75 458 75 480 72 c 1,4,-1
 477 -11 l 1,5,6
 391 -11 391 -11 344 26 c 1,7,8
 264 -11 264 -11 183 -11 c 0,9,10
 34 -11 34 -11 34 148 c 0,11,12
 34 224 34 224 74.5 258 c 128,-1,13
 115 292 115 292 199 299 c 2,14,-1
 328 310 l 1,15,-1
 328 346 l 2,16,17
 328 386 328 386 310.5 402 c 128,-1,18
 293 418 293 418 259 418 c 0,19,20
 195 418 195 418 99 410 c 1,21,-1
 67 408 l 1,22,-1
 63 485 l 1,23,24
 172 511 172 511 263.5 511 c 128,-1,25
 355 511 355 511 395.5 471.5 c 128,-1,26
 436 432 436 432 436 346 c 2,0,-1
212 222 m 2,27,28
 143 216 143 216 143 147 c 128,-1,29
 143 78 143 78 204 78 c 0,30,31
 254 78 254 78 310 94 c 1,32,-1
 328 100 l 1,33,-1
 328 233 l 1,34,-1
 212 222 l 2,27,28
88 585 m 1,35,-1
 213 731 l 1,36,-1
 282 731 l 1,37,-1
 409 585 l 1,38,-1
 307 585 l 1,39,-1
 249 661 l 1,40,-1
 191 585 l 1,41,-1
 88 585 l 1,35,-1
EndSplineSet
EndChar

StartChar: atilde
Encoding: 227 227 164
Width: 507
GlyphClass: 2
Flags: W
LayerCount: 2
Fore
SplineSet
436 346 m 2,0,-1
 436 118 l 1,1,2
 437 96 437 96 447.5 85.5 c 128,-1,3
 458 75 458 75 480 72 c 1,4,-1
 477 -11 l 1,5,6
 391 -11 391 -11 344 26 c 1,7,8
 264 -11 264 -11 183 -11 c 0,9,10
 34 -11 34 -11 34 148 c 0,11,12
 34 224 34 224 74.5 258 c 128,-1,13
 115 292 115 292 199 299 c 2,14,-1
 328 310 l 1,15,-1
 328 346 l 2,16,17
 328 386 328 386 310.5 402 c 128,-1,18
 293 418 293 418 259 418 c 0,19,20
 195 418 195 418 99 410 c 1,21,-1
 67 408 l 1,22,-1
 63 485 l 1,23,24
 172 511 172 511 263.5 511 c 128,-1,25
 355 511 355 511 395.5 471.5 c 128,-1,26
 436 432 436 432 436 346 c 2,0,-1
212 222 m 2,27,28
 143 216 143 216 143 147 c 128,-1,29
 143 78 143 78 204 78 c 0,30,31
 254 78 254 78 310 94 c 1,32,-1
 328 100 l 1,33,-1
 328 233 l 1,34,-1
 212 222 l 2,27,28
342.5 613 m 128,-1,36
 317 597 317 597 296 597 c 128,-1,37
 275 597 275 597 226.5 617 c 128,-1,38
 178 637 178 637 164 637 c 0,39,40
 140 637 140 637 101 612 c 1,41,-1
 88 603 l 1,42,-1
 64 666 l 1,43,-1
 80 682 l 2,44,45
 89 691 89 691 115 706.5 c 128,-1,46
 141 722 141 722 162.5 722 c 128,-1,47
 184 722 184 722 232.5 702 c 128,-1,48
 281 682 281 682 293 682 c 0,49,50
 315 682 315 682 356 709 c 1,51,-1
 369 718 l 1,52,-1
 393 654 l 1,53,-1
 378 638 l 1,54,35
 368 629 368 629 342.5 613 c 128,-1,36
EndSplineSet
EndChar

StartChar: adieresis
Encoding: 228 228 165
Width: 507
GlyphClass: 2
Flags: W
LayerCount: 2
Fore
SplineSet
436 346 m 2,0,-1
 436 118 l 1,1,2
 437 96 437 96 447.5 85.5 c 128,-1,3
 458 75 458 75 480 72 c 1,4,-1
 477 -11 l 1,5,6
 391 -11 391 -11 344 26 c 1,7,8
 264 -11 264 -11 183 -11 c 0,9,10
 34 -11 34 -11 34 148 c 0,11,12
 34 224 34 224 74.5 258 c 128,-1,13
 115 292 115 292 199 299 c 2,14,-1
 328 310 l 1,15,-1
 328 346 l 2,16,17
 328 386 328 386 310.5 402 c 128,-1,18
 293 418 293 418 259 418 c 0,19,20
 195 418 195 418 99 410 c 1,21,-1
 67 408 l 1,22,-1
 63 485 l 1,23,24
 172 511 172 511 263.5 511 c 128,-1,25
 355 511 355 511 395.5 471.5 c 128,-1,26
 436 432 436 432 436 346 c 2,0,-1
212 222 m 2,27,28
 143 216 143 216 143 147 c 128,-1,29
 143 78 143 78 204 78 c 0,30,31
 254 78 254 78 310 94 c 1,32,-1
 328 100 l 1,33,-1
 328 233 l 1,34,-1
 212 222 l 2,27,28
83 607 m 1,35,-1
 83 721 l 1,36,-1
 187 721 l 1,37,-1
 187 607 l 1,38,-1
 83 607 l 1,35,-1
292 607 m 1,39,-1
 292 721 l 1,40,-1
 396 721 l 1,41,-1
 396 607 l 1,42,-1
 292 607 l 1,39,-1
EndSplineSet
EndChar

StartChar: aring
Encoding: 229 229 166
Width: 507
GlyphClass: 2
Flags: W
LayerCount: 2
Fore
SplineSet
436 346 m 2,0,-1
 436 118 l 1,1,2
 437 96 437 96 447.5 85.5 c 128,-1,3
 458 75 458 75 480 72 c 1,4,-1
 477 -11 l 1,5,6
 391 -11 391 -11 344 26 c 1,7,8
 264 -11 264 -11 183 -11 c 0,9,10
 34 -11 34 -11 34 148 c 0,11,12
 34 224 34 224 74.5 258 c 128,-1,13
 115 292 115 292 199 299 c 2,14,-1
 328 310 l 1,15,-1
 328 346 l 2,16,17
 328 386 328 386 310.5 402 c 128,-1,18
 293 418 293 418 259 418 c 0,19,20
 195 418 195 418 99 410 c 1,21,-1
 67 408 l 1,22,-1
 63 485 l 1,23,24
 172 511 172 511 263.5 511 c 128,-1,25
 355 511 355 511 395.5 471.5 c 128,-1,26
 436 432 436 432 436 346 c 2,0,-1
212 222 m 2,27,28
 143 216 143 216 143 147 c 128,-1,29
 143 78 143 78 204 78 c 0,30,31
 254 78 254 78 310 94 c 1,32,-1
 328 100 l 1,33,-1
 328 233 l 1,34,-1
 212 222 l 2,27,28
181 561.5 m 128,-1,36
 149 593 149 593 149 640.5 c 128,-1,37
 149 688 149 688 181 720 c 128,-1,38
 213 752 213 752 260 752 c 128,-1,39
 307 752 307 752 339.5 719.5 c 128,-1,40
 372 687 372 687 372 640 c 128,-1,41
 372 593 372 593 339.5 561.5 c 128,-1,42
 307 530 307 530 260 530 c 128,-1,35
 213 530 213 530 181 561.5 c 128,-1,36
225 676.5 m 128,-1,44
 211 662 211 662 211 640.5 c 128,-1,45
 211 619 211 619 225 604.5 c 128,-1,46
 239 590 239 590 260.5 590 c 128,-1,47
 282 590 282 590 296 604.5 c 128,-1,48
 310 619 310 619 310 640.5 c 128,-1,49
 310 662 310 662 296 676.5 c 128,-1,50
 282 691 282 691 260.5 691 c 128,-1,43
 239 691 239 691 225 676.5 c 128,-1,44
EndSplineSet
EndChar

StartChar: ae
Encoding: 230 230 167
Width: 793
GlyphClass: 2
Flags: W
LayerCount: 2
Fore
SplineSet
706 94 m 1,0,-1
 735 97 l 1,1,-1
 737 12 l 1,2,3
 622 -11 622 -11 528 -11 c 128,-1,4
 434 -11 434 -11 384 39 c 1,5,-1
 357 27 l 2,6,7
 271 -11 271 -11 177 -11 c 0,8,9
 107 -11 107 -11 70.5 31 c 128,-1,10
 34 73 34 73 34 150.5 c 128,-1,11
 34 228 34 228 76.5 261 c 128,-1,12
 119 294 119 294 211 301 c 2,13,-1
 328 310 l 1,14,-1
 328 342 l 2,15,16
 328 374 328 374 310.5 390.5 c 128,-1,17
 293 407 293 407 261 407 c 0,18,19
 186 407 186 407 102 399 c 2,20,-1
 70 396 l 1,21,-1
 66 492 l 1,22,23
 193 510 193 510 277 510 c 128,-1,24
 361 510 361 510 400 458 c 1,25,26
 449 510 449 510 549 510 c 0,27,28
 753 510 753 510 753 282 c 1,29,-1
 746 203 l 1,30,-1
 436 203 l 1,31,32
 437 143 437 143 463 115.5 c 128,-1,33
 489 88 489 88 560.5 88 c 128,-1,34
 632 88 632 88 706 94 c 1,0,-1
197 82 m 0,35,36
 242 82 242 82 287 93.5 c 128,-1,37
 332 105 332 105 335 107 c 1,38,39
 327 154 327 154 327 226 c 1,40,-1
 212 218 l 2,41,42
 143 213 143 213 143 147.5 c 128,-1,43
 143 82 143 82 197 82 c 0,35,36
436 288 m 1,44,-1
 646 288 l 1,45,46
 646 356 646 356 622 385 c 128,-1,47
 598 414 598 414 542.5 414 c 128,-1,48
 487 414 487 414 461.5 384 c 128,-1,49
 436 354 436 354 436 288 c 1,44,-1
EndSplineSet
EndChar

StartChar: ccedilla
Encoding: 231 231 168
Width: 442
GlyphClass: 2
Flags: W
LayerCount: 2
Fore
SplineSet
343 -60 m 128,-1,1
 371 -77 371 -77 371 -128 c 128,-1,2
 371 -179 371 -179 343.5 -205 c 128,-1,3
 316 -231 316 -231 267 -231 c 0,4,5
 229 -231 229 -231 190 -224 c 1,6,-1
 177 -221 l 1,7,-1
 181 -156 l 1,8,9
 215 -158 215 -158 236 -158 c 0,10,11
 277 -158 277 -158 277 -127 c 0,12,13
 277 -112 277 -112 267.5 -106 c 128,-1,14
 258 -100 258 -100 236 -100 c 2,15,-1
 205 -100 l 1,16,-1
 205 -8 l 1,17,18
 117 3 117 3 80.5 64.5 c 128,-1,19
 44 126 44 126 44 259 c 128,-1,20
 44 392 44 392 93 451.5 c 128,-1,21
 142 511 142 511 253 511 c 0,22,23
 306 511 306 511 378 497 c 2,24,-1
 403 492 l 1,25,-1
 399 406 l 1,26,27
 320 414 320 414 282 414 c 0,28,29
 206 414 206 414 180 380 c 128,-1,30
 154 346 154 346 154 252 c 128,-1,31
 154 158 154 158 179 122 c 128,-1,32
 204 86 204 86 283 86 c 1,33,-1
 400 94 l 1,34,-1
 403 7 l 1,35,36
 303 -11 303 -11 252 -11 c 1,37,-1
 252 -42 l 1,38,0
 315 -43 315 -43 343 -60 c 128,-1,1
EndSplineSet
EndChar

StartChar: egrave
Encoding: 232 232 169
Width: 508
GlyphClass: 2
Flags: W
LayerCount: 2
Fore
SplineSet
422 90 m 1,0,-1
 450 93 l 1,1,-1
 452 12 l 1,2,3
 338 -11 338 -11 250 -11 c 0,4,5
 139 -11 139 -11 90.5 50 c 128,-1,6
 42 111 42 111 42 245 c 0,7,8
 42 511 42 511 259 511 c 0,9,10
 469 511 469 511 469 282 c 1,11,-1
 462 204 l 1,12,-1
 152 204 l 1,13,14
 153 142 153 142 179 113 c 128,-1,15
 205 84 205 84 276 84 c 128,-1,16
 347 84 347 84 422 90 c 1,0,-1
362 288 m 1,17,18
 362 362 362 362 338.5 391.5 c 128,-1,19
 315 421 315 421 259 421 c 128,-1,20
 203 421 203 421 177.5 390 c 128,-1,21
 152 359 152 359 151 288 c 1,22,-1
 362 288 l 1,17,18
149 748 m 1,23,-1
 385 647 l 1,24,-1
 359 576 l 1,25,-1
 115 654 l 1,26,-1
 149 748 l 1,23,-1
EndSplineSet
EndChar

StartChar: eacute
Encoding: 233 233 170
Width: 508
GlyphClass: 2
Flags: W
LayerCount: 2
Fore
SplineSet
422 90 m 1,0,-1
 450 93 l 1,1,-1
 452 12 l 1,2,3
 338 -11 338 -11 250 -11 c 0,4,5
 139 -11 139 -11 90.5 50 c 128,-1,6
 42 111 42 111 42 245 c 0,7,8
 42 511 42 511 259 511 c 0,9,10
 469 511 469 511 469 282 c 1,11,-1
 462 204 l 1,12,-1
 152 204 l 1,13,14
 153 142 153 142 179 113 c 128,-1,15
 205 84 205 84 276 84 c 128,-1,16
 347 84 347 84 422 90 c 1,0,-1
362 288 m 1,17,18
 362 362 362 362 338.5 391.5 c 128,-1,19
 315 421 315 421 259 421 c 128,-1,20
 203 421 203 421 177.5 390 c 128,-1,21
 152 359 152 359 151 288 c 1,22,-1
 362 288 l 1,17,18
122 647 m 1,23,-1
 358 748 l 1,24,-1
 392 654 l 1,25,-1
 148 576 l 1,26,-1
 122 647 l 1,23,-1
EndSplineSet
EndChar

StartChar: ecircumflex
Encoding: 234 234 171
Width: 508
GlyphClass: 2
Flags: W
LayerCount: 2
Fore
SplineSet
422 90 m 1,0,-1
 450 93 l 1,1,-1
 452 12 l 1,2,3
 338 -11 338 -11 250 -11 c 0,4,5
 139 -11 139 -11 90.5 50 c 128,-1,6
 42 111 42 111 42 245 c 0,7,8
 42 511 42 511 259 511 c 0,9,10
 469 511 469 511 469 282 c 1,11,-1
 462 204 l 1,12,-1
 152 204 l 1,13,14
 153 142 153 142 179 113 c 128,-1,15
 205 84 205 84 276 84 c 128,-1,16
 347 84 347 84 422 90 c 1,0,-1
362 288 m 1,17,18
 362 362 362 362 338.5 391.5 c 128,-1,19
 315 421 315 421 259 421 c 128,-1,20
 203 421 203 421 177.5 390 c 128,-1,21
 152 359 152 359 151 288 c 1,22,-1
 362 288 l 1,17,18
99 585 m 1,23,-1
 224 731 l 1,24,-1
 293 731 l 1,25,-1
 420 585 l 1,26,-1
 318 585 l 1,27,-1
 260 661 l 1,28,-1
 202 585 l 1,29,-1
 99 585 l 1,23,-1
EndSplineSet
EndChar

StartChar: edieresis
Encoding: 235 235 172
Width: 508
GlyphClass: 2
Flags: W
LayerCount: 2
Fore
SplineSet
422 90 m 1,0,-1
 450 93 l 1,1,-1
 452 12 l 1,2,3
 338 -11 338 -11 250 -11 c 0,4,5
 139 -11 139 -11 90.5 50 c 128,-1,6
 42 111 42 111 42 245 c 0,7,8
 42 511 42 511 259 511 c 0,9,10
 469 511 469 511 469 282 c 1,11,-1
 462 204 l 1,12,-1
 152 204 l 1,13,14
 153 142 153 142 179 113 c 128,-1,15
 205 84 205 84 276 84 c 128,-1,16
 347 84 347 84 422 90 c 1,0,-1
362 288 m 1,17,18
 362 362 362 362 338.5 391.5 c 128,-1,19
 315 421 315 421 259 421 c 128,-1,20
 203 421 203 421 177.5 390 c 128,-1,21
 152 359 152 359 151 288 c 1,22,-1
 362 288 l 1,17,18
100 607 m 1,23,-1
 100 721 l 1,24,-1
 204 721 l 1,25,-1
 204 607 l 1,26,-1
 100 607 l 1,23,-1
309 607 m 1,27,-1
 309 721 l 1,28,-1
 413 721 l 1,29,-1
 413 607 l 1,30,-1
 309 607 l 1,27,-1
EndSplineSet
EndChar

StartChar: igrave
Encoding: 236 236 173
Width: 241
GlyphClass: 2
Flags: W
LayerCount: 2
Fore
SplineSet
66 0 m 1,0,-1
 66 500 l 1,1,-1
 175 500 l 1,2,-1
 175 0 l 1,3,-1
 66 0 l 1,0,-1
-25 748 m 1,4,-1
 211 647 l 1,5,-1
 185 576 l 1,6,-1
 -59 654 l 1,7,-1
 -25 748 l 1,4,-1
EndSplineSet
EndChar

StartChar: iacute
Encoding: 237 237 174
Width: 241
GlyphClass: 2
Flags: W
LayerCount: 2
Fore
SplineSet
34 647 m 1,0,-1
 270 748 l 1,1,-1
 304 654 l 1,2,-1
 60 576 l 1,3,-1
 34 647 l 1,0,-1
66 500 m 1,4,-1
 175 500 l 1,5,-1
 175 0 l 1,6,-1
 66 0 l 1,7,-1
 66 500 l 1,4,-1
EndSplineSet
EndChar

StartChar: icircumflex
Encoding: 238 238 175
Width: 241
GlyphClass: 2
Flags: W
LayerCount: 2
Fore
SplineSet
66 500 m 1,0,-1
 175 500 l 1,1,-1
 175 0 l 1,2,-1
 66 0 l 1,3,-1
 66 500 l 1,0,-1
-44 585 m 1,4,-1
 81 731 l 1,5,-1
 150 731 l 1,6,-1
 277 585 l 1,7,-1
 175 585 l 1,8,-1
 117 661 l 1,9,-1
 59 585 l 1,10,-1
 -44 585 l 1,4,-1
EndSplineSet
EndChar

StartChar: idieresis
Encoding: 239 239 176
Width: 241
GlyphClass: 2
Flags: W
LayerCount: 2
Fore
SplineSet
66 500 m 1,0,-1
 175 500 l 1,1,-1
 175 0 l 1,2,-1
 66 0 l 1,3,-1
 66 500 l 1,0,-1
-40 607 m 1,4,-1
 -40 721 l 1,5,-1
 64 721 l 1,6,-1
 64 607 l 1,7,-1
 -40 607 l 1,4,-1
169 607 m 1,8,-1
 169 721 l 1,9,-1
 273 721 l 1,10,-1
 273 607 l 1,11,-1
 169 607 l 1,8,-1
EndSplineSet
EndChar

StartChar: eth
Encoding: 240 240 177
Width: 559
GlyphClass: 2
Flags: W
LayerCount: 2
Fore
SplineSet
377 633 m 1,0,1
 514 542 514 542 514 351.5 c 128,-1,2
 514 161 514 161 457 76 c 128,-1,3
 400 -9 400 -9 270 -9 c 0,4,5
 158 -9 158 -9 99 47.5 c 128,-1,6
 40 104 40 104 40 210.5 c 128,-1,7
 40 317 40 317 94.5 376 c 128,-1,8
 149 435 149 435 254 435 c 0,9,10
 318 435 318 435 380 412 c 1,11,-1
 400 405 l 1,12,13
 395 460 395 460 369.5 500.5 c 128,-1,14
 344 541 344 541 288 573 c 1,15,-1
 164 490 l 1,16,-1
 119 553 l 1,17,-1
 204 610 l 1,18,19
 160 625 160 625 88 641 c 1,20,-1
 105 719 l 1,21,22
 217 704 217 704 298 673 c 1,23,-1
 396 739 l 1,24,-1
 442 676 l 1,25,-1
 377 633 l 1,0,1
261 338 m 0,26,27
 209 338 209 338 181.5 303 c 128,-1,28
 154 268 154 268 154 215 c 0,29,30
 154 89 154 89 270 89 c 0,31,32
 337 89 337 89 368 139.5 c 128,-1,33
 399 190 399 190 400 310 c 1,34,35
 333 338 333 338 261 338 c 0,26,27
EndSplineSet
EndChar

StartChar: ntilde
Encoding: 241 241 178
Width: 546
GlyphClass: 2
Flags: W
LayerCount: 2
Fore
SplineSet
66 0 m 1,0,-1
 66 500 l 1,1,-1
 174 500 l 1,2,-1
 174 469 l 1,3,-1
 194 480 l 2,4,5
 214 490 214 490 248.5 500.5 c 128,-1,6
 283 511 283 511 312 511 c 0,7,8
 412 511 412 511 448.5 454.5 c 128,-1,9
 485 398 485 398 485 268 c 2,10,11
 485 268 485 268 485 0 c 1,12,-1
 377 0 l 1,13,-1
 377 265 l 2,14,15
 377 346 377 346 359.5 380 c 128,-1,16
 342 414 342 414 286 414 c 128,-1,17
 230 414 230 414 175 388 c 1,18,-1
 175 0 l 1,19,-1
 66 0 l 1,0,-1
393.5 613 m 128,-1,21
 368 597 368 597 347 597 c 128,-1,22
 326 597 326 597 277.5 617 c 128,-1,23
 229 637 229 637 216 637 c 0,24,25
 191 637 191 637 152 612 c 1,26,-1
 139 603 l 1,27,-1
 115 666 l 1,28,-1
 130 682 l 1,29,30
 140 691 140 691 166 706.5 c 128,-1,31
 192 722 192 722 213.5 722 c 128,-1,32
 235 722 235 722 283.5 702 c 128,-1,33
 332 682 332 682 344 682 c 0,34,35
 366 682 366 682 406 709 c 1,36,-1
 420 718 l 1,37,-1
 444 654 l 1,38,-1
 428 638 l 2,39,20
 419 629 419 629 393.5 613 c 128,-1,21
EndSplineSet
EndChar

StartChar: ograve
Encoding: 242 242 179
Width: 530
GlyphClass: 2
Flags: W
LayerCount: 2
Fore
SplineSet
265 511 m 128,-1,1
 385 511 385 511 436.5 446 c 128,-1,2
 488 381 488 381 488 251 c 128,-1,3
 488 121 488 121 438 55 c 128,-1,4
 388 -11 388 -11 265 -11 c 128,-1,5
 142 -11 142 -11 92 55 c 128,-1,6
 42 121 42 121 42 251 c 128,-1,7
 42 381 42 381 93.5 446 c 128,-1,0
 145 511 145 511 265 511 c 128,-1,1
265 81 m 128,-1,9
 332 81 332 81 355 121 c 128,-1,10
 378 161 378 161 378 252 c 128,-1,11
 378 343 378 343 353.5 381 c 128,-1,12
 329 419 329 419 265 419 c 128,-1,13
 201 419 201 419 176.5 381 c 128,-1,14
 152 343 152 343 152 252 c 128,-1,15
 152 161 152 161 175 121 c 128,-1,8
 198 81 198 81 265 81 c 128,-1,9
165 748 m 1,16,-1
 401 647 l 1,17,-1
 375 576 l 1,18,-1
 131 654 l 1,19,-1
 165 748 l 1,16,-1
EndSplineSet
EndChar

StartChar: oacute
Encoding: 243 243 180
Width: 530
GlyphClass: 2
Flags: W
LayerCount: 2
Fore
SplineSet
265 511 m 128,-1,1
 385 511 385 511 436.5 446 c 128,-1,2
 488 381 488 381 488 251 c 128,-1,3
 488 121 488 121 438 55 c 128,-1,4
 388 -11 388 -11 265 -11 c 128,-1,5
 142 -11 142 -11 92 55 c 128,-1,6
 42 121 42 121 42 251 c 128,-1,7
 42 381 42 381 93.5 446 c 128,-1,0
 145 511 145 511 265 511 c 128,-1,1
265 81 m 128,-1,9
 332 81 332 81 355 121 c 128,-1,10
 378 161 378 161 378 252 c 128,-1,11
 378 343 378 343 353.5 381 c 128,-1,12
 329 419 329 419 265 419 c 128,-1,13
 201 419 201 419 176.5 381 c 128,-1,14
 152 343 152 343 152 252 c 128,-1,15
 152 161 152 161 175 121 c 128,-1,8
 198 81 198 81 265 81 c 128,-1,9
132 647 m 1,16,-1
 368 748 l 1,17,-1
 402 654 l 1,18,-1
 158 576 l 1,19,-1
 132 647 l 1,16,-1
EndSplineSet
EndChar

StartChar: ocircumflex
Encoding: 244 244 181
Width: 530
GlyphClass: 2
Flags: W
LayerCount: 2
Fore
SplineSet
265 511 m 128,-1,1
 385 511 385 511 436.5 446 c 128,-1,2
 488 381 488 381 488 251 c 128,-1,3
 488 121 488 121 438 55 c 128,-1,4
 388 -11 388 -11 265 -11 c 128,-1,5
 142 -11 142 -11 92 55 c 128,-1,6
 42 121 42 121 42 251 c 128,-1,7
 42 381 42 381 93.5 446 c 128,-1,0
 145 511 145 511 265 511 c 128,-1,1
265 81 m 128,-1,9
 332 81 332 81 355 121 c 128,-1,10
 378 161 378 161 378 252 c 128,-1,11
 378 343 378 343 353.5 381 c 128,-1,12
 329 419 329 419 265 419 c 128,-1,13
 201 419 201 419 176.5 381 c 128,-1,14
 152 343 152 343 152 252 c 128,-1,15
 152 161 152 161 175 121 c 128,-1,8
 198 81 198 81 265 81 c 128,-1,9
100 585 m 1,16,-1
 225 731 l 1,17,-1
 294 731 l 1,18,-1
 421 585 l 1,19,-1
 319 585 l 1,20,-1
 261 661 l 1,21,-1
 203 585 l 1,22,-1
 100 585 l 1,16,-1
EndSplineSet
EndChar

StartChar: otilde
Encoding: 245 245 182
Width: 530
GlyphClass: 2
Flags: W
LayerCount: 2
Fore
SplineSet
265 511 m 128,-1,1
 385 511 385 511 436.5 446 c 128,-1,2
 488 381 488 381 488 251 c 128,-1,3
 488 121 488 121 438 55 c 128,-1,4
 388 -11 388 -11 265 -11 c 128,-1,5
 142 -11 142 -11 92 55 c 128,-1,6
 42 121 42 121 42 251 c 128,-1,7
 42 381 42 381 93.5 446 c 128,-1,0
 145 511 145 511 265 511 c 128,-1,1
265 81 m 128,-1,9
 332 81 332 81 355 121 c 128,-1,10
 378 161 378 161 378 252 c 128,-1,11
 378 343 378 343 353.5 381 c 128,-1,12
 329 419 329 419 265 419 c 128,-1,13
 201 419 201 419 176.5 381 c 128,-1,14
 152 343 152 343 152 252 c 128,-1,15
 152 161 152 161 175 121 c 128,-1,8
 198 81 198 81 265 81 c 128,-1,9
375.5 613 m 128,-1,17
 350 597 350 597 329 597 c 128,-1,18
 308 597 308 597 259.5 617 c 128,-1,19
 211 637 211 637 198 637 c 0,20,21
 173 637 173 637 134 612 c 1,22,-1
 121 603 l 1,23,-1
 97 666 l 1,24,-1
 112 682 l 1,25,26
 122 691 122 691 148 706.5 c 128,-1,27
 174 722 174 722 195.5 722 c 128,-1,28
 217 722 217 722 265.5 702 c 128,-1,29
 314 682 314 682 326 682 c 0,30,31
 348 682 348 682 388 709 c 1,32,-1
 402 718 l 1,33,-1
 426 654 l 1,34,-1
 410 638 l 2,35,16
 401 629 401 629 375.5 613 c 128,-1,17
EndSplineSet
EndChar

StartChar: odieresis
Encoding: 246 246 183
Width: 530
GlyphClass: 2
Flags: W
LayerCount: 2
Fore
SplineSet
265 511 m 128,-1,1
 385 511 385 511 436.5 446 c 128,-1,2
 488 381 488 381 488 251 c 128,-1,3
 488 121 488 121 438 55 c 128,-1,4
 388 -11 388 -11 265 -11 c 128,-1,5
 142 -11 142 -11 92 55 c 128,-1,6
 42 121 42 121 42 251 c 128,-1,7
 42 381 42 381 93.5 446 c 128,-1,0
 145 511 145 511 265 511 c 128,-1,1
265 81 m 128,-1,9
 332 81 332 81 355 121 c 128,-1,10
 378 161 378 161 378 252 c 128,-1,11
 378 343 378 343 353.5 381 c 128,-1,12
 329 419 329 419 265 419 c 128,-1,13
 201 419 201 419 176.5 381 c 128,-1,14
 152 343 152 343 152 252 c 128,-1,15
 152 161 152 161 175 121 c 128,-1,8
 198 81 198 81 265 81 c 128,-1,9
107 607 m 1,16,-1
 107 721 l 1,17,-1
 211 721 l 1,18,-1
 211 607 l 1,19,-1
 107 607 l 1,16,-1
316 607 m 1,20,-1
 316 721 l 1,21,-1
 420 721 l 1,22,-1
 420 607 l 1,23,-1
 316 607 l 1,20,-1
EndSplineSet
EndChar

StartChar: divide
Encoding: 247 247 184
Width: 560
GlyphClass: 2
Flags: W
LayerCount: 2
Fore
SplineSet
105 241 m 1,0,-1
 105 351 l 1,1,-1
 173 351 l 1,2,-1
 173 428 l 1,3,-1
 386 428 l 1,4,-1
 386 351 l 1,5,-1
 455 351 l 1,6,-1
 455 241 l 1,7,-1
 105 241 l 1,0,-1
225 23 m 1,8,-1
 225 141 l 1,9,-1
 333 141 l 1,10,-1
 333 23 l 1,11,-1
 225 23 l 1,8,-1
EndSplineSet
EndChar

StartChar: oslash
Encoding: 248 248 185
Width: 530
GlyphClass: 2
Flags: W
LayerCount: 2
Fore
SplineSet
265 511 m 0,0,1
 291 511 291 511 329 505 c 1,2,-1
 370 606 l 1,3,-1
 438 581 l 1,4,-1
 396 480 l 1,5,6
 488 425 488 425 488 253 c 0,7,8
 488 121 488 121 438 55 c 128,-1,9
 388 -11 388 -11 265 -11 c 0,10,11
 227 -11 227 -11 197 -5 c 1,12,-1
 154 -110 l 1,13,-1
 87 -85 l 1,14,-1
 131 20 l 1,15,16
 42 77 42 77 42 253 c 0,17,18
 42 381 42 381 93.5 446 c 128,-1,19
 145 511 145 511 265 511 c 0,0,1
265 81 m 0,20,21
 332 81 332 81 355 121 c 128,-1,22
 378 161 378 161 378 253 c 128,-1,23
 378 345 378 345 352 382 c 1,24,-1
 231 84 l 1,25,26
 246 81 246 81 265 81 c 0,20,21
265 419 m 0,27,28
 201 419 201 419 176.5 381 c 128,-1,29
 152 343 152 343 152 248.5 c 128,-1,30
 152 154 152 154 176 119 c 1,31,-1
 295 416 l 1,32,33
 282 419 282 419 265 419 c 0,27,28
EndSplineSet
EndChar

StartChar: ugrave
Encoding: 249 249 186
Width: 543
GlyphClass: 2
Flags: W
LayerCount: 2
Fore
SplineSet
369 500 m 1,0,-1
 477 500 l 1,1,-1
 477 0 l 1,2,-1
 369 0 l 1,3,-1
 369 31 l 1,4,5
 296 -11 296 -11 234 -11 c 0,6,7
 131 -11 131 -11 96 44.5 c 128,-1,8
 61 100 61 100 61 239 c 2,9,-1
 61 500 l 1,10,-1
 170 500 l 1,11,-1
 170 238 l 2,12,13
 170 148 170 148 185 117 c 128,-1,14
 200 86 200 86 255 86 c 0,15,16
 309 86 309 86 354 106 c 1,17,-1
 369 112 l 1,18,-1
 369 500 l 1,0,-1
139 748 m 1,19,-1
 375 647 l 1,20,-1
 349 576 l 1,21,-1
 105 654 l 1,22,-1
 139 748 l 1,19,-1
EndSplineSet
EndChar

StartChar: uacute
Encoding: 250 250 187
Width: 543
GlyphClass: 2
Flags: W
LayerCount: 2
Fore
SplineSet
477 500 m 1,0,-1
 477 0 l 1,1,-1
 369 0 l 1,2,-1
 369 31 l 1,3,-1
 349 20 l 2,4,5
 329 10 329 10 295.5 -0.5 c 128,-1,6
 262 -11 262 -11 234 -11 c 0,7,8
 131 -11 131 -11 96 44.5 c 128,-1,9
 61 100 61 100 61 239 c 2,10,11
 61 239 61 239 61 500 c 1,12,-1
 170 500 l 1,13,-1
 170 238 l 2,14,15
 170 148 170 148 185 117 c 128,-1,16
 200 86 200 86 257.5 86 c 128,-1,17
 315 86 315 86 369 112 c 1,18,-1
 369 500 l 1,19,-1
 477 500 l 1,0,-1
141 647 m 1,20,-1
 377 748 l 1,21,-1
 411 654 l 1,22,-1
 167 576 l 1,23,-1
 141 647 l 1,20,-1
EndSplineSet
EndChar

StartChar: ucircumflex
Encoding: 251 251 188
Width: 543
GlyphClass: 2
Flags: W
LayerCount: 2
Fore
SplineSet
477 500 m 1,0,-1
 477 0 l 1,1,-1
 369 0 l 1,2,-1
 369 31 l 1,3,-1
 349 20 l 2,4,5
 329 10 329 10 295.5 -0.5 c 128,-1,6
 262 -11 262 -11 234 -11 c 0,7,8
 131 -11 131 -11 96 44.5 c 128,-1,9
 61 100 61 100 61 239 c 2,10,11
 61 239 61 239 61 500 c 1,12,-1
 170 500 l 1,13,-1
 170 238 l 2,14,15
 170 148 170 148 185 117 c 128,-1,16
 200 86 200 86 257.5 86 c 128,-1,17
 315 86 315 86 369 112 c 1,18,-1
 369 500 l 1,19,-1
 477 500 l 1,0,-1
92 585 m 1,20,-1
 217 731 l 1,21,-1
 286 731 l 1,22,-1
 413 585 l 1,23,-1
 311 585 l 1,24,-1
 253 661 l 1,25,-1
 195 585 l 1,26,-1
 92 585 l 1,20,-1
EndSplineSet
EndChar

StartChar: udieresis
Encoding: 252 252 189
Width: 543
GlyphClass: 2
Flags: W
LayerCount: 2
Fore
SplineSet
477 500 m 1,0,-1
 477 0 l 1,1,-1
 369 0 l 1,2,-1
 369 31 l 1,3,-1
 349 20 l 2,4,5
 329 10 329 10 295.5 -0.5 c 128,-1,6
 262 -11 262 -11 234 -11 c 0,7,8
 131 -11 131 -11 96 44.5 c 128,-1,9
 61 100 61 100 61 239 c 2,10,11
 61 239 61 239 61 500 c 1,12,-1
 170 500 l 1,13,-1
 170 238 l 2,14,15
 170 148 170 148 185 117 c 128,-1,16
 200 86 200 86 257.5 86 c 128,-1,17
 315 86 315 86 369 112 c 1,18,-1
 369 500 l 1,19,-1
 477 500 l 1,0,-1
117 607 m 1,20,-1
 117 721 l 1,21,-1
 221 721 l 1,22,-1
 221 607 l 1,23,-1
 117 607 l 1,20,-1
326 607 m 1,24,-1
 326 721 l 1,25,-1
 430 721 l 1,26,-1
 430 607 l 1,27,-1
 326 607 l 1,24,-1
EndSplineSet
EndChar

StartChar: yacute
Encoding: 253 253 190
Width: 492
GlyphClass: 2
Flags: W
LayerCount: 2
Fore
SplineSet
20 500 m 1,0,-1
 127 500 l 1,1,-1
 233 93 l 1,2,-1
 260 93 l 1,3,-1
 366 500 l 1,4,-1
 474 500 l 1,5,-1
 284 -215 l 1,6,-1
 177 -215 l 1,7,-1
 237 0 l 1,8,-1
 151 0 l 1,9,-1
 20 500 l 1,0,-1
136 647 m 1,10,-1
 372 748 l 1,11,-1
 406 654 l 1,12,-1
 162 576 l 1,13,-1
 136 647 l 1,10,-1
EndSplineSet
EndChar

StartChar: thorn
Encoding: 254 254 191
Width: 536
GlyphClass: 2
Flags: W
LayerCount: 2
Fore
SplineSet
258 83 m 0,0,1
 332 83 332 83 357.5 122 c 128,-1,2
 383 161 383 161 383 250.5 c 128,-1,3
 383 340 383 340 360 377 c 128,-1,4
 337 414 337 414 286 414 c 0,5,6
 239 414 239 414 191 399 c 2,7,-1
 175 394 l 1,8,-1
 175 89 l 1,9,10
 228 83 228 83 258 83 c 0,0,1
299 511 m 0,11,12
 403 511 403 511 448 453.5 c 128,-1,13
 493 396 493 396 493 250.5 c 128,-1,14
 493 105 493 105 441.5 47 c 128,-1,15
 390 -11 390 -11 266 -11 c 1,16,-1
 175 -4 l 1,17,-1
 175 -215 l 1,18,-1
 66 -215 l 1,19,-1
 66 708 l 1,20,-1
 175 708 l 1,21,-1
 175 481 l 1,22,23
 244 511 244 511 299 511 c 0,11,12
EndSplineSet
EndChar

StartChar: ydieresis
Encoding: 255 255 192
Width: 492
GlyphClass: 2
Flags: W
LayerCount: 2
Fore
SplineSet
20 500 m 1,0,-1
 127 500 l 1,1,-1
 233 93 l 1,2,-1
 260 93 l 1,3,-1
 366 500 l 1,4,-1
 474 500 l 1,5,-1
 284 -215 l 1,6,-1
 177 -215 l 1,7,-1
 237 0 l 1,8,-1
 151 0 l 1,9,-1
 20 500 l 1,0,-1
90 607 m 1,10,-1
 90 721 l 1,11,-1
 194 721 l 1,12,-1
 194 607 l 1,13,-1
 90 607 l 1,10,-1
299 607 m 1,14,-1
 299 721 l 1,15,-1
 403 721 l 1,16,-1
 403 607 l 1,17,-1
 299 607 l 1,14,-1
EndSplineSet
EndChar

StartChar: Amacron
Encoding: 256 256 193
Width: 599
GlyphClass: 2
Flags: W
LayerCount: 2
Fore
SplineSet
20 0 m 1,0,-1
 189 685 l 1,1,-1
 410 685 l 1,2,-1
 580 0 l 1,3,-1
 468 0 l 1,4,-1
 431 147 l 1,5,-1
 168 147 l 1,6,-1
 131 0 l 1,7,-1
 20 0 l 1,0,-1
275 592 m 1,8,-1
 190 245 l 1,9,-1
 409 245 l 1,10,-1
 325 592 l 1,11,-1
 275 592 l 1,8,-1
131 795 m 1,12,-1
 131 876 l 1,13,-1
 463 876 l 1,14,-1
 463 795 l 1,15,-1
 131 795 l 1,12,-1
EndSplineSet
Position2: "'cpsp' Capital Spacing in Latin lookup 0 subtable" dx=5 dy=0 dh=10 dv=0
EndChar

StartChar: amacron
Encoding: 257 257 194
Width: 507
GlyphClass: 2
Flags: W
LayerCount: 2
Fore
SplineSet
436 346 m 2,0,-1
 436 118 l 1,1,2
 437 96 437 96 447.5 85.5 c 128,-1,3
 458 75 458 75 480 72 c 1,4,-1
 477 -11 l 1,5,6
 391 -11 391 -11 344 26 c 1,7,8
 264 -11 264 -11 183 -11 c 0,9,10
 34 -11 34 -11 34 148 c 0,11,12
 34 224 34 224 74.5 258 c 128,-1,13
 115 292 115 292 199 299 c 2,14,-1
 328 310 l 1,15,-1
 328 346 l 2,16,17
 328 386 328 386 310.5 402 c 128,-1,18
 293 418 293 418 259 418 c 0,19,20
 195 418 195 418 99 410 c 1,21,-1
 67 408 l 1,22,-1
 63 485 l 1,23,24
 172 511 172 511 263.5 511 c 128,-1,25
 355 511 355 511 395.5 471.5 c 128,-1,26
 436 432 436 432 436 346 c 2,0,-1
212 222 m 2,27,28
 143 216 143 216 143 147 c 128,-1,29
 143 78 143 78 204 78 c 0,30,31
 254 78 254 78 310 94 c 1,32,-1
 328 100 l 1,33,-1
 328 233 l 1,34,-1
 212 222 l 2,27,28
109 609 m 1,35,-1
 109 691 l 1,36,-1
 391 691 l 1,37,-1
 391 609 l 1,38,-1
 109 609 l 1,35,-1
EndSplineSet
EndChar

StartChar: Abreve
Encoding: 258 258 195
Width: 599
GlyphClass: 2
Flags: W
LayerCount: 2
Fore
SplineSet
20 0 m 1,0,-1
 189 685 l 1,1,-1
 410 685 l 1,2,-1
 580 0 l 1,3,-1
 468 0 l 1,4,-1
 431 147 l 1,5,-1
 168 147 l 1,6,-1
 131 0 l 1,7,-1
 20 0 l 1,0,-1
275 592 m 1,8,-1
 190 245 l 1,9,-1
 409 245 l 1,10,-1
 325 592 l 1,11,-1
 275 592 l 1,8,-1
244.5 867 m 128,-1,13
 265 849 265 849 297 849 c 128,-1,14
 329 849 329 849 349.5 867 c 128,-1,15
 370 885 370 885 372 914 c 1,16,-1
 471 914 l 1,17,18
 465 849 465 849 420 810 c 128,-1,19
 375 771 375 771 296.5 771 c 128,-1,20
 218 771 218 771 173 810 c 128,-1,21
 128 849 128 849 123 914 c 1,22,-1
 222 914 l 1,23,12
 224 885 224 885 244.5 867 c 128,-1,13
EndSplineSet
Position2: "'cpsp' Capital Spacing in Latin lookup 0 subtable" dx=5 dy=0 dh=10 dv=0
EndChar

StartChar: abreve
Encoding: 259 259 196
Width: 508
GlyphClass: 2
Flags: W
LayerCount: 2
Fore
SplineSet
436 343 m 2,0,-1
 436 131 l 1,1,2
 437 106 437 106 446.5 95.5 c 128,-1,3
 456 85 456 85 479 82 c 1,4,-1
 476 -11 l 1,5,6
 422 -11 422 -11 395 -3 c 128,-1,7
 368 5 368 5 344 25 c 1,8,-1
 320 16 l 2,9,10
 296 7 296 7 254.5 -2 c 128,-1,11
 213 -11 213 -11 177 -11 c 0,12,13
 108 -11 108 -11 71 31 c 128,-1,14
 34 73 34 73 34 149 c 128,-1,15
 34 225 34 225 74 259 c 128,-1,16
 114 293 114 293 199 299 c 1,17,-1
 328 310 l 1,18,-1
 328 342 l 2,19,20
 328 373 328 373 310 390 c 128,-1,21
 292 407 292 407 262 407 c 0,22,23
 188 407 188 407 69 397 c 1,24,-1
 66 490 l 1,25,-1
 100 495 l 2,26,27
 202 510 202 510 268 510 c 0,28,29
 352 510 352 510 394 470.5 c 128,-1,30
 436 431 436 431 436 343 c 2,0,-1
197 82 m 0,31,32
 254 82 254 82 328 104 c 1,33,-1
 328 226 l 1,34,-1
 212 218 l 2,35,36
 143 214 143 214 143 148 c 128,-1,37
 143 82 143 82 197 82 c 0,31,32
253 684 m 128,-1,39
 315 684 315 684 320 741 c 1,40,-1
 432 741 l 1,41,42
 427 672 427 672 381 630 c 128,-1,43
 335 588 335 588 253 588 c 128,-1,44
 171 588 171 588 125 629.5 c 128,-1,45
 79 671 79 671 73 741 c 1,46,-1
 185 741 l 1,47,38
 191 684 191 684 253 684 c 128,-1,39
EndSplineSet
EndChar

StartChar: Aogonek
Encoding: 260 260 197
Width: 599
GlyphClass: 2
Flags: W
LayerCount: 2
Fore
SplineSet
504 -91.5 m 128,-1,1
 504 -107 504 -107 514 -117.5 c 128,-1,2
 524 -128 524 -128 540 -128 c 1,3,-1
 585 -123 l 1,4,-1
 595 -202 l 1,5,6
 542 -212 542 -212 500.5 -212 c 128,-1,7
 459 -212 459 -212 430.5 -187 c 128,-1,8
 402 -162 402 -162 402 -119 c 0,9,10
 402 -59 402 -59 470 0 c 1,11,-1
 468 0 l 1,12,-1
 431 147 l 1,13,-1
 168 147 l 1,14,-1
 131 0 l 1,15,-1
 20 0 l 1,16,-1
 189 685 l 1,17,-1
 410 685 l 1,18,-1
 580 0 l 1,19,-1
 566 0 l 1,20,21
 544 -15 544 -15 524 -45.5 c 128,-1,0
 504 -76 504 -76 504 -91.5 c 128,-1,1
275 592 m 1,22,-1
 190 245 l 1,23,-1
 409 245 l 1,24,-1
 325 592 l 1,25,-1
 275 592 l 1,22,-1
EndSplineSet
Position2: "'cpsp' Capital Spacing in Latin lookup 0 subtable" dx=5 dy=0 dh=10 dv=0
EndChar

StartChar: aogonek
Encoding: 261 261 198
Width: 506
GlyphClass: 2
Flags: W
LayerCount: 2
Fore
SplineSet
436 346 m 2,0,-1
 436 118 l 1,1,2
 437 96 437 96 447.5 85.5 c 128,-1,3
 458 75 458 75 480 72 c 1,4,-1
 477 -11 l 1,5,6
 452 -11 452 -11 441 -10 c 1,7,8
 389 -62 389 -62 389 -90 c 0,9,10
 389 -107 389 -107 399 -117.5 c 128,-1,11
 409 -128 409 -128 425 -128 c 1,12,-1
 470 -123 l 1,13,-1
 480 -202 l 1,14,15
 427 -212 427 -212 385.5 -212 c 128,-1,16
 344 -212 344 -212 315.5 -187 c 128,-1,17
 287 -162 287 -162 287 -124.5 c 128,-1,18
 287 -87 287 -87 307.5 -55 c 128,-1,19
 328 -23 328 -23 348 -6 c 2,20,-1
 368 10 l 1,21,22
 355 17 355 17 344 26 c 1,23,24
 264 -11 264 -11 183 -11 c 0,25,26
 34 -11 34 -11 34 148 c 0,27,28
 34 224 34 224 74.5 258 c 128,-1,29
 115 292 115 292 199 299 c 2,30,-1
 328 310 l 1,31,-1
 328 346 l 2,32,33
 328 386 328 386 310.5 402 c 128,-1,34
 293 418 293 418 259 418 c 0,35,36
 195 418 195 418 99 410 c 1,37,-1
 67 408 l 1,38,-1
 63 485 l 1,39,40
 172 511 172 511 263.5 511 c 128,-1,41
 355 511 355 511 395.5 471.5 c 128,-1,42
 436 432 436 432 436 346 c 2,0,-1
212 222 m 2,43,44
 143 216 143 216 143 147 c 128,-1,45
 143 78 143 78 204 78 c 0,46,47
 254 78 254 78 310 94 c 1,48,-1
 328 100 l 1,49,-1
 328 233 l 1,50,-1
 212 222 l 2,43,44
EndSplineSet
EndChar

StartChar: Cacute
Encoding: 262 262 199
Width: 544
GlyphClass: 2
Flags: W
LayerCount: 2
Fore
SplineSet
309 -11 m 0,0,1
 159 -11 159 -11 105.5 72 c 128,-1,2
 52 155 52 155 52 345 c 128,-1,3
 52 535 52 535 106 615.5 c 128,-1,4
 160 696 160 696 309 696 c 0,5,6
 398 696 398 696 505 671 c 1,7,-1
 501 581 l 1,8,9
 411 597 411 597 321 597 c 128,-1,10
 231 597 231 597 199 543.5 c 128,-1,11
 167 490 167 490 167 342.5 c 128,-1,12
 167 195 167 195 198 141.5 c 128,-1,13
 229 88 229 88 319 88 c 128,-1,14
 409 88 409 88 501 103 c 1,15,-1
 504 11 l 1,16,17
 401 -11 401 -11 309 -11 c 0,0,1
162 836 m 1,18,-1
 398 939 l 1,19,-1
 433 842 l 1,20,-1
 190 760 l 1,21,-1
 162 836 l 1,18,-1
EndSplineSet
Position2: "'cpsp' Capital Spacing in Latin lookup 0 subtable" dx=5 dy=0 dh=10 dv=0
EndChar

StartChar: cacute
Encoding: 263 263 200
Width: 442
GlyphClass: 2
Flags: W
LayerCount: 2
Fore
SplineSet
253 511 m 0,0,1
 306 511 306 511 378 497 c 2,2,-1
 403 492 l 1,3,-1
 399 406 l 1,4,5
 320 414 320 414 282 414 c 0,6,7
 206 414 206 414 180 380 c 128,-1,8
 154 346 154 346 154 252 c 128,-1,9
 154 158 154 158 179 122 c 128,-1,10
 204 86 204 86 283 86 c 1,11,-1
 400 94 l 1,12,-1
 403 7 l 1,13,14
 302 -11 302 -11 251 -11 c 0,15,16
 137 -11 137 -11 90.5 50.5 c 128,-1,17
 44 112 44 112 44 252 c 128,-1,18
 44 392 44 392 93 451.5 c 128,-1,19
 142 511 142 511 253 511 c 0,0,1
110 647 m 1,20,-1
 346 748 l 1,21,-1
 380 654 l 1,22,-1
 136 576 l 1,23,-1
 110 647 l 1,20,-1
EndSplineSet
EndChar

StartChar: Ccircumflex
Encoding: 264 264 201
Width: 544
GlyphClass: 2
Flags: W
LayerCount: 2
Fore
SplineSet
309 -11 m 0,0,1
 159 -11 159 -11 105.5 72 c 128,-1,2
 52 155 52 155 52 345 c 128,-1,3
 52 535 52 535 106 615.5 c 128,-1,4
 160 696 160 696 309 696 c 0,5,6
 398 696 398 696 505 671 c 1,7,-1
 501 581 l 1,8,9
 411 597 411 597 321 597 c 128,-1,10
 231 597 231 597 199 543.5 c 128,-1,11
 167 490 167 490 167 342.5 c 128,-1,12
 167 195 167 195 198 141.5 c 128,-1,13
 229 88 229 88 319 88 c 128,-1,14
 409 88 409 88 501 103 c 1,15,-1
 504 11 l 1,16,17
 401 -11 401 -11 309 -11 c 0,0,1
123 776 m 1,18,-1
 257 919 l 1,19,-1
 351 919 l 1,20,-1
 485 776 l 1,21,-1
 369 776 l 1,22,-1
 305 843 l 1,23,-1
 240 776 l 1,24,-1
 123 776 l 1,18,-1
EndSplineSet
Position2: "'cpsp' Capital Spacing in Latin lookup 0 subtable" dx=5 dy=0 dh=10 dv=0
EndChar

StartChar: ccircumflex
Encoding: 265 265 202
Width: 442
GlyphClass: 2
Flags: W
LayerCount: 2
Fore
SplineSet
253 511 m 0,0,1
 306 511 306 511 378 497 c 2,2,-1
 403 492 l 1,3,-1
 399 406 l 1,4,5
 320 414 320 414 282 414 c 0,6,7
 206 414 206 414 180 380 c 128,-1,8
 154 346 154 346 154 252 c 128,-1,9
 154 158 154 158 179 122 c 128,-1,10
 204 86 204 86 283 86 c 1,11,-1
 400 94 l 1,12,-1
 403 7 l 1,13,14
 302 -11 302 -11 251 -11 c 0,15,16
 137 -11 137 -11 90.5 50.5 c 128,-1,17
 44 112 44 112 44 252 c 128,-1,18
 44 392 44 392 93 451.5 c 128,-1,19
 142 511 142 511 253 511 c 0,0,1
66 585 m 1,20,-1
 191 731 l 1,21,-1
 260 731 l 1,22,-1
 387 585 l 1,23,-1
 285 585 l 1,24,-1
 227 661 l 1,25,-1
 169 585 l 1,26,-1
 66 585 l 1,20,-1
EndSplineSet
EndChar

StartChar: Cdotaccent
Encoding: 266 266 203
Width: 544
GlyphClass: 2
Flags: W
LayerCount: 2
Fore
SplineSet
309 -11 m 0,0,1
 159 -11 159 -11 105.5 72 c 128,-1,2
 52 155 52 155 52 345 c 128,-1,3
 52 535 52 535 106 615.5 c 128,-1,4
 160 696 160 696 309 696 c 0,5,6
 398 696 398 696 505 671 c 1,7,-1
 501 581 l 1,8,9
 411 597 411 597 321 597 c 128,-1,10
 231 597 231 597 199 543.5 c 128,-1,11
 167 490 167 490 167 342.5 c 128,-1,12
 167 195 167 195 198 141.5 c 128,-1,13
 229 88 229 88 319 88 c 128,-1,14
 409 88 409 88 501 103 c 1,15,-1
 504 11 l 1,16,17
 401 -11 401 -11 309 -11 c 0,0,1
235 777 m 1,18,-1
 235 891 l 1,19,-1
 343 891 l 1,20,-1
 343 777 l 1,21,-1
 235 777 l 1,18,-1
EndSplineSet
Position2: "'cpsp' Capital Spacing in Latin lookup 0 subtable" dx=5 dy=0 dh=10 dv=0
EndChar

StartChar: cdotaccent
Encoding: 267 267 204
Width: 442
GlyphClass: 2
Flags: W
LayerCount: 2
Fore
SplineSet
253 511 m 0,0,1
 306 511 306 511 378 497 c 2,2,-1
 403 492 l 1,3,-1
 399 406 l 1,4,5
 320 414 320 414 282 414 c 0,6,7
 206 414 206 414 180 380 c 128,-1,8
 154 346 154 346 154 252 c 128,-1,9
 154 158 154 158 179 122 c 128,-1,10
 204 86 204 86 283 86 c 1,11,-1
 400 94 l 1,12,-1
 403 7 l 1,13,14
 302 -11 302 -11 251 -11 c 0,15,16
 137 -11 137 -11 90.5 50.5 c 128,-1,17
 44 112 44 112 44 252 c 128,-1,18
 44 392 44 392 93 451.5 c 128,-1,19
 142 511 142 511 253 511 c 0,0,1
200 579 m 1,20,-1
 200 693 l 1,21,-1
 308 693 l 1,22,-1
 308 579 l 1,23,-1
 200 579 l 1,20,-1
EndSplineSet
EndChar

StartChar: Ccaron
Encoding: 268 268 205
Width: 544
GlyphClass: 2
Flags: W
LayerCount: 2
Fore
SplineSet
309 -11 m 0,0,1
 159 -11 159 -11 105.5 72 c 128,-1,2
 52 155 52 155 52 345 c 128,-1,3
 52 535 52 535 106 615.5 c 128,-1,4
 160 696 160 696 309 696 c 0,5,6
 398 696 398 696 505 671 c 1,7,-1
 501 581 l 1,8,9
 411 597 411 597 321 597 c 128,-1,10
 231 597 231 597 199 543.5 c 128,-1,11
 167 490 167 490 167 342.5 c 128,-1,12
 167 195 167 195 198 141.5 c 128,-1,13
 229 88 229 88 319 88 c 128,-1,14
 409 88 409 88 501 103 c 1,15,-1
 504 11 l 1,16,17
 401 -11 401 -11 309 -11 c 0,0,1
259 776 m 1,18,-1
 125 919 l 1,19,-1
 242 919 l 1,20,-1
 307 853 l 1,21,-1
 370 919 l 1,22,-1
 487 919 l 1,23,-1
 353 776 l 1,24,-1
 259 776 l 1,18,-1
EndSplineSet
Position2: "'cpsp' Capital Spacing in Latin lookup 0 subtable" dx=5 dy=0 dh=10 dv=0
EndChar

StartChar: ccaron
Encoding: 269 269 206
Width: 442
GlyphClass: 2
Flags: W
LayerCount: 2
Fore
SplineSet
253 511 m 0,0,1
 306 511 306 511 378 497 c 2,2,-1
 403 492 l 1,3,-1
 399 406 l 1,4,5
 320 414 320 414 282 414 c 0,6,7
 206 414 206 414 180 380 c 128,-1,8
 154 346 154 346 154 252 c 128,-1,9
 154 158 154 158 179 122 c 128,-1,10
 204 86 204 86 283 86 c 1,11,-1
 400 94 l 1,12,-1
 403 7 l 1,13,14
 302 -11 302 -11 251 -11 c 0,15,16
 137 -11 137 -11 90.5 50.5 c 128,-1,17
 44 112 44 112 44 252 c 128,-1,18
 44 392 44 392 93 451.5 c 128,-1,19
 142 511 142 511 253 511 c 0,0,1
205 585 m 1,20,-1
 80 731 l 1,21,-1
 182 731 l 1,22,-1
 241 656 l 1,23,-1
 299 731 l 1,24,-1
 401 731 l 1,25,-1
 274 585 l 1,26,-1
 205 585 l 1,20,-1
EndSplineSet
EndChar

StartChar: Dcaron
Encoding: 270 270 207
Width: 641
GlyphClass: 2
Flags: W
LayerCount: 2
Fore
SplineSet
316 0 m 2,0,-1
 79 0 l 1,1,-1
 79 685 l 1,2,-1
 316 685 l 2,3,4
 474 685 474 685 532 605 c 128,-1,5
 590 525 590 525 590 354 c 0,6,7
 590 267 590 267 578.5 206.5 c 128,-1,8
 567 146 567 146 538 97 c 0,9,10
 481 0 481 0 316 0 c 2,0,-1
475 354 m 0,11,12
 475 478 475 478 444 533 c 128,-1,13
 413 588 413 588 316 588 c 2,14,-1
 190 588 l 1,15,-1
 190 98 l 1,16,-1
 316 98 l 2,17,18
 415 98 415 98 448 171 c 0,19,20
 464 208 464 208 469.5 250 c 128,-1,21
 475 292 475 292 475 354 c 0,11,12
253 776 m 1,22,-1
 119 919 l 1,23,-1
 236 919 l 1,24,-1
 301 853 l 1,25,-1
 364 919 l 1,26,-1
 481 919 l 1,27,-1
 347 776 l 1,28,-1
 253 776 l 1,22,-1
EndSplineSet
Position2: "'cpsp' Capital Spacing in Latin lookup 0 subtable" dx=5 dy=0 dh=10 dv=0
EndChar

StartChar: dcaron
Encoding: 271 271 208
Width: 625
GlyphClass: 2
Flags: W
LayerCount: 2
Fore
SplineSet
576 680 m 1,0,-1
 682 680 l 1,1,-1
 629 458 l 1,2,-1
 533 458 l 1,3,-1
 576 680 l 1,0,-1
474 708 m 1,4,-1
 474 0 l 1,5,-1
 366 0 l 1,6,-1
 366 26 l 1,7,8
 293 -11 293 -11 232 -11 c 0,9,10
 134 -11 134 -11 88.5 48 c 128,-1,11
 43 107 43 107 43 246 c 128,-1,12
 43 385 43 385 93.5 448 c 128,-1,13
 144 511 144 511 251 511 c 0,14,15
 287 511 287 511 365 498 c 1,16,-1
 365 708 l 1,17,-1
 474 708 l 1,4,-1
348 104 m 2,18,-1
 365 111 l 1,19,-1
 365 407 l 1,20,21
 305 417 305 417 254 417 c 0,22,23
 153 417 153 417 153 249 c 0,24,25
 153 157 153 157 176.5 121.5 c 128,-1,26
 200 86 200 86 251 86 c 128,-1,27
 302 86 302 86 348 104 c 2,18,-1
EndSplineSet
EndChar

StartChar: Dcroat
Encoding: 272 272 209
Width: 644
GlyphClass: 2
Flags: W
LayerCount: 2
Fore
SplineSet
23 292 m 1,0,-1
 23 398 l 1,1,-1
 83 398 l 1,2,-1
 83 693 l 1,3,-1
 318 693 l 2,4,5
 480 693 480 693 539 606 c 0,6,7
 569 561 569 561 581 502.5 c 128,-1,8
 593 444 593 444 593 357.5 c 128,-1,9
 593 271 593 271 581.5 209.5 c 128,-1,10
 570 148 570 148 541 98 c 0,11,12
 483 0 483 0 318 0 c 2,13,-1
 83 0 l 1,14,-1
 83 292 l 1,15,-1
 23 292 l 1,0,-1
478 359 m 0,16,17
 478 478 478 478 446.5 532.5 c 128,-1,18
 415 587 415 587 318 587 c 2,19,-1
 193 587 l 1,20,-1
 193 398 l 1,21,-1
 335 398 l 1,22,-1
 335 292 l 1,23,-1
 193 292 l 1,24,-1
 193 106 l 1,25,-1
 318 106 l 2,26,27
 418 106 418 106 450 179 c 0,28,29
 467 216 467 216 472.5 257 c 128,-1,30
 478 298 478 298 478 359 c 0,16,17
EndSplineSet
Position2: "'cpsp' Capital Spacing in Latin lookup 0 subtable" dx=5 dy=0 dh=10 dv=0
EndChar

StartChar: dcroat
Encoding: 273 273 210
Width: 540
GlyphClass: 2
Flags: W
LayerCount: 2
Fore
SplineSet
155 622 m 1,0,-1
 155 716 l 1,1,-1
 466 716 l 1,2,-1
 466 708 l 1,3,-1
 474 708 l 1,4,-1
 474 0 l 1,5,-1
 366 0 l 1,6,-1
 366 26 l 1,7,8
 293 -11 293 -11 232 -11 c 0,9,10
 134 -11 134 -11 88.5 48 c 128,-1,11
 43 107 43 107 43 246 c 128,-1,12
 43 385 43 385 93.5 448 c 128,-1,13
 144 511 144 511 251 511 c 0,14,15
 287 511 287 511 365 498 c 1,16,-1
 365 622 l 1,17,-1
 155 622 l 1,0,-1
348 104 m 2,18,-1
 365 111 l 1,19,-1
 365 407 l 1,20,21
 305 417 305 417 254 417 c 0,22,23
 153 417 153 417 153 249 c 0,24,25
 153 157 153 157 176.5 121.5 c 128,-1,26
 200 86 200 86 251 86 c 128,-1,27
 302 86 302 86 348 104 c 2,18,-1
EndSplineSet
EndChar

StartChar: Emacron
Encoding: 274 274 211
Width: 553
GlyphClass: 2
Flags: W
LayerCount: 2
Fore
SplineSet
79 0 m 1,0,-1
 79 685 l 1,1,-1
 511 685 l 1,2,-1
 511 588 l 1,3,-1
 190 588 l 1,4,-1
 190 394 l 1,5,-1
 451 394 l 1,6,-1
 451 298 l 1,7,-1
 190 298 l 1,8,-1
 190 98 l 1,9,-1
 511 98 l 1,10,-1
 511 0 l 1,11,-1
 79 0 l 1,0,-1
125 795 m 1,12,-1
 125 876 l 1,13,-1
 457 876 l 1,14,-1
 457 795 l 1,15,-1
 125 795 l 1,12,-1
EndSplineSet
Position2: "'cpsp' Capital Spacing in Latin lookup 0 subtable" dx=5 dy=0 dh=10 dv=0
EndChar

StartChar: emacron
Encoding: 275 275 212
Width: 508
GlyphClass: 2
Flags: W
LayerCount: 2
Fore
SplineSet
422 90 m 1,0,-1
 450 93 l 1,1,-1
 452 12 l 1,2,3
 338 -11 338 -11 250 -11 c 0,4,5
 139 -11 139 -11 90.5 50 c 128,-1,6
 42 111 42 111 42 245 c 0,7,8
 42 511 42 511 259 511 c 0,9,10
 469 511 469 511 469 282 c 1,11,-1
 462 204 l 1,12,-1
 152 204 l 1,13,14
 153 142 153 142 179 113 c 128,-1,15
 205 84 205 84 276 84 c 128,-1,16
 347 84 347 84 422 90 c 1,0,-1
362 288 m 1,17,18
 362 362 362 362 338.5 391.5 c 128,-1,19
 315 421 315 421 259 421 c 128,-1,20
 203 421 203 421 177.5 390 c 128,-1,21
 152 359 152 359 151 288 c 1,22,-1
 362 288 l 1,17,18
117 609 m 1,23,-1
 117 691 l 1,24,-1
 399 691 l 1,25,-1
 399 609 l 1,26,-1
 117 609 l 1,23,-1
EndSplineSet
EndChar

StartChar: Ebreve
Encoding: 276 276 213
Width: 553
GlyphClass: 2
Flags: W
LayerCount: 2
Fore
SplineSet
79 0 m 1,0,-1
 79 685 l 1,1,-1
 511 685 l 1,2,-1
 511 588 l 1,3,-1
 190 588 l 1,4,-1
 190 394 l 1,5,-1
 451 394 l 1,6,-1
 451 298 l 1,7,-1
 190 298 l 1,8,-1
 190 98 l 1,9,-1
 511 98 l 1,10,-1
 511 0 l 1,11,-1
 79 0 l 1,0,-1
249.5 867 m 128,-1,13
 270 849 270 849 302 849 c 128,-1,14
 334 849 334 849 354.5 867 c 128,-1,15
 375 885 375 885 377 914 c 1,16,-1
 476 914 l 1,17,18
 470 849 470 849 425 810 c 128,-1,19
 380 771 380 771 301.5 771 c 128,-1,20
 223 771 223 771 178 810 c 128,-1,21
 133 849 133 849 128 914 c 1,22,-1
 227 914 l 1,23,12
 229 885 229 885 249.5 867 c 128,-1,13
EndSplineSet
Position2: "'cpsp' Capital Spacing in Latin lookup 0 subtable" dx=5 dy=0 dh=10 dv=0
EndChar

StartChar: ebreve
Encoding: 277 277 214
Width: 508
GlyphClass: 2
Flags: W
LayerCount: 2
Fore
SplineSet
422 90 m 1,0,-1
 450 93 l 1,1,-1
 452 12 l 1,2,3
 338 -11 338 -11 250 -11 c 0,4,5
 139 -11 139 -11 90.5 50 c 128,-1,6
 42 111 42 111 42 245 c 0,7,8
 42 511 42 511 259 511 c 0,9,10
 469 511 469 511 469 282 c 1,11,-1
 462 204 l 1,12,-1
 152 204 l 1,13,14
 153 142 153 142 179 113 c 128,-1,15
 205 84 205 84 276 84 c 128,-1,16
 347 84 347 84 422 90 c 1,0,-1
362 288 m 1,17,18
 362 362 362 362 338.5 391.5 c 128,-1,19
 315 421 315 421 259 421 c 128,-1,20
 203 421 203 421 177.5 390 c 128,-1,21
 152 359 152 359 151 288 c 1,22,-1
 362 288 l 1,17,18
206.5 674 m 128,-1,24
 226 654 226 654 258.5 654 c 128,-1,25
 291 654 291 654 310 674.5 c 128,-1,26
 329 695 329 695 331 728 c 1,27,-1
 415 728 l 1,28,29
 409 665 409 665 367.5 622 c 128,-1,30
 326 579 326 579 258 579 c 128,-1,31
 190 579 190 579 148 622 c 128,-1,32
 106 665 106 665 100 728 c 1,33,-1
 184 728 l 1,34,23
 187 694 187 694 206.5 674 c 128,-1,24
EndSplineSet
EndChar

StartChar: Edotaccent
Encoding: 278 278 215
Width: 553
GlyphClass: 2
Flags: W
LayerCount: 2
Fore
SplineSet
79 0 m 1,0,-1
 79 685 l 1,1,-1
 511 685 l 1,2,-1
 511 588 l 1,3,-1
 190 588 l 1,4,-1
 190 394 l 1,5,-1
 451 394 l 1,6,-1
 451 298 l 1,7,-1
 190 298 l 1,8,-1
 190 98 l 1,9,-1
 511 98 l 1,10,-1
 511 0 l 1,11,-1
 79 0 l 1,0,-1
244 782 m 1,12,-1
 244 896 l 1,13,-1
 352 896 l 1,14,-1
 352 782 l 1,15,-1
 244 782 l 1,12,-1
EndSplineSet
Position2: "'cpsp' Capital Spacing in Latin lookup 0 subtable" dx=5 dy=0 dh=10 dv=0
EndChar

StartChar: edotaccent
Encoding: 279 279 216
Width: 508
GlyphClass: 2
Flags: W
LayerCount: 2
Fore
SplineSet
422 90 m 1,0,-1
 450 93 l 1,1,-1
 452 12 l 1,2,3
 338 -11 338 -11 250 -11 c 0,4,5
 139 -11 139 -11 90.5 50 c 128,-1,6
 42 111 42 111 42 245 c 0,7,8
 42 511 42 511 259 511 c 0,9,10
 469 511 469 511 469 282 c 1,11,-1
 462 204 l 1,12,-1
 152 204 l 1,13,14
 153 142 153 142 179 113 c 128,-1,15
 205 84 205 84 276 84 c 128,-1,16
 347 84 347 84 422 90 c 1,0,-1
362 288 m 1,17,18
 362 362 362 362 338.5 391.5 c 128,-1,19
 315 421 315 421 259 421 c 128,-1,20
 203 421 203 421 177.5 390 c 128,-1,21
 152 359 152 359 151 288 c 1,22,-1
 362 288 l 1,17,18
201 579 m 1,23,-1
 201 693 l 1,24,-1
 309 693 l 1,25,-1
 309 579 l 1,26,-1
 201 579 l 1,23,-1
EndSplineSet
EndChar

StartChar: Eogonek
Encoding: 280 280 217
Width: 553
GlyphClass: 2
Flags: W
LayerCount: 2
Fore
SplineSet
79 0 m 1,0,-1
 79 685 l 1,1,-1
 511 685 l 1,2,-1
 511 588 l 1,3,-1
 190 588 l 1,4,-1
 190 394 l 1,5,-1
 451 394 l 1,6,-1
 451 298 l 1,7,-1
 190 298 l 1,8,-1
 190 98 l 1,9,-1
 511 98 l 1,10,-1
 511 0 l 1,11,-1
 482 0 l 1,12,13
 460 -15 460 -15 440 -45.5 c 128,-1,14
 420 -76 420 -76 420 -91.5 c 128,-1,15
 420 -107 420 -107 430 -117.5 c 128,-1,16
 440 -128 440 -128 456 -128 c 1,17,-1
 501 -123 l 1,18,-1
 511 -202 l 1,19,20
 458 -212 458 -212 416.5 -212 c 128,-1,21
 375 -212 375 -212 346.5 -187 c 128,-1,22
 318 -162 318 -162 318 -119 c 0,23,24
 318 -59 318 -59 386 0 c 1,25,-1
 79 0 l 1,0,-1
EndSplineSet
Position2: "'cpsp' Capital Spacing in Latin lookup 0 subtable" dx=5 dy=0 dh=10 dv=0
EndChar

StartChar: eogonek
Encoding: 281 281 218
Width: 509
GlyphClass: 2
Flags: W
LayerCount: 2
Fore
SplineSet
346 -90 m 0,0,1
 346 -107 346 -107 356 -117.5 c 128,-1,2
 366 -128 366 -128 382 -128 c 1,3,-1
 427 -123 l 1,4,-1
 437 -202 l 1,5,6
 384 -212 384 -212 342.5 -212 c 128,-1,7
 301 -212 301 -212 272.5 -187 c 128,-1,8
 244 -162 244 -162 244 -113.5 c 128,-1,9
 244 -65 244 -65 303 -8 c 1,10,11
 274 -11 274 -11 250 -11 c 0,12,13
 139 -11 139 -11 90.5 50 c 128,-1,14
 42 111 42 111 42 245 c 0,15,16
 42 511 42 511 259 511 c 0,17,18
 469 511 469 511 469 282 c 1,19,-1
 462 204 l 1,20,-1
 152 204 l 1,21,22
 153 142 153 142 179 113 c 128,-1,23
 205 84 205 84 266 84 c 0,24,25
 347 84 347 84 422 90 c 1,26,-1
 450 93 l 1,27,-1
 452 12 l 1,28,29
 428 7 428 7 397 2 c 1,30,-1
 410 1 l 1,31,32
 346 -56 346 -56 346 -90 c 0,0,1
362 288 m 1,33,34
 362 362 362 362 338.5 391.5 c 128,-1,35
 315 421 315 421 259 421 c 128,-1,36
 203 421 203 421 177.5 390 c 128,-1,37
 152 359 152 359 151 288 c 1,38,-1
 362 288 l 1,33,34
EndSplineSet
EndChar

StartChar: Ecaron
Encoding: 282 282 219
Width: 553
GlyphClass: 2
Flags: W
LayerCount: 2
Fore
SplineSet
79 0 m 1,0,-1
 79 685 l 1,1,-1
 511 685 l 1,2,-1
 511 588 l 1,3,-1
 190 588 l 1,4,-1
 190 394 l 1,5,-1
 451 394 l 1,6,-1
 451 298 l 1,7,-1
 190 298 l 1,8,-1
 190 98 l 1,9,-1
 511 98 l 1,10,-1
 511 0 l 1,11,-1
 79 0 l 1,0,-1
237 776 m 1,12,-1
 103 919 l 1,13,-1
 220 919 l 1,14,-1
 285 853 l 1,15,-1
 348 919 l 1,16,-1
 465 919 l 1,17,-1
 331 776 l 1,18,-1
 237 776 l 1,12,-1
EndSplineSet
Position2: "'cpsp' Capital Spacing in Latin lookup 0 subtable" dx=5 dy=0 dh=10 dv=0
EndChar

StartChar: ecaron
Encoding: 283 283 220
Width: 508
GlyphClass: 2
Flags: W
LayerCount: 2
Fore
SplineSet
422 90 m 1,0,-1
 450 93 l 1,1,-1
 452 12 l 1,2,3
 338 -11 338 -11 250 -11 c 0,4,5
 139 -11 139 -11 90.5 50 c 128,-1,6
 42 111 42 111 42 245 c 0,7,8
 42 511 42 511 259 511 c 0,9,10
 469 511 469 511 469 282 c 1,11,-1
 462 204 l 1,12,-1
 152 204 l 1,13,14
 153 142 153 142 179 113 c 128,-1,15
 205 84 205 84 276 84 c 128,-1,16
 347 84 347 84 422 90 c 1,0,-1
362 288 m 1,17,18
 362 362 362 362 338.5 391.5 c 128,-1,19
 315 421 315 421 259 421 c 128,-1,20
 203 421 203 421 177.5 390 c 128,-1,21
 152 359 152 359 151 288 c 1,22,-1
 362 288 l 1,17,18
218 585 m 1,23,-1
 93 731 l 1,24,-1
 195 731 l 1,25,-1
 254 656 l 1,26,-1
 312 731 l 1,27,-1
 414 731 l 1,28,-1
 287 585 l 1,29,-1
 218 585 l 1,23,-1
EndSplineSet
EndChar

StartChar: Gcircumflex
Encoding: 284 284 221
Width: 613
GlyphClass: 2
Flags: W
LayerCount: 2
Fore
SplineSet
358 263 m 1,0,-1
 358 361 l 1,1,-1
 553 361 l 1,2,-1
 553 13 l 1,3,4
 526 6 526 6 443.5 -2 c 128,-1,5
 361 -10 361 -10 324 -10 c 0,6,7
 168 -10 168 -10 109 76 c 128,-1,8
 50 162 50 162 50 345.5 c 128,-1,9
 50 529 50 529 110.5 613 c 128,-1,10
 171 697 171 697 320 697 c 0,11,12
 418 697 418 697 518 677 c 2,13,-1
 553 670 l 1,14,-1
 549 582 l 1,15,16
 428 598 428 598 332 598 c 128,-1,17
 236 598 236 598 200.5 544 c 128,-1,18
 165 490 165 490 165 344 c 128,-1,19
 165 198 165 198 198.5 142.5 c 128,-1,20
 232 87 232 87 334 87 c 0,21,22
 407 87 407 87 443 96 c 1,23,-1
 443 263 l 1,24,-1
 358 263 l 1,0,-1
145 775 m 1,25,-1
 279 918 l 1,26,-1
 373 918 l 1,27,-1
 507 775 l 1,28,-1
 391 775 l 1,29,-1
 327 842 l 1,30,-1
 262 775 l 1,31,-1
 145 775 l 1,25,-1
EndSplineSet
Position2: "'cpsp' Capital Spacing in Latin lookup 0 subtable" dx=5 dy=0 dh=10 dv=0
EndChar

StartChar: gcircumflex
Encoding: 285 285 222
Width: 525
GlyphClass: 2
Flags: W
LayerCount: 2
Fore
SplineSet
503 -68 m 0,0,1
 503 -232 503 -232 266 -232 c 0,2,3
 152 -232 152 -232 97 -201 c 128,-1,4
 42 -170 42 -170 42 -88 c 0,5,6
 42 -51 42 -51 60 -24.5 c 128,-1,7
 78 2 78 2 118 33 c 1,8,9
 85 55 85 55 85 106 c 0,10,11
 85 126 85 126 112 171 c 2,12,-1
 121 186 l 1,13,14
 49 229 49 229 49 336 c 0,15,16
 49 426 49 426 103 468 c 128,-1,17
 157 510 157 510 249 510 c 0,18,19
 293 510 293 510 336 500 c 1,20,-1
 351 497 l 1,21,-1
 506 501 l 1,22,-1
 506 413 l 1,23,-1
 423 418 l 1,24,25
 450 383 450 383 450 336 c 0,26,27
 450 238 450 238 400.5 200.5 c 128,-1,28
 351 163 351 163 246 163 c 0,29,30
 220 163 220 163 202 167 c 1,31,32
 188 133 188 133 188 114.5 c 128,-1,33
 188 96 188 96 206.5 89 c 128,-1,34
 225 82 225 82 296 81 c 0,35,36
 415 80 415 80 459 49 c 128,-1,37
 503 18 503 18 503 -68 c 0,0,1
149 -78 m 0,38,39
 149 -113 149 -113 177 -128 c 128,-1,40
 205 -143 205 -143 273 -143 c 0,41,42
 394 -143 394 -143 394 -74 c 0,43,44
 394 -35 394 -35 372.5 -24.5 c 128,-1,45
 351 -14 351 -14 287 -13 c 1,46,-1
 189 -7 l 1,47,48
 167 -25 167 -25 158 -40.5 c 128,-1,49
 149 -56 149 -56 149 -78 c 0,38,39
179 268.5 m 128,-1,51
 201 247 201 247 250 247 c 128,-1,52
 299 247 299 247 320.5 268.5 c 128,-1,53
 342 290 342 290 342 336 c 128,-1,54
 342 382 342 382 320 403.5 c 128,-1,55
 298 425 298 425 249 425 c 0,56,57
 157 425 157 425 157 336 c 0,58,50
 157 290 157 290 179 268.5 c 128,-1,51
107 585 m 1,59,-1
 232 731 l 1,60,-1
 301 731 l 1,61,-1
 428 585 l 1,62,-1
 326 585 l 1,63,-1
 268 661 l 1,64,-1
 210 585 l 1,65,-1
 107 585 l 1,59,-1
EndSplineSet
EndChar

StartChar: Gbreve
Encoding: 286 286 223
Width: 613
GlyphClass: 2
Flags: W
LayerCount: 2
Fore
SplineSet
358 262 m 1,0,-1
 358 360 l 1,1,-1
 553 360 l 1,2,-1
 553 12 l 1,3,4
 526 5 526 5 443.5 -3 c 128,-1,5
 361 -11 361 -11 324 -11 c 0,6,7
 168 -11 168 -11 109 75 c 128,-1,8
 50 161 50 161 50 344.5 c 128,-1,9
 50 528 50 528 110.5 612 c 128,-1,10
 171 696 171 696 320 696 c 0,11,12
 408 696 408 696 518 676 c 1,13,-1
 553 669 l 1,14,-1
 549 581 l 1,15,16
 428 597 428 597 332 597 c 128,-1,17
 236 597 236 597 200.5 543 c 128,-1,18
 165 489 165 489 165 343 c 128,-1,19
 165 197 165 197 198.5 141.5 c 128,-1,20
 232 86 232 86 334 86 c 0,21,22
 407 86 407 86 443 95 c 1,23,-1
 443 262 l 1,24,-1
 358 262 l 1,0,-1
272.5 867 m 128,-1,26
 293 849 293 849 325 849 c 128,-1,27
 357 849 357 849 377.5 867 c 128,-1,28
 398 885 398 885 400 914 c 1,29,-1
 499 914 l 1,30,31
 493 849 493 849 448 810 c 128,-1,32
 403 771 403 771 324.5 771 c 128,-1,33
 246 771 246 771 201 810 c 128,-1,34
 156 849 156 849 151 914 c 1,35,-1
 250 914 l 1,36,25
 252 885 252 885 272.5 867 c 128,-1,26
EndSplineSet
Position2: "'cpsp' Capital Spacing in Latin lookup 0 subtable" dx=5 dy=0 dh=10 dv=0
EndChar

StartChar: gbreve
Encoding: 287 287 224
Width: 525
GlyphClass: 2
Flags: W
LayerCount: 2
Fore
SplineSet
503 -68 m 0,0,1
 503 -232 503 -232 266 -232 c 0,2,3
 152 -232 152 -232 97 -201 c 128,-1,4
 42 -170 42 -170 42 -88 c 0,5,6
 42 -51 42 -51 60 -24.5 c 128,-1,7
 78 2 78 2 118 33 c 1,8,9
 85 55 85 55 85 106 c 0,10,11
 85 126 85 126 112 171 c 2,12,-1
 121 186 l 1,13,14
 49 229 49 229 49 336 c 0,15,16
 49 426 49 426 103 468 c 128,-1,17
 157 510 157 510 249 510 c 0,18,19
 293 510 293 510 336 500 c 1,20,-1
 351 497 l 1,21,-1
 506 501 l 1,22,-1
 506 413 l 1,23,-1
 423 418 l 1,24,25
 450 383 450 383 450 336 c 0,26,27
 450 238 450 238 400.5 200.5 c 128,-1,28
 351 163 351 163 246 163 c 0,29,30
 220 163 220 163 202 167 c 1,31,32
 188 133 188 133 188 114.5 c 128,-1,33
 188 96 188 96 206.5 89 c 128,-1,34
 225 82 225 82 296 81 c 0,35,36
 415 80 415 80 459 49 c 128,-1,37
 503 18 503 18 503 -68 c 0,0,1
149 -78 m 0,38,39
 149 -113 149 -113 177 -128 c 128,-1,40
 205 -143 205 -143 273 -143 c 0,41,42
 394 -143 394 -143 394 -74 c 0,43,44
 394 -35 394 -35 372.5 -24.5 c 128,-1,45
 351 -14 351 -14 287 -13 c 1,46,-1
 189 -7 l 1,47,48
 167 -25 167 -25 158 -40.5 c 128,-1,49
 149 -56 149 -56 149 -78 c 0,38,39
179 268.5 m 128,-1,51
 201 247 201 247 250 247 c 128,-1,52
 299 247 299 247 320.5 268.5 c 128,-1,53
 342 290 342 290 342 336 c 128,-1,54
 342 382 342 382 320 403.5 c 128,-1,55
 298 425 298 425 249 425 c 0,56,57
 157 425 157 425 157 336 c 0,58,50
 157 290 157 290 179 268.5 c 128,-1,51
215.5 674 m 128,-1,60
 235 654 235 654 267.5 654 c 128,-1,61
 300 654 300 654 319 674.5 c 128,-1,62
 338 695 338 695 340 728 c 1,63,-1
 424 728 l 1,64,65
 418 665 418 665 376.5 622 c 128,-1,66
 335 579 335 579 267 579 c 128,-1,67
 199 579 199 579 157 622 c 128,-1,68
 115 665 115 665 109 728 c 1,69,-1
 193 728 l 1,70,59
 196 694 196 694 215.5 674 c 128,-1,60
EndSplineSet
EndChar

StartChar: Gdotaccent
Encoding: 288 288 225
Width: 613
GlyphClass: 2
Flags: W
LayerCount: 2
Fore
SplineSet
358 262 m 1,0,-1
 358 360 l 1,1,-1
 553 360 l 1,2,-1
 553 12 l 1,3,4
 526 5 526 5 443.5 -3 c 128,-1,5
 361 -11 361 -11 324 -11 c 0,6,7
 168 -11 168 -11 109 75 c 128,-1,8
 50 161 50 161 50 344.5 c 128,-1,9
 50 528 50 528 110.5 612 c 128,-1,10
 171 696 171 696 320 696 c 0,11,12
 408 696 408 696 518 676 c 1,13,-1
 553 669 l 1,14,-1
 549 581 l 1,15,16
 428 597 428 597 332 597 c 128,-1,17
 236 597 236 597 200.5 543 c 128,-1,18
 165 489 165 489 165 343 c 128,-1,19
 165 197 165 197 198.5 141.5 c 128,-1,20
 232 86 232 86 334 86 c 0,21,22
 407 86 407 86 443 95 c 1,23,-1
 443 262 l 1,24,-1
 358 262 l 1,0,-1
258 782 m 1,25,-1
 258 896 l 1,26,-1
 366 896 l 1,27,-1
 366 782 l 1,28,-1
 258 782 l 1,25,-1
EndSplineSet
Position2: "'cpsp' Capital Spacing in Latin lookup 0 subtable" dx=5 dy=0 dh=10 dv=0
EndChar

StartChar: gdotaccent
Encoding: 289 289 226
Width: 525
GlyphClass: 2
Flags: W
LayerCount: 2
Fore
SplineSet
503 -68 m 0,0,1
 503 -232 503 -232 266 -232 c 0,2,3
 152 -232 152 -232 97 -201 c 128,-1,4
 42 -170 42 -170 42 -88 c 0,5,6
 42 -51 42 -51 60 -24.5 c 128,-1,7
 78 2 78 2 118 33 c 1,8,9
 85 55 85 55 85 106 c 0,10,11
 85 126 85 126 112 171 c 2,12,-1
 121 186 l 1,13,14
 49 229 49 229 49 336 c 0,15,16
 49 426 49 426 103 468 c 128,-1,17
 157 510 157 510 249 510 c 0,18,19
 293 510 293 510 336 500 c 1,20,-1
 351 497 l 1,21,-1
 506 501 l 1,22,-1
 506 413 l 1,23,-1
 423 418 l 1,24,25
 450 383 450 383 450 336 c 0,26,27
 450 238 450 238 400.5 200.5 c 128,-1,28
 351 163 351 163 246 163 c 0,29,30
 220 163 220 163 202 167 c 1,31,32
 188 133 188 133 188 114.5 c 128,-1,33
 188 96 188 96 206.5 89 c 128,-1,34
 225 82 225 82 296 81 c 0,35,36
 415 80 415 80 459 49 c 128,-1,37
 503 18 503 18 503 -68 c 0,0,1
149 -78 m 0,38,39
 149 -113 149 -113 177 -128 c 128,-1,40
 205 -143 205 -143 273 -143 c 0,41,42
 394 -143 394 -143 394 -74 c 0,43,44
 394 -35 394 -35 372.5 -24.5 c 128,-1,45
 351 -14 351 -14 287 -13 c 1,46,-1
 189 -7 l 1,47,48
 167 -25 167 -25 158 -40.5 c 128,-1,49
 149 -56 149 -56 149 -78 c 0,38,39
179 268.5 m 128,-1,51
 201 247 201 247 250 247 c 128,-1,52
 299 247 299 247 320.5 268.5 c 128,-1,53
 342 290 342 290 342 336 c 128,-1,54
 342 382 342 382 320 403.5 c 128,-1,55
 298 425 298 425 249 425 c 0,56,57
 157 425 157 425 157 336 c 0,58,50
 157 290 157 290 179 268.5 c 128,-1,51
212 579 m 1,59,-1
 212 693 l 1,60,-1
 320 693 l 1,61,-1
 320 579 l 1,62,-1
 212 579 l 1,59,-1
EndSplineSet
EndChar

StartChar: Gcommaaccent
Encoding: 290 290 227
Width: 613
GlyphClass: 2
Flags: W
LayerCount: 2
Fore
SplineSet
358 262 m 1,0,-1
 358 360 l 1,1,-1
 553 360 l 1,2,-1
 553 12 l 1,3,4
 526 5 526 5 443.5 -3 c 128,-1,5
 361 -11 361 -11 324 -11 c 0,6,7
 168 -11 168 -11 109 75 c 128,-1,8
 50 161 50 161 50 344.5 c 128,-1,9
 50 528 50 528 110.5 612 c 128,-1,10
 171 696 171 696 320 696 c 0,11,12
 408 696 408 696 518 676 c 1,13,-1
 553 669 l 1,14,-1
 549 581 l 1,15,16
 428 597 428 597 332 597 c 128,-1,17
 236 597 236 597 200.5 543 c 128,-1,18
 165 489 165 489 165 343 c 128,-1,19
 165 197 165 197 198.5 141.5 c 128,-1,20
 232 86 232 86 334 86 c 0,21,22
 407 86 407 86 443 95 c 1,23,-1
 443 262 l 1,24,-1
 358 262 l 1,0,-1
281 -77 m 1,25,-1
 387 -77 l 1,26,-1
 334 -300 l 1,27,-1
 237 -300 l 1,28,-1
 281 -77 l 1,25,-1
EndSplineSet
Position2: "'cpsp' Capital Spacing in Latin lookup 0 subtable" dx=5 dy=0 dh=10 dv=0
EndChar

StartChar: gcommaaccent
Encoding: 291 291 228
Width: 525
GlyphClass: 2
Flags: W
LayerCount: 2
Fore
SplineSet
329 808 m 1,0,-1
 285 586 l 1,1,-1
 180 586 l 1,2,-1
 232 808 l 1,3,-1
 329 808 l 1,0,-1
503 -68 m 0,4,5
 503 -232 503 -232 266 -232 c 0,6,7
 152 -232 152 -232 97 -201 c 128,-1,8
 42 -170 42 -170 42 -88 c 0,9,10
 42 -51 42 -51 60 -24.5 c 128,-1,11
 78 2 78 2 118 33 c 1,12,13
 85 55 85 55 85 106 c 0,14,15
 85 126 85 126 112 171 c 2,16,-1
 121 186 l 1,17,18
 49 229 49 229 49 336 c 0,19,20
 49 426 49 426 103 468 c 128,-1,21
 157 510 157 510 249 510 c 0,22,23
 293 510 293 510 336 500 c 1,24,-1
 351 497 l 1,25,-1
 506 501 l 1,26,-1
 506 413 l 1,27,-1
 423 418 l 1,28,29
 450 383 450 383 450 336 c 0,30,31
 450 238 450 238 400.5 200.5 c 128,-1,32
 351 163 351 163 246 163 c 0,33,34
 220 163 220 163 202 167 c 1,35,36
 188 133 188 133 188 114.5 c 128,-1,37
 188 96 188 96 206.5 89 c 128,-1,38
 225 82 225 82 296 81 c 0,39,40
 415 80 415 80 459 49 c 128,-1,41
 503 18 503 18 503 -68 c 0,4,5
149 -78 m 0,42,43
 149 -113 149 -113 177 -128 c 128,-1,44
 205 -143 205 -143 273 -143 c 0,45,46
 394 -143 394 -143 394 -74 c 0,47,48
 394 -35 394 -35 372.5 -24.5 c 128,-1,49
 351 -14 351 -14 287 -13 c 1,50,-1
 189 -7 l 1,51,52
 167 -25 167 -25 158 -40.5 c 128,-1,53
 149 -56 149 -56 149 -78 c 0,42,43
179 268.5 m 128,-1,55
 201 247 201 247 250 247 c 128,-1,56
 299 247 299 247 320.5 268.5 c 128,-1,57
 342 290 342 290 342 336 c 128,-1,58
 342 382 342 382 320 403.5 c 128,-1,59
 298 425 298 425 249 425 c 0,60,61
 157 425 157 425 157 336 c 0,62,54
 157 290 157 290 179 268.5 c 128,-1,55
EndSplineSet
EndChar

StartChar: Hcircumflex
Encoding: 292 292 229
Width: 676
GlyphClass: 2
Flags: W
LayerCount: 2
Fore
SplineSet
486 0 m 1,0,-1
 486 296 l 1,1,-1
 190 296 l 1,2,-1
 190 0 l 1,3,-1
 79 0 l 1,4,-1
 79 685 l 1,5,-1
 190 685 l 1,6,-1
 190 393 l 1,7,-1
 486 393 l 1,8,-1
 486 685 l 1,9,-1
 598 685 l 1,10,-1
 598 0 l 1,11,-1
 486 0 l 1,0,-1
157 776 m 1,12,-1
 291 919 l 1,13,-1
 385 919 l 1,14,-1
 519 776 l 1,15,-1
 403 776 l 1,16,-1
 339 843 l 1,17,-1
 274 776 l 1,18,-1
 157 776 l 1,12,-1
EndSplineSet
Position2: "'cpsp' Capital Spacing in Latin lookup 0 subtable" dx=5 dy=0 dh=10 dv=0
EndChar

StartChar: hcircumflex
Encoding: 293 293 230
Width: 546
GlyphClass: 2
Flags: W
LayerCount: 2
Fore
SplineSet
175 0 m 1,0,-1
 66 0 l 1,1,-1
 66 708 l 1,2,-1
 175 708 l 1,3,-1
 175 474 l 1,4,5
 249 511 249 511 312 511 c 0,6,7
 412 511 412 511 448.5 454.5 c 128,-1,8
 485 398 485 398 485 268 c 2,9,-1
 485 0 l 1,10,-1
 376 0 l 1,11,-1
 376 265 l 2,12,13
 376 346 376 346 359 380 c 128,-1,14
 342 414 342 414 287 414 c 0,15,16
 239 414 239 414 191 398 c 1,17,-1
 175 392 l 1,18,-1
 175 0 l 1,0,-1
112 760 m 1,19,-1
 237 906 l 1,20,-1
 306 906 l 1,21,-1
 433 760 l 1,22,-1
 331 760 l 1,23,-1
 273 836 l 1,24,-1
 215 760 l 1,25,-1
 112 760 l 1,19,-1
EndSplineSet
EndChar

StartChar: Hbar
Encoding: 294 294 231
Width: 685
GlyphClass: 2
Flags: W
LayerCount: 2
Fore
SplineSet
17 495 m 1,0,-1
 17 590 l 1,1,-1
 83 590 l 1,2,-1
 83 685 l 1,3,-1
 194 685 l 1,4,-1
 194 590 l 1,5,-1
 490 590 l 1,6,-1
 490 685 l 1,7,-1
 602 685 l 1,8,-1
 602 590 l 1,9,-1
 675 590 l 1,10,-1
 675 495 l 1,11,-1
 602 495 l 1,12,-1
 602 0 l 1,13,-1
 490 0 l 1,14,-1
 490 296 l 1,15,-1
 194 296 l 1,16,-1
 194 0 l 1,17,-1
 83 0 l 1,18,-1
 83 495 l 1,19,-1
 17 495 l 1,0,-1
194 393 m 1,20,-1
 490 393 l 1,21,-1
 490 495 l 1,22,-1
 194 495 l 1,23,-1
 194 393 l 1,20,-1
EndSplineSet
Position2: "'cpsp' Capital Spacing in Latin lookup 0 subtable" dx=5 dy=0 dh=10 dv=0
EndChar

StartChar: hbar
Encoding: 295 295 232
Width: 546
GlyphClass: 2
Flags: W
LayerCount: 2
Fore
SplineSet
11 553 m 1,0,-1
 11 647 l 1,1,-1
 66 647 l 1,2,-1
 66 708 l 1,3,-1
 175 708 l 1,4,-1
 175 647 l 1,5,-1
 322 647 l 1,6,-1
 322 553 l 1,7,-1
 175 553 l 1,8,-1
 175 474 l 1,9,10
 249 511 249 511 312 511 c 0,11,12
 412 511 412 511 448.5 454.5 c 128,-1,13
 485 398 485 398 485 268 c 2,14,-1
 485 0 l 1,15,-1
 376 0 l 1,16,-1
 376 265 l 2,17,18
 376 346 376 346 359 380 c 128,-1,19
 342 414 342 414 287 414 c 0,20,21
 239 414 239 414 191 398 c 1,22,-1
 175 392 l 1,23,-1
 175 0 l 1,24,-1
 66 0 l 1,25,-1
 66 553 l 1,26,-1
 11 553 l 1,0,-1
EndSplineSet
EndChar

StartChar: Itilde
Encoding: 296 296 233
Width: 269
GlyphClass: 2
Flags: W
LayerCount: 2
Fore
SplineSet
79 0 m 1,0,-1
 79 685 l 1,1,-1
 190 685 l 1,2,-1
 190 0 l 1,3,-1
 79 0 l 1,0,-1
214 777 m 128,-1,5
 190 777 190 777 127 802 c 128,-1,6
 64 827 64 827 51 827 c 0,7,8
 26 827 26 827 -13 794 c 2,9,-1
 -26 783 l 1,10,-1
 -50 861 l 1,11,12
 -44 868 -44 868 -34.5 878.5 c 128,-1,13
 -25 889 -25 889 1.5 906 c 128,-1,14
 28 923 28 923 54 923 c 128,-1,15
 80 923 80 923 141.5 898 c 128,-1,16
 203 873 203 873 214 873 c 0,17,18
 236 873 236 873 276 906 c 1,19,-1
 290 917 l 1,20,-1
 314 838 l 1,21,22
 299 817 299 817 268.5 797 c 128,-1,4
 238 777 238 777 214 777 c 128,-1,5
EndSplineSet
Position2: "'cpsp' Capital Spacing in Latin lookup 0 subtable" dx=5 dy=0 dh=10 dv=0
EndChar

StartChar: itilde
Encoding: 297 297 234
Width: 241
GlyphClass: 2
Flags: W
LayerCount: 2
Fore
SplineSet
66 500 m 1,0,-1
 175 500 l 1,1,-1
 175 0 l 1,2,-1
 66 0 l 1,3,-1
 66 500 l 1,0,-1
236.5 613 m 128,-1,5
 211 597 211 597 190 597 c 128,-1,6
 169 597 169 597 120.5 617 c 128,-1,7
 72 637 72 637 58 637 c 0,8,9
 34 637 34 637 -5 612 c 1,10,-1
 -18 603 l 1,11,-1
 -42 666 l 1,12,-1
 -26 682 l 2,13,14
 -17 691 -17 691 9 706.5 c 128,-1,15
 35 722 35 722 56.5 722 c 128,-1,16
 78 722 78 722 126.5 702 c 128,-1,17
 175 682 175 682 187 682 c 0,18,19
 209 682 209 682 250 709 c 1,20,-1
 263 718 l 1,21,-1
 287 654 l 1,22,-1
 272 638 l 1,23,4
 262 629 262 629 236.5 613 c 128,-1,5
EndSplineSet
EndChar

StartChar: Imacron
Encoding: 298 298 235
Width: 269
GlyphClass: 2
Flags: W
LayerCount: 2
Fore
SplineSet
79 0 m 1,0,-1
 79 685 l 1,1,-1
 190 685 l 1,2,-1
 190 0 l 1,3,-1
 79 0 l 1,0,-1
-29 795 m 1,4,-1
 -29 876 l 1,5,-1
 303 876 l 1,6,-1
 303 795 l 1,7,-1
 -29 795 l 1,4,-1
EndSplineSet
Position2: "'cpsp' Capital Spacing in Latin lookup 0 subtable" dx=5 dy=0 dh=10 dv=0
EndChar

StartChar: imacron
Encoding: 299 299 236
Width: 241
GlyphClass: 2
Flags: W
LayerCount: 2
Fore
SplineSet
66 500 m 1,0,-1
 175 500 l 1,1,-1
 175 0 l 1,2,-1
 66 0 l 1,3,-1
 66 500 l 1,0,-1
-20 609 m 1,4,-1
 -20 691 l 1,5,-1
 262 691 l 1,6,-1
 262 609 l 1,7,-1
 -20 609 l 1,4,-1
EndSplineSet
EndChar

StartChar: Ibreve
Encoding: 300 300 237
Width: 269
GlyphClass: 2
Flags: W
LayerCount: 2
Fore
SplineSet
79 0 m 1,0,-1
 79 685 l 1,1,-1
 190 685 l 1,2,-1
 190 0 l 1,3,-1
 79 0 l 1,0,-1
95.5 867 m 128,-1,5
 116 849 116 849 148 849 c 128,-1,6
 180 849 180 849 200.5 867 c 128,-1,7
 221 885 221 885 223 914 c 1,8,-1
 322 914 l 1,9,10
 316 849 316 849 271 810 c 128,-1,11
 226 771 226 771 147.5 771 c 128,-1,12
 69 771 69 771 24 810 c 128,-1,13
 -21 849 -21 849 -26 914 c 1,14,-1
 73 914 l 1,15,4
 75 885 75 885 95.5 867 c 128,-1,5
EndSplineSet
Position2: "'cpsp' Capital Spacing in Latin lookup 0 subtable" dx=5 dy=0 dh=10 dv=0
EndChar

StartChar: ibreve
Encoding: 301 301 238
Width: 241
GlyphClass: 2
Flags: W
LayerCount: 2
Fore
SplineSet
66 500 m 1,0,-1
 175 500 l 1,1,-1
 175 0 l 1,2,-1
 66 0 l 1,3,-1
 66 500 l 1,0,-1
69.5 674 m 128,-1,5
 89 654 89 654 121.5 654 c 128,-1,6
 154 654 154 654 173 674.5 c 128,-1,7
 192 695 192 695 194 728 c 1,8,-1
 278 728 l 1,9,10
 272 665 272 665 230.5 622 c 128,-1,11
 189 579 189 579 121 579 c 128,-1,12
 53 579 53 579 11 622 c 128,-1,13
 -31 665 -31 665 -37 728 c 1,14,-1
 47 728 l 1,15,4
 50 694 50 694 69.5 674 c 128,-1,5
EndSplineSet
EndChar

StartChar: Iogonek
Encoding: 302 302 239
Width: 269
GlyphClass: 2
Flags: W
LayerCount: 2
Fore
SplineSet
79 0 m 1,0,-1
 79 685 l 1,1,-1
 190 685 l 1,2,-1
 190 0 l 1,3,4
 167 -17 167 -17 143.5 -46 c 128,-1,5
 120 -75 120 -75 120 -91 c 128,-1,6
 120 -107 120 -107 130 -117.5 c 128,-1,7
 140 -128 140 -128 155 -128 c 1,8,-1
 201 -123 l 1,9,-1
 211 -202 l 1,10,11
 158 -212 158 -212 116 -212 c 128,-1,12
 74 -212 74 -212 45.5 -187 c 128,-1,13
 17 -162 17 -162 17 -119 c 0,14,15
 17 -56 17 -56 88 0 c 1,16,-1
 79 0 l 1,0,-1
EndSplineSet
Position2: "'cpsp' Capital Spacing in Latin lookup 0 subtable" dx=5 dy=0 dh=10 dv=0
EndChar

StartChar: iogonek
Encoding: 303 303 240
Width: 241
GlyphClass: 2
Flags: W
LayerCount: 2
Fore
SplineSet
66 0 m 1,0,-1
 66 500 l 1,1,-1
 175 500 l 1,2,-1
 175 0 l 1,3,4
 147 -21 147 -21 125.5 -47.5 c 128,-1,5
 104 -74 104 -74 104 -90.5 c 128,-1,6
 104 -107 104 -107 114 -117.5 c 128,-1,7
 124 -128 124 -128 140 -128 c 1,8,-1
 186 -123 l 1,9,-1
 195 -202 l 1,10,11
 142 -212 142 -212 100.5 -212 c 128,-1,12
 59 -212 59 -212 30.5 -187 c 128,-1,13
 2 -162 2 -162 2 -119 c 0,14,15
 2 -58 2 -58 75 0 c 1,16,-1
 66 0 l 1,0,-1
66 585 m 1,17,-1
 66 700 l 1,18,-1
 175 700 l 1,19,-1
 175 585 l 1,20,-1
 66 585 l 1,17,-1
EndSplineSet
EndChar

StartChar: Idotaccent
Encoding: 304 304 241
Width: 269
GlyphClass: 2
Flags: W
LayerCount: 2
Fore
SplineSet
79 0 m 1,0,-1
 79 685 l 1,1,-1
 190 685 l 1,2,-1
 190 0 l 1,3,-1
 79 0 l 1,0,-1
80 782 m 1,4,-1
 80 896 l 1,5,-1
 188 896 l 1,6,-1
 188 782 l 1,7,-1
 80 782 l 1,4,-1
EndSplineSet
Position2: "'cpsp' Capital Spacing in Latin lookup 0 subtable" dx=5 dy=0 dh=10 dv=0
EndChar

StartChar: dotlessi
Encoding: 305 305 242
Width: 241
GlyphClass: 2
Flags: W
LayerCount: 2
Fore
SplineSet
66 0 m 1,0,-1
 66 500 l 1,1,-1
 175 500 l 1,2,-1
 175 0 l 1,3,-1
 66 0 l 1,0,-1
EndSplineSet
EndChar

StartChar: Jcircumflex
Encoding: 308 308 243
Width: 296
GlyphClass: 2
Flags: W
LayerCount: 2
Fore
SplineSet
19 -71 m 1,0,-1
 19 27 l 1,1,2
 72 27 72 27 91.5 43 c 128,-1,3
 111 59 111 59 111 114 c 2,4,-1
 111 685 l 1,5,-1
 221 685 l 1,6,-1
 222 106 l 2,7,8
 222 -1 222 -1 177 -36 c 128,-1,9
 132 -71 132 -71 19 -71 c 1,0,-1
-15 775 m 1,10,-1
 119 918 l 1,11,-1
 213 918 l 1,12,-1
 347 775 l 1,13,-1
 231 775 l 1,14,-1
 167 842 l 1,15,-1
 102 775 l 1,16,-1
 -15 775 l 1,10,-1
EndSplineSet
Position2: "'cpsp' Capital Spacing in Latin lookup 0 subtable" dx=5 dy=0 dh=10 dv=0
EndChar

StartChar: jcircumflex
Encoding: 309 309 244
Width: 242
GlyphClass: 2
Flags: W
LayerCount: 2
Fore
SplineSet
67 19 m 2,0,-1
 67 500 l 1,1,-1
 175 500 l 1,2,-1
 175 18 l 2,3,4
 175 -80 175 -80 140.5 -127 c 128,-1,5
 106 -174 106 -174 2 -227 c 1,6,-1
 -41 -146 l 1,7,8
 29 -102 29 -102 48 -74 c 128,-1,9
 67 -46 67 -46 67 19 c 2,0,-1
-39 585 m 1,10,-1
 86 731 l 1,11,-1
 155 731 l 1,12,-1
 282 585 l 1,13,-1
 180 585 l 1,14,-1
 122 661 l 1,15,-1
 64 585 l 1,16,-1
 -39 585 l 1,10,-1
EndSplineSet
EndChar

StartChar: Kcommaaccent
Encoding: 310 310 245
Width: 581
GlyphClass: 2
Flags: W
LayerCount: 2
Fore
SplineSet
190 0 m 1,0,-1
 79 0 l 1,1,-1
 79 693 l 1,2,-1
 190 693 l 1,3,-1
 190 386 l 1,4,-1
 290 393 l 1,5,-1
 430 693 l 1,6,-1
 559 693 l 1,7,-1
 390 347 l 1,8,-1
 566 0 l 1,9,-1
 437 0 l 1,10,-1
 292 286 l 1,11,-1
 190 279 l 1,12,-1
 190 0 l 1,0,-1
253 -77 m 1,13,-1
 359 -77 l 1,14,-1
 306 -300 l 1,15,-1
 210 -300 l 1,16,-1
 253 -77 l 1,13,-1
EndSplineSet
Position2: "'cpsp' Capital Spacing in Latin lookup 0 subtable" dx=5 dy=0 dh=10 dv=0
EndChar

StartChar: kcommaaccent
Encoding: 311 311 246
Width: 499
GlyphClass: 2
Flags: W
LayerCount: 2
Fore
SplineSet
38 -300 m 1,0,-1
 81 -77 l 1,1,-1
 187 -77 l 1,2,-1
 134 -300 l 1,3,-1
 38 -300 l 1,0,-1
175 0 m 1,4,-1
 66 0 l 1,5,-1
 66 708 l 1,6,-1
 175 708 l 1,7,-1
 175 299 l 1,8,-1
 237 305 l 1,9,-1
 355 500 l 1,10,-1
 477 500 l 1,11,-1
 333 266 l 1,12,-1
 485 0 l 1,13,-1
 362 0 l 1,14,-1
 240 211 l 1,15,-1
 175 204 l 1,16,-1
 175 0 l 1,4,-1
EndSplineSet
EndChar

StartChar: Lacute
Encoding: 313 313 247
Width: 476
GlyphClass: 2
Flags: W
LayerCount: 2
Fore
SplineSet
463 0 m 1,0,-1
 79 0 l 1,1,-1
 79 693 l 1,2,-1
 190 693 l 1,3,-1
 190 107 l 1,4,-1
 463 107 l 1,5,-1
 463 0 l 1,0,-1
120 836 m 1,6,-1
 356 939 l 1,7,-1
 391 842 l 1,8,-1
 148 760 l 1,9,-1
 120 836 l 1,6,-1
EndSplineSet
Position2: "'cpsp' Capital Spacing in Latin lookup 0 subtable" dx=5 dy=0 dh=10 dv=0
EndChar

StartChar: lacute
Encoding: 314 314 248
Width: 253
GlyphClass: 2
Flags: W
LayerCount: 2
Fore
SplineSet
72 0 m 1,0,-1
 72 708 l 1,1,-1
 181 708 l 1,2,-1
 181 0 l 1,3,-1
 72 0 l 1,0,-1
46 854 m 1,4,-1
 282 955 l 1,5,-1
 316 861 l 1,6,-1
 72 783 l 1,7,-1
 46 854 l 1,4,-1
EndSplineSet
EndChar

StartChar: Lcommaaccent
Encoding: 315 315 249
Width: 475
GlyphClass: 2
Flags: W
LayerCount: 2
Fore
SplineSet
220 -77 m 1,0,-1
 326 -77 l 1,1,-1
 273 -300 l 1,2,-1
 176 -300 l 1,3,-1
 220 -77 l 1,0,-1
463 0 m 1,4,-1
 79 0 l 1,5,-1
 79 685 l 1,6,-1
 190 685 l 1,7,-1
 190 99 l 1,8,-1
 463 99 l 1,9,-1
 463 0 l 1,4,-1
EndSplineSet
Position2: "'cpsp' Capital Spacing in Latin lookup 0 subtable" dx=5 dy=0 dh=10 dv=0
EndChar

StartChar: lcommaaccent
Encoding: 316 316 250
Width: 253
GlyphClass: 2
Flags: W
LayerCount: 2
Fore
SplineSet
72 0 m 1,0,-1
 72 708 l 1,1,-1
 181 708 l 1,2,-1
 181 0 l 1,3,-1
 72 0 l 1,0,-1
69 -77 m 1,4,-1
 175 -77 l 1,5,-1
 122 -300 l 1,6,-1
 25 -300 l 1,7,-1
 69 -77 l 1,4,-1
EndSplineSet
EndChar

StartChar: Lcaron
Encoding: 317 317 251
Width: 496
GlyphClass: 2
Flags: W
LayerCount: 2
Fore
SplineSet
451 693 m 1,0,-1
 451 444 l 1,1,-1
 346 444 l 1,2,-1
 346 693 l 1,3,-1
 451 693 l 1,0,-1
463 0 m 1,4,-1
 79 0 l 1,5,-1
 79 685 l 1,6,-1
 190 685 l 1,7,-1
 190 99 l 1,8,-1
 463 99 l 1,9,-1
 463 0 l 1,4,-1
EndSplineSet
Position2: "'cpsp' Capital Spacing in Latin lookup 0 subtable" dx=5 dy=0 dh=10 dv=0
EndChar

StartChar: lcaron
Encoding: 318 318 252
Width: 331
GlyphClass: 2
Flags: W
LayerCount: 2
Fore
SplineSet
282 680 m 1,0,-1
 388 680 l 1,1,-1
 335 458 l 1,2,-1
 239 458 l 1,3,-1
 282 680 l 1,0,-1
72 0 m 1,4,-1
 72 708 l 1,5,-1
 181 708 l 1,6,-1
 181 0 l 1,7,-1
 72 0 l 1,4,-1
EndSplineSet
EndChar

StartChar: Lslash
Encoding: 321 321 253
Width: 482
GlyphClass: 2
Flags: W
LayerCount: 2
Fore
SplineSet
470 0 m 1,0,-1
 86 0 l 1,1,-1
 86 240 l 1,2,-1
 38 207 l 1,3,-1
 -15 281 l 1,4,-1
 86 351 l 1,5,-1
 86 685 l 1,6,-1
 197 685 l 1,7,-1
 197 429 l 1,8,-1
 315 512 l 1,9,-1
 368 439 l 1,10,-1
 197 318 l 1,11,-1
 197 99 l 1,12,-1
 470 99 l 1,13,-1
 470 0 l 1,0,-1
EndSplineSet
Position2: "'cpsp' Capital Spacing in Latin lookup 0 subtable" dx=5 dy=0 dh=10 dv=0
EndChar

StartChar: lslash
Encoding: 322 322 254
Width: 350
GlyphClass: 2
Flags: W
LayerCount: 2
Fore
SplineSet
117 0 m 1,0,-1
 117 244 l 1,1,-1
 59 204 l 1,2,-1
 6 278 l 1,3,-1
 117 355 l 1,4,-1
 117 708 l 1,5,-1
 225 708 l 1,6,-1
 225 431 l 1,7,-1
 293 479 l 1,8,-1
 346 405 l 1,9,-1
 225 320 l 1,10,-1
 225 0 l 1,11,-1
 117 0 l 1,0,-1
EndSplineSet
EndChar

StartChar: Nacute
Encoding: 323 323 255
Width: 686
GlyphClass: 2
Flags: W
LayerCount: 2
Fore
SplineSet
79 0 m 1,0,-1
 79 685 l 1,1,-1
 273 685 l 1,2,-1
 481 98 l 1,3,-1
 496 98 l 1,4,-1
 496 685 l 1,5,-1
 607 685 l 1,6,-1
 607 0 l 1,7,-1
 417 0 l 1,8,-1
 204 588 l 1,9,-1
 190 588 l 1,10,-1
 190 0 l 1,11,-1
 79 0 l 1,0,-1
210 836 m 1,12,-1
 446 939 l 1,13,-1
 481 842 l 1,14,-1
 238 760 l 1,15,-1
 210 836 l 1,12,-1
EndSplineSet
Position2: "'cpsp' Capital Spacing in Latin lookup 0 subtable" dx=5 dy=0 dh=10 dv=0
EndChar

StartChar: nacute
Encoding: 324 324 256
Width: 546
GlyphClass: 2
Flags: W
LayerCount: 2
Fore
SplineSet
66 0 m 1,0,-1
 66 500 l 1,1,-1
 174 500 l 1,2,-1
 174 469 l 1,3,-1
 194 480 l 2,4,5
 214 490 214 490 248.5 500.5 c 128,-1,6
 283 511 283 511 312 511 c 0,7,8
 412 511 412 511 448.5 454.5 c 128,-1,9
 485 398 485 398 485 268 c 2,10,11
 485 268 485 268 485 0 c 1,12,-1
 377 0 l 1,13,-1
 377 265 l 2,14,15
 377 346 377 346 359.5 380 c 128,-1,16
 342 414 342 414 286 414 c 128,-1,17
 230 414 230 414 175 388 c 1,18,-1
 175 0 l 1,19,-1
 66 0 l 1,0,-1
152 647 m 1,20,-1
 388 748 l 1,21,-1
 422 654 l 1,22,-1
 178 576 l 1,23,-1
 152 647 l 1,20,-1
EndSplineSet
EndChar

StartChar: Ncommaaccent
Encoding: 325 325 257
Width: 686
GlyphClass: 2
Flags: W
LayerCount: 2
Fore
SplineSet
310 -77 m 1,0,-1
 415 -77 l 1,1,-1
 363 -300 l 1,2,-1
 266 -300 l 1,3,-1
 310 -77 l 1,0,-1
79 0 m 1,4,-1
 79 685 l 1,5,-1
 273 685 l 1,6,-1
 481 98 l 1,7,-1
 496 98 l 1,8,-1
 496 685 l 1,9,-1
 607 685 l 1,10,-1
 607 0 l 1,11,-1
 417 0 l 1,12,-1
 204 588 l 1,13,-1
 190 588 l 1,14,-1
 190 0 l 1,15,-1
 79 0 l 1,4,-1
EndSplineSet
Position2: "'cpsp' Capital Spacing in Latin lookup 0 subtable" dx=5 dy=0 dh=10 dv=0
EndChar

StartChar: ncommaaccent
Encoding: 326 326 258
Width: 546
GlyphClass: 2
Flags: W
LayerCount: 2
Fore
SplineSet
50 -300 m 1,0,-1
 93 -77 l 1,1,-1
 199 -77 l 1,2,-1
 146 -300 l 1,3,-1
 50 -300 l 1,0,-1
175 0 m 1,4,-1
 66 0 l 1,5,-1
 66 500 l 1,6,-1
 174 500 l 1,7,-1
 174 469 l 1,8,9
 247 511 247 511 312 511 c 0,10,11
 412 511 412 511 448.5 454.5 c 128,-1,12
 485 398 485 398 485 268 c 2,13,-1
 485 0 l 1,14,-1
 377 0 l 1,15,-1
 377 265 l 2,16,17
 377 346 377 346 359.5 380 c 128,-1,18
 342 414 342 414 288 414 c 0,19,20
 237 414 237 414 190 394 c 1,21,-1
 175 388 l 1,22,-1
 175 0 l 1,4,-1
EndSplineSet
EndChar

StartChar: Ncaron
Encoding: 327 327 259
Width: 686
GlyphClass: 2
Flags: W
LayerCount: 2
Fore
SplineSet
79 0 m 1,0,-1
 79 685 l 1,1,-1
 273 685 l 1,2,-1
 481 98 l 1,3,-1
 496 98 l 1,4,-1
 496 685 l 1,5,-1
 607 685 l 1,6,-1
 607 0 l 1,7,-1
 417 0 l 1,8,-1
 204 588 l 1,9,-1
 190 588 l 1,10,-1
 190 0 l 1,11,-1
 79 0 l 1,0,-1
297 775 m 1,12,-1
 163 918 l 1,13,-1
 280 918 l 1,14,-1
 345 852 l 1,15,-1
 408 918 l 1,16,-1
 525 918 l 1,17,-1
 391 775 l 1,18,-1
 297 775 l 1,12,-1
EndSplineSet
Position2: "'cpsp' Capital Spacing in Latin lookup 0 subtable" dx=5 dy=0 dh=10 dv=0
EndChar

StartChar: ncaron
Encoding: 328 328 260
Width: 546
GlyphClass: 2
Flags: W
LayerCount: 2
Fore
SplineSet
175 0 m 1,0,-1
 66 0 l 1,1,-1
 66 500 l 1,2,-1
 174 500 l 1,3,-1
 174 469 l 1,4,5
 247 511 247 511 312 511 c 0,6,7
 412 511 412 511 448.5 454.5 c 128,-1,8
 485 398 485 398 485 268 c 2,9,-1
 485 0 l 1,10,-1
 377 0 l 1,11,-1
 377 265 l 2,12,13
 377 346 377 346 359.5 380 c 128,-1,14
 342 414 342 414 288 414 c 0,15,16
 237 414 237 414 190 394 c 1,17,-1
 175 388 l 1,18,-1
 175 0 l 1,0,-1
236 585 m 1,19,-1
 111 731 l 1,20,-1
 213 731 l 1,21,-1
 272 656 l 1,22,-1
 330 731 l 1,23,-1
 432 731 l 1,24,-1
 305 585 l 1,25,-1
 236 585 l 1,19,-1
EndSplineSet
EndChar

StartChar: Eng
Encoding: 330 330 261
Width: 686
GlyphClass: 2
Flags: W
LayerCount: 2
Fore
SplineSet
79 0 m 1,0,-1
 79 685 l 1,1,-1
 273 685 l 1,2,-1
 481 98 l 1,3,-1
 496 98 l 1,4,-1
 496 685 l 1,5,-1
 607 685 l 1,6,-1
 607 -25 l 2,7,8
 607 -132 607 -132 562 -167 c 128,-1,9
 517 -202 517 -202 404 -202 c 1,10,-1
 404 -104 l 1,11,12
 457 -104 457 -104 476.5 -88 c 128,-1,13
 496 -72 496 -72 496 -17 c 2,14,-1
 496 0 l 1,15,-1
 417 0 l 1,16,-1
 204 588 l 1,17,-1
 190 588 l 1,18,-1
 190 0 l 1,19,-1
 79 0 l 1,0,-1
EndSplineSet
Position2: "'cpsp' Capital Spacing in Latin lookup 0 subtable" dx=5 dy=0 dh=10 dv=0
EndChar

StartChar: eng
Encoding: 331 331 262
Width: 546
GlyphClass: 2
Flags: W
LayerCount: 2
Fore
SplineSet
174 0 m 1,0,-1
 66 0 l 1,1,-1
 66 499 l 1,2,-1
 174 499 l 1,3,-1
 174 473 l 1,4,5
 258 511 258 511 315 511 c 0,6,7
 410 511 410 511 447.5 449.5 c 128,-1,8
 485 388 485 388 485 261 c 2,9,-1
 485 2 l 2,10,11
 485 -98 485 -98 452.5 -144.5 c 128,-1,12
 420 -191 420 -191 315 -243 c 1,13,-1
 267 -153 l 1,14,15
 338 -113 338 -113 357.5 -86.5 c 128,-1,16
 377 -60 377 -60 377 -2 c 2,17,-1
 377 260 l 2,18,19
 377 336 377 336 360 374 c 128,-1,20
 343 412 343 412 294 412 c 0,21,22
 252 412 252 412 194 392 c 1,23,-1
 174 386 l 1,24,-1
 174 0 l 1,0,-1
EndSplineSet
EndChar

StartChar: Omacron
Encoding: 332 332 263
Width: 656
GlyphClass: 2
Flags: W
LayerCount: 2
Fore
SplineSet
328 86 m 128,-1,1
 424 86 424 86 457.5 144 c 128,-1,2
 491 202 491 202 491 338.5 c 128,-1,3
 491 475 491 475 456.5 537 c 128,-1,4
 422 599 422 599 328 599 c 128,-1,5
 234 599 234 599 199 537 c 128,-1,6
 164 475 164 475 164 339.5 c 128,-1,7
 164 204 164 204 198 145 c 128,-1,0
 232 86 232 86 328 86 c 128,-1,1
328 -11 m 128,-1,9
 173 -11 173 -11 111 73.5 c 128,-1,10
 49 158 49 158 49 339 c 128,-1,11
 49 520 49 520 111.5 608 c 128,-1,12
 174 696 174 696 328 696 c 128,-1,13
 482 696 482 696 544 608.5 c 128,-1,14
 606 521 606 521 606 339 c 128,-1,15
 606 157 606 157 544.5 73 c 128,-1,8
 483 -11 483 -11 328 -11 c 128,-1,9
159 795 m 1,16,-1
 159 876 l 1,17,-1
 491 876 l 1,18,-1
 491 795 l 1,19,-1
 159 795 l 1,16,-1
EndSplineSet
Position2: "'cpsp' Capital Spacing in Latin lookup 0 subtable" dx=5 dy=0 dh=10 dv=0
EndChar

StartChar: omacron
Encoding: 333 333 264
Width: 530
GlyphClass: 2
Flags: W
LayerCount: 2
Fore
SplineSet
265 511 m 128,-1,1
 385 511 385 511 436.5 446 c 128,-1,2
 488 381 488 381 488 251 c 128,-1,3
 488 121 488 121 438 55 c 128,-1,4
 388 -11 388 -11 265 -11 c 128,-1,5
 142 -11 142 -11 92 55 c 128,-1,6
 42 121 42 121 42 251 c 128,-1,7
 42 381 42 381 93.5 446 c 128,-1,0
 145 511 145 511 265 511 c 128,-1,1
265 81 m 128,-1,9
 332 81 332 81 355 121 c 128,-1,10
 378 161 378 161 378 252 c 128,-1,11
 378 343 378 343 353.5 381 c 128,-1,12
 329 419 329 419 265 419 c 128,-1,13
 201 419 201 419 176.5 381 c 128,-1,14
 152 343 152 343 152 252 c 128,-1,15
 152 161 152 161 175 121 c 128,-1,8
 198 81 198 81 265 81 c 128,-1,9
127 614 m 1,16,-1
 127 696 l 1,17,-1
 409 696 l 1,18,-1
 409 614 l 1,19,-1
 127 614 l 1,16,-1
EndSplineSet
EndChar

StartChar: Obreve
Encoding: 334 334 265
Width: 656
GlyphClass: 2
Flags: W
LayerCount: 2
Fore
SplineSet
328 86 m 128,-1,1
 424 86 424 86 457.5 144 c 128,-1,2
 491 202 491 202 491 338.5 c 128,-1,3
 491 475 491 475 456.5 537 c 128,-1,4
 422 599 422 599 328 599 c 128,-1,5
 234 599 234 599 199 537 c 128,-1,6
 164 475 164 475 164 339.5 c 128,-1,7
 164 204 164 204 198 145 c 128,-1,0
 232 86 232 86 328 86 c 128,-1,1
328 -11 m 128,-1,9
 173 -11 173 -11 111 73.5 c 128,-1,10
 49 158 49 158 49 339 c 128,-1,11
 49 520 49 520 111.5 608 c 128,-1,12
 174 696 174 696 328 696 c 128,-1,13
 482 696 482 696 544 608.5 c 128,-1,14
 606 521 606 521 606 339 c 128,-1,15
 606 157 606 157 544.5 73 c 128,-1,8
 483 -11 483 -11 328 -11 c 128,-1,9
276.5 867 m 128,-1,17
 297 849 297 849 329 849 c 128,-1,18
 361 849 361 849 381.5 867 c 128,-1,19
 402 885 402 885 404 914 c 1,20,-1
 503 914 l 1,21,22
 497 849 497 849 452 810 c 128,-1,23
 407 771 407 771 328.5 771 c 128,-1,24
 250 771 250 771 205 810 c 128,-1,25
 160 849 160 849 155 914 c 1,26,-1
 254 914 l 1,27,16
 256 885 256 885 276.5 867 c 128,-1,17
EndSplineSet
Position2: "'cpsp' Capital Spacing in Latin lookup 0 subtable" dx=5 dy=0 dh=10 dv=0
EndChar

StartChar: obreve
Encoding: 335 335 266
Width: 530
GlyphClass: 2
Flags: W
LayerCount: 2
Fore
SplineSet
265 511 m 128,-1,1
 385 511 385 511 436.5 446 c 128,-1,2
 488 381 488 381 488 251 c 128,-1,3
 488 121 488 121 438 55 c 128,-1,4
 388 -11 388 -11 265 -11 c 128,-1,5
 142 -11 142 -11 92 55 c 128,-1,6
 42 121 42 121 42 251 c 128,-1,7
 42 381 42 381 93.5 446 c 128,-1,0
 145 511 145 511 265 511 c 128,-1,1
265 81 m 128,-1,9
 332 81 332 81 355 121 c 128,-1,10
 378 161 378 161 378 252 c 128,-1,11
 378 343 378 343 353.5 381 c 128,-1,12
 329 419 329 419 265 419 c 128,-1,13
 201 419 201 419 176.5 381 c 128,-1,14
 152 343 152 343 152 252 c 128,-1,15
 152 161 152 161 175 121 c 128,-1,8
 198 81 198 81 265 81 c 128,-1,9
216.5 674 m 128,-1,17
 236 654 236 654 268.5 654 c 128,-1,18
 301 654 301 654 320 674.5 c 128,-1,19
 339 695 339 695 341 728 c 1,20,-1
 425 728 l 1,21,22
 419 665 419 665 377.5 622 c 128,-1,23
 336 579 336 579 268 579 c 128,-1,24
 200 579 200 579 158 622 c 128,-1,25
 116 665 116 665 110 728 c 1,26,-1
 194 728 l 1,27,16
 197 694 197 694 216.5 674 c 128,-1,17
EndSplineSet
EndChar

StartChar: Ohungarumlaut
Encoding: 336 336 267
Width: 656
GlyphClass: 2
Flags: W
LayerCount: 2
Fore
SplineSet
328 86 m 128,-1,1
 424 86 424 86 457.5 144 c 128,-1,2
 491 202 491 202 491 338.5 c 128,-1,3
 491 475 491 475 456.5 537 c 128,-1,4
 422 599 422 599 328 599 c 128,-1,5
 234 599 234 599 199 537 c 128,-1,6
 164 475 164 475 164 339.5 c 128,-1,7
 164 204 164 204 198 145 c 128,-1,0
 232 86 232 86 328 86 c 128,-1,1
328 -11 m 128,-1,9
 173 -11 173 -11 111 73.5 c 128,-1,10
 49 158 49 158 49 339 c 128,-1,11
 49 520 49 520 111.5 608 c 128,-1,12
 174 696 174 696 328 696 c 128,-1,13
 482 696 482 696 544 608.5 c 128,-1,14
 606 521 606 521 606 339 c 128,-1,15
 606 157 606 157 544.5 73 c 128,-1,8
 483 -11 483 -11 328 -11 c 128,-1,9
358 779 m 1,16,-1
 457 948 l 1,17,-1
 547 909 l 1,18,-1
 439 745 l 1,19,-1
 358 779 l 1,16,-1
154 780 m 1,20,-1
 254 949 l 1,21,-1
 343 910 l 1,22,-1
 236 746 l 1,23,-1
 154 780 l 1,20,-1
EndSplineSet
Position2: "'cpsp' Capital Spacing in Latin lookup 0 subtable" dx=5 dy=0 dh=10 dv=0
EndChar

StartChar: ohungarumlaut
Encoding: 337 337 268
Width: 530
GlyphClass: 2
Flags: W
LayerCount: 2
Fore
SplineSet
265 511 m 128,-1,1
 385 511 385 511 436.5 446 c 128,-1,2
 488 381 488 381 488 251 c 128,-1,3
 488 121 488 121 438 55 c 128,-1,4
 388 -11 388 -11 265 -11 c 128,-1,5
 142 -11 142 -11 92 55 c 128,-1,6
 42 121 42 121 42 251 c 128,-1,7
 42 381 42 381 93.5 446 c 128,-1,0
 145 511 145 511 265 511 c 128,-1,1
265 81 m 128,-1,9
 332 81 332 81 355 121 c 128,-1,10
 378 161 378 161 378 252 c 128,-1,11
 378 343 378 343 353.5 381 c 128,-1,12
 329 419 329 419 265 419 c 128,-1,13
 201 419 201 419 176.5 381 c 128,-1,14
 152 343 152 343 152 252 c 128,-1,15
 152 161 152 161 175 121 c 128,-1,8
 198 81 198 81 265 81 c 128,-1,9
270 626 m 1,16,-1
 399 794 l 1,17,-1
 484 737 l 1,18,-1
 349 571 l 1,19,-1
 270 626 l 1,16,-1
71 626 m 1,20,-1
 200 793 l 1,21,-1
 285 737 l 1,22,-1
 150 571 l 1,23,-1
 71 626 l 1,20,-1
EndSplineSet
EndChar

StartChar: OE
Encoding: 338 338 269
Width: 912
GlyphClass: 2
Flags: W
LayerCount: 2
Fore
SplineSet
868 0 m 1,0,-1
 442 0 l 1,1,2
 370 -11 370 -11 302 -11 c 128,-1,3
 234 -11 234 -11 182.5 10.5 c 128,-1,4
 131 32 131 32 102.5 79 c 128,-1,5
 74 126 74 126 62.5 188.5 c 128,-1,6
 51 251 51 251 51 345 c 0,7,8
 51 538 51 538 109 621 c 128,-1,9
 167 704 167 704 313 704 c 0,10,11
 372 704 372 704 440 693 c 1,12,-1
 868 693 l 1,13,-1
 868 586 l 1,14,-1
 550 586 l 1,15,-1
 550 405 l 1,16,-1
 808 405 l 1,17,-1
 808 299 l 1,18,-1
 550 299 l 1,19,-1
 550 107 l 1,20,-1
 868 107 l 1,21,-1
 868 0 l 1,0,-1
331 98 m 0,22,23
 361 98 361 98 440 105 c 1,24,-1
 440 587 l 1,25,26
 358 594 358 594 328 594 c 0,27,28
 234 594 234 594 200 541 c 128,-1,29
 166 488 166 488 166 346 c 128,-1,30
 166 204 166 204 198.5 151 c 128,-1,31
 231 98 231 98 331 98 c 0,22,23
EndSplineSet
Position2: "'cpsp' Capital Spacing in Latin lookup 0 subtable" dx=5 dy=0 dh=10 dv=0
EndChar

StartChar: oe
Encoding: 339 339 270
Width: 844
GlyphClass: 2
Flags: W
LayerCount: 2
Fore
SplineSet
758 94 m 1,0,-1
 786 97 l 1,1,-1
 788 12 l 1,2,3
 674 -11 674 -11 586 -11 c 0,4,5
 473 -11 473 -11 429 67 c 1,6,7
 384 -11 384 -11 263.5 -11 c 128,-1,8
 143 -11 143 -11 92.5 55 c 128,-1,9
 42 121 42 121 42 251 c 128,-1,10
 42 381 42 381 93.5 445.5 c 128,-1,11
 145 510 145 510 267 510 c 128,-1,12
 389 510 389 510 433 419 c 1,13,14
 480 510 480 510 590 510 c 128,-1,15
 700 510 700 510 752.5 454 c 128,-1,16
 805 398 805 398 805 282 c 1,17,-1
 797 203 l 1,18,-1
 487 203 l 1,19,20
 488 143 488 143 514 115.5 c 128,-1,21
 540 88 540 88 611.5 88 c 128,-1,22
 683 88 683 88 758 94 c 1,0,-1
175.5 125.5 m 128,-1,24
 199 87 199 87 265.5 87 c 128,-1,25
 332 87 332 87 355 125.5 c 128,-1,26
 378 164 378 164 378 250 c 128,-1,27
 378 336 378 336 352.5 374.5 c 128,-1,28
 327 413 327 413 264.5 413 c 128,-1,29
 202 413 202 413 177 376 c 128,-1,30
 152 339 152 339 152 251.5 c 128,-1,23
 152 164 152 164 175.5 125.5 c 128,-1,24
487 288 m 1,31,-1
 697 288 l 1,32,33
 697 357 697 357 673.5 385.5 c 128,-1,34
 650 414 650 414 594.5 414 c 128,-1,35
 539 414 539 414 513 383.5 c 128,-1,36
 487 353 487 353 487 288 c 1,31,-1
EndSplineSet
EndChar

StartChar: Racute
Encoding: 340 340 271
Width: 618
GlyphClass: 2
Flags: W
LayerCount: 2
Fore
SplineSet
190 244 m 1,0,-1
 190 0 l 1,1,-1
 79 0 l 1,2,-1
 79 685 l 1,3,-1
 339 685 l 2,4,5
 571 685 571 685 571 467 c 0,6,7
 571 321 571 321 459 269 c 1,8,-1
 572 0 l 1,9,-1
 450 0 l 1,10,-1
 351 244 l 1,11,-1
 190 244 l 1,0,-1
457 466 m 0,12,13
 457 589 457 589 339 589 c 2,14,-1
 190 589 l 1,15,-1
 190 340 l 1,16,-1
 341 340 l 2,17,18
 401 340 401 340 429 374.5 c 128,-1,19
 457 409 457 409 457 466 c 0,12,13
178 836 m 1,20,-1
 414 939 l 1,21,-1
 449 842 l 1,22,-1
 206 760 l 1,23,-1
 178 836 l 1,20,-1
EndSplineSet
Position2: "'cpsp' Capital Spacing in Latin lookup 0 subtable" dx=5 dy=0 dh=10 dv=0
EndChar

StartChar: racute
Encoding: 341 341 272
Width: 361
GlyphClass: 2
Flags: W
LayerCount: 2
Fore
SplineSet
66 0 m 1,0,-1
 66 500 l 1,1,-1
 174 500 l 1,2,-1
 174 440 l 1,3,4
 259 495 259 495 344 511 c 1,5,-1
 344 402 l 1,6,7
 258 385 258 385 197 358 c 1,8,-1
 175 349 l 1,9,-1
 175 0 l 1,10,-1
 66 0 l 1,0,-1
56 647 m 1,11,-1
 292 748 l 1,12,-1
 326 654 l 1,13,-1
 82 576 l 1,14,-1
 56 647 l 1,11,-1
EndSplineSet
EndChar

StartChar: Rcommaaccent
Encoding: 342 342 273
Width: 618
GlyphClass: 2
Flags: W
LayerCount: 2
Fore
SplineSet
226 -300 m 1,0,-1
 269 -77 l 1,1,-1
 375 -77 l 1,2,-1
 323 -300 l 1,3,-1
 226 -300 l 1,0,-1
190 244 m 1,4,-1
 190 0 l 1,5,-1
 79 0 l 1,6,-1
 79 685 l 1,7,-1
 339 685 l 2,8,9
 571 685 571 685 571 467 c 0,10,11
 571 321 571 321 459 269 c 1,12,-1
 572 0 l 1,13,-1
 450 0 l 1,14,-1
 351 244 l 1,15,-1
 190 244 l 1,4,-1
457 466 m 0,16,17
 457 589 457 589 339 589 c 2,18,-1
 190 589 l 1,19,-1
 190 340 l 1,20,-1
 341 340 l 2,21,22
 401 340 401 340 429 374.5 c 128,-1,23
 457 409 457 409 457 466 c 0,16,17
EndSplineSet
Position2: "'cpsp' Capital Spacing in Latin lookup 0 subtable" dx=5 dy=0 dh=10 dv=0
EndChar

StartChar: rcommaaccent
Encoding: 343 343 274
Width: 361
GlyphClass: 2
Flags: W
LayerCount: 2
Fore
SplineSet
66 -77 m 1,0,-1
 172 -77 l 1,1,-1
 120 -300 l 1,2,-1
 23 -300 l 1,3,-1
 66 -77 l 1,0,-1
66 0 m 1,4,-1
 66 500 l 1,5,-1
 174 500 l 1,6,-1
 174 440 l 1,7,8
 259 495 259 495 344 511 c 1,9,-1
 344 402 l 1,10,11
 258 385 258 385 197 358 c 1,12,-1
 175 349 l 1,13,-1
 175 0 l 1,14,-1
 66 0 l 1,4,-1
EndSplineSet
EndChar

StartChar: Rcaron
Encoding: 344 344 275
Width: 618
GlyphClass: 2
Flags: W
LayerCount: 2
Fore
SplineSet
190 244 m 1,0,-1
 190 0 l 1,1,-1
 79 0 l 1,2,-1
 79 685 l 1,3,-1
 339 685 l 2,4,5
 571 685 571 685 571 467 c 0,6,7
 571 321 571 321 459 269 c 1,8,-1
 572 0 l 1,9,-1
 450 0 l 1,10,-1
 351 244 l 1,11,-1
 190 244 l 1,0,-1
457 466 m 0,12,13
 457 589 457 589 339 589 c 2,14,-1
 190 589 l 1,15,-1
 190 340 l 1,16,-1
 341 340 l 2,17,18
 401 340 401 340 429 374.5 c 128,-1,19
 457 409 457 409 457 466 c 0,12,13
253 776 m 1,20,-1
 119 919 l 1,21,-1
 236 919 l 1,22,-1
 301 853 l 1,23,-1
 364 919 l 1,24,-1
 481 919 l 1,25,-1
 347 776 l 1,26,-1
 253 776 l 1,20,-1
EndSplineSet
Position2: "'cpsp' Capital Spacing in Latin lookup 0 subtable" dx=5 dy=0 dh=10 dv=0
EndChar

StartChar: rcaron
Encoding: 345 345 276
Width: 361
GlyphClass: 2
Flags: W
LayerCount: 2
Fore
SplineSet
66 0 m 1,0,-1
 66 500 l 1,1,-1
 174 500 l 1,2,-1
 174 440 l 1,3,4
 259 495 259 495 344 511 c 1,5,-1
 344 402 l 1,6,7
 258 385 258 385 197 358 c 1,8,-1
 175 349 l 1,9,-1
 175 0 l 1,10,-1
 66 0 l 1,0,-1
139 585 m 1,11,-1
 14 731 l 1,12,-1
 116 731 l 1,13,-1
 175 656 l 1,14,-1
 233 731 l 1,15,-1
 335 731 l 1,16,-1
 208 585 l 1,17,-1
 139 585 l 1,11,-1
EndSplineSet
EndChar

StartChar: Sacute
Encoding: 346 346 277
Width: 543
GlyphClass: 2
Flags: W
LayerCount: 2
Fore
SplineSet
280 599 m 0,0,1
 153 599 153 599 153 510 c 0,2,3
 153 464 153 464 183 444.5 c 128,-1,4
 213 425 213 425 315.5 396.5 c 128,-1,5
 418 368 418 368 460 328.5 c 128,-1,6
 502 289 502 289 502 204 c 0,7,8
 502 96 502 96 440.5 42.5 c 128,-1,9
 379 -11 379 -11 273 -11 c 0,10,11
 188 -11 188 -11 85 9 c 2,12,-1
 49 16 l 1,13,-1
 60 105 l 1,14,15
 195 87 195 87 266 87 c 0,16,17
 390 87 390 87 390 197 c 0,18,19
 390 240 390 240 362 260.5 c 128,-1,20
 334 281 334 281 236 305.5 c 128,-1,21
 138 330 138 330 90 373 c 128,-1,22
 42 416 42 416 42 509 c 128,-1,23
 42 602 42 602 102.5 649.5 c 128,-1,24
 163 697 163 697 270 697 c 0,25,26
 347 697 347 697 452 679 c 2,27,-1
 487 673 l 1,28,-1
 478 583 l 1,29,30
 338 599 338 599 280 599 c 0,0,1
153 836 m 1,31,-1
 389 939 l 1,32,-1
 424 842 l 1,33,-1
 181 760 l 1,34,-1
 153 836 l 1,31,-1
EndSplineSet
Position2: "'cpsp' Capital Spacing in Latin lookup 0 subtable" dx=5 dy=0 dh=10 dv=0
EndChar

StartChar: sacute
Encoding: 347 347 278
Width: 469
GlyphClass: 2
Flags: W
LayerCount: 2
Fore
SplineSet
413 397 m 1,0,1
 295 413 295 413 242 413 c 128,-1,2
 189 413 189 413 168.5 400.5 c 128,-1,3
 148 388 148 388 148 361 c 128,-1,4
 148 334 148 334 170.5 323 c 128,-1,5
 193 312 193 312 276.5 297.5 c 128,-1,6
 360 283 360 283 395 252 c 128,-1,7
 430 221 430 221 430 142 c 128,-1,8
 430 63 430 63 379.5 26 c 128,-1,9
 329 -11 329 -11 232 -11 c 0,10,11
 171 -11 171 -11 78 6 c 1,12,-1
 47 11 l 1,13,-1
 51 102 l 1,14,15
 171 86 171 86 224 86 c 128,-1,16
 277 86 277 86 299.5 99 c 128,-1,17
 322 112 322 112 322 142 c 128,-1,18
 322 172 322 172 300.5 183.5 c 128,-1,19
 279 195 279 195 197.5 208.5 c 128,-1,20
 116 222 116 222 78 251 c 128,-1,21
 40 280 40 280 40 357 c 128,-1,22
 40 434 40 434 92.5 472 c 128,-1,23
 145 510 145 510 227 510 c 0,24,25
 291 510 291 510 384 494 c 1,26,-1
 415 488 l 1,27,-1
 413 397 l 1,0,1
101 647 m 1,28,-1
 337 748 l 1,29,-1
 371 654 l 1,30,-1
 127 576 l 1,31,-1
 101 647 l 1,28,-1
EndSplineSet
EndChar

StartChar: Scircumflex
Encoding: 348 348 279
Width: 543
GlyphClass: 2
Flags: W
LayerCount: 2
Fore
SplineSet
280 599 m 0,0,1
 153 599 153 599 153 510 c 0,2,3
 153 464 153 464 183 444.5 c 128,-1,4
 213 425 213 425 315.5 396.5 c 128,-1,5
 418 368 418 368 460 328.5 c 128,-1,6
 502 289 502 289 502 204 c 0,7,8
 502 96 502 96 440.5 42.5 c 128,-1,9
 379 -11 379 -11 273 -11 c 0,10,11
 188 -11 188 -11 85 9 c 2,12,-1
 49 16 l 1,13,-1
 60 105 l 1,14,15
 195 87 195 87 266 87 c 0,16,17
 390 87 390 87 390 197 c 0,18,19
 390 240 390 240 362 260.5 c 128,-1,20
 334 281 334 281 236 305.5 c 128,-1,21
 138 330 138 330 90 373 c 128,-1,22
 42 416 42 416 42 509 c 128,-1,23
 42 602 42 602 102.5 649.5 c 128,-1,24
 163 697 163 697 270 697 c 0,25,26
 347 697 347 697 452 679 c 2,27,-1
 487 673 l 1,28,-1
 478 583 l 1,29,30
 338 599 338 599 280 599 c 0,0,1
94 775 m 1,31,-1
 228 918 l 1,32,-1
 322 918 l 1,33,-1
 456 775 l 1,34,-1
 340 775 l 1,35,-1
 276 842 l 1,36,-1
 211 775 l 1,37,-1
 94 775 l 1,31,-1
EndSplineSet
Position2: "'cpsp' Capital Spacing in Latin lookup 0 subtable" dx=5 dy=0 dh=10 dv=0
EndChar

StartChar: scircumflex
Encoding: 349 349 280
Width: 469
GlyphClass: 2
Flags: W
LayerCount: 2
Fore
SplineSet
413 397 m 1,0,1
 295 413 295 413 242 413 c 128,-1,2
 189 413 189 413 168.5 400.5 c 128,-1,3
 148 388 148 388 148 361 c 128,-1,4
 148 334 148 334 170.5 323 c 128,-1,5
 193 312 193 312 276.5 297.5 c 128,-1,6
 360 283 360 283 395 252 c 128,-1,7
 430 221 430 221 430 142 c 128,-1,8
 430 63 430 63 379.5 26 c 128,-1,9
 329 -11 329 -11 232 -11 c 0,10,11
 171 -11 171 -11 78 6 c 1,12,-1
 47 11 l 1,13,-1
 51 102 l 1,14,15
 171 86 171 86 224 86 c 128,-1,16
 277 86 277 86 299.5 99 c 128,-1,17
 322 112 322 112 322 142 c 128,-1,18
 322 172 322 172 300.5 183.5 c 128,-1,19
 279 195 279 195 197.5 208.5 c 128,-1,20
 116 222 116 222 78 251 c 128,-1,21
 40 280 40 280 40 357 c 128,-1,22
 40 434 40 434 92.5 472 c 128,-1,23
 145 510 145 510 227 510 c 0,24,25
 291 510 291 510 384 494 c 1,26,-1
 415 488 l 1,27,-1
 413 397 l 1,0,1
75 585 m 1,28,-1
 200 731 l 1,29,-1
 269 731 l 1,30,-1
 396 585 l 1,31,-1
 294 585 l 1,32,-1
 236 661 l 1,33,-1
 178 585 l 1,34,-1
 75 585 l 1,28,-1
EndSplineSet
EndChar

StartChar: Scedilla
Encoding: 350 350 281
Width: 543
GlyphClass: 2
Flags: W
LayerCount: 2
Fore
SplineSet
396 -60 m 128,-1,1
 424 -77 424 -77 424 -128 c 128,-1,2
 424 -179 424 -179 396.5 -205 c 128,-1,3
 369 -231 369 -231 320 -231 c 0,4,5
 282 -231 282 -231 243 -224 c 1,6,-1
 230 -221 l 1,7,-1
 234 -156 l 1,8,9
 268 -158 268 -158 289 -158 c 0,10,11
 330 -158 330 -158 330 -127 c 0,12,13
 330 -112 330 -112 320.5 -106 c 128,-1,14
 311 -100 311 -100 289 -100 c 2,15,-1
 258 -100 l 1,16,-1
 258 -11 l 1,17,18
 185 -9 185 -9 82 10 c 2,19,-1
 49 16 l 1,20,-1
 60 105 l 1,21,22
 195 87 195 87 266 87 c 0,23,24
 390 87 390 87 390 197 c 0,25,26
 390 240 390 240 362 260.5 c 128,-1,27
 334 281 334 281 236 305.5 c 128,-1,28
 138 330 138 330 90 373 c 128,-1,29
 42 416 42 416 42 509 c 128,-1,30
 42 602 42 602 102.5 649.5 c 128,-1,31
 163 697 163 697 270 697 c 0,32,33
 347 697 347 697 452 679 c 2,34,-1
 487 673 l 1,35,-1
 478 583 l 1,36,37
 338 599 338 599 280 599 c 0,38,39
 153 599 153 599 153 510 c 0,40,41
 153 464 153 464 183 444.5 c 128,-1,42
 213 425 213 425 315.5 396.5 c 128,-1,43
 418 368 418 368 460 328.5 c 128,-1,44
 502 289 502 289 502 196.5 c 128,-1,45
 502 104 502 104 449.5 51 c 128,-1,46
 397 -2 397 -2 305 -9 c 1,47,-1
 305 -42 l 1,48,0
 368 -43 368 -43 396 -60 c 128,-1,1
EndSplineSet
Substitution2: "'locl' Localized Forms in Latin lookup 0 subtable" Scommaaccent
Position2: "'cpsp' Capital Spacing in Latin lookup 0 subtable" dx=5 dy=0 dh=10 dv=0
EndChar

StartChar: scedilla
Encoding: 351 351 282
Width: 469
GlyphClass: 2
Flags: W
LayerCount: 2
Fore
SplineSet
342 -60 m 128,-1,1
 370 -77 370 -77 370 -128 c 128,-1,2
 370 -179 370 -179 342.5 -205 c 128,-1,3
 315 -231 315 -231 266 -231 c 0,4,5
 228 -231 228 -231 189 -224 c 1,6,-1
 176 -221 l 1,7,-1
 180 -156 l 1,8,9
 214 -158 214 -158 235 -158 c 0,10,11
 276 -158 276 -158 276 -127 c 0,12,13
 276 -112 276 -112 266.5 -106 c 128,-1,14
 257 -100 257 -100 235 -100 c 2,15,-1
 204 -100 l 1,16,-1
 204 -10 l 1,17,18
 135 -6 135 -6 71 6 c 1,19,-1
 47 11 l 1,20,-1
 51 102 l 1,21,22
 171 86 171 86 224 86 c 128,-1,23
 277 86 277 86 299.5 99 c 128,-1,24
 322 112 322 112 322 142 c 128,-1,25
 322 172 322 172 300.5 183.5 c 128,-1,26
 279 195 279 195 197.5 208.5 c 128,-1,27
 116 222 116 222 78 251 c 128,-1,28
 40 280 40 280 40 357 c 128,-1,29
 40 434 40 434 92.5 472 c 128,-1,30
 145 510 145 510 227 510 c 0,31,32
 291 510 291 510 384 494 c 1,33,-1
 415 488 l 1,34,-1
 413 397 l 1,35,36
 295 413 295 413 242 413 c 128,-1,37
 189 413 189 413 168.5 400.5 c 128,-1,38
 148 388 148 388 148 361 c 128,-1,39
 148 334 148 334 170.5 323 c 128,-1,40
 193 312 193 312 276.5 297.5 c 128,-1,41
 360 283 360 283 395 252 c 128,-1,42
 430 221 430 221 430 144 c 0,43,44
 430 -4 430 -4 251 -10 c 1,45,-1
 251 -42 l 1,46,0
 314 -43 314 -43 342 -60 c 128,-1,1
EndSplineSet
Substitution2: "'locl' Localized Forms in Latin lookup 0 subtable" scommaaccent
EndChar

StartChar: Scaron
Encoding: 352 352 283
Width: 543
GlyphClass: 2
Flags: W
LayerCount: 2
Fore
SplineSet
280 599 m 0,0,1
 153 599 153 599 153 510 c 0,2,3
 153 464 153 464 183 444.5 c 128,-1,4
 213 425 213 425 315.5 396.5 c 128,-1,5
 418 368 418 368 460 328.5 c 128,-1,6
 502 289 502 289 502 204 c 0,7,8
 502 96 502 96 440.5 42.5 c 128,-1,9
 379 -11 379 -11 273 -11 c 0,10,11
 188 -11 188 -11 85 9 c 2,12,-1
 49 16 l 1,13,-1
 60 105 l 1,14,15
 195 87 195 87 266 87 c 0,16,17
 390 87 390 87 390 197 c 0,18,19
 390 240 390 240 362 260.5 c 128,-1,20
 334 281 334 281 236 305.5 c 128,-1,21
 138 330 138 330 90 373 c 128,-1,22
 42 416 42 416 42 509 c 128,-1,23
 42 602 42 602 102.5 649.5 c 128,-1,24
 163 697 163 697 270 697 c 0,25,26
 347 697 347 697 452 679 c 2,27,-1
 487 673 l 1,28,-1
 478 583 l 1,29,30
 338 599 338 599 280 599 c 0,0,1
242 776 m 1,31,-1
 108 919 l 1,32,-1
 225 919 l 1,33,-1
 290 853 l 1,34,-1
 353 919 l 1,35,-1
 470 919 l 1,36,-1
 336 776 l 1,37,-1
 242 776 l 1,31,-1
EndSplineSet
Position2: "'cpsp' Capital Spacing in Latin lookup 0 subtable" dx=5 dy=0 dh=10 dv=0
EndChar

StartChar: scaron
Encoding: 353 353 284
Width: 469
GlyphClass: 2
Flags: W
LayerCount: 2
Fore
SplineSet
413 397 m 1,0,1
 295 413 295 413 242 413 c 128,-1,2
 189 413 189 413 168.5 400.5 c 128,-1,3
 148 388 148 388 148 361 c 128,-1,4
 148 334 148 334 170.5 323 c 128,-1,5
 193 312 193 312 276.5 297.5 c 128,-1,6
 360 283 360 283 395 252 c 128,-1,7
 430 221 430 221 430 142 c 128,-1,8
 430 63 430 63 379.5 26 c 128,-1,9
 329 -11 329 -11 232 -11 c 0,10,11
 171 -11 171 -11 78 6 c 1,12,-1
 47 11 l 1,13,-1
 51 102 l 1,14,15
 171 86 171 86 224 86 c 128,-1,16
 277 86 277 86 299.5 99 c 128,-1,17
 322 112 322 112 322 142 c 128,-1,18
 322 172 322 172 300.5 183.5 c 128,-1,19
 279 195 279 195 197.5 208.5 c 128,-1,20
 116 222 116 222 78 251 c 128,-1,21
 40 280 40 280 40 357 c 128,-1,22
 40 434 40 434 92.5 472 c 128,-1,23
 145 510 145 510 227 510 c 0,24,25
 291 510 291 510 384 494 c 1,26,-1
 415 488 l 1,27,-1
 413 397 l 1,0,1
209 585 m 1,28,-1
 84 731 l 1,29,-1
 186 731 l 1,30,-1
 245 656 l 1,31,-1
 303 731 l 1,32,-1
 405 731 l 1,33,-1
 278 585 l 1,34,-1
 209 585 l 1,28,-1
EndSplineSet
EndChar

StartChar: tcedilla
Encoding: 355 355 286
Width: 358
GlyphClass: 2
Flags: W
LayerCount: 2
Fore
SplineSet
335 407 m 1,0,-1
 197 407 l 1,1,-1
 197 187 l 2,2,3
 197 126 197 126 206 106 c 128,-1,4
 215 86 215 86 252 86 c 1,5,-1
 334 89 l 1,6,-1
 339 2 l 1,7,8
 272 -11 272 -11 237 -11 c 0,9,10
 152 -11 152 -11 120.5 28 c 128,-1,11
 89 67 89 67 89 175 c 2,12,-1
 89 407 l 1,13,-1
 25 407 l 1,14,-1
 25 500 l 1,15,-1
 89 500 l 1,16,-1
 89 645 l 1,17,-1
 197 645 l 1,18,-1
 197 500 l 1,19,-1
 335 500 l 1,20,-1
 335 407 l 1,0,-1
248 -60 m 128,-1,22
 276 -77 276 -77 276 -128 c 128,-1,23
 276 -179 276 -179 248.5 -205 c 128,-1,24
 221 -231 221 -231 172 -231 c 0,25,26
 134 -231 134 -231 95 -224 c 1,27,-1
 82 -221 l 1,28,-1
 86 -156 l 1,29,30
 120 -158 120 -158 141 -158 c 0,31,32
 182 -158 182 -158 182 -127 c 0,33,34
 182 -112 182 -112 172.5 -106 c 128,-1,35
 163 -100 163 -100 141 -100 c 2,36,-1
 110 -100 l 1,37,-1
 110 1 l 1,38,-1
 157 1 l 1,39,-1
 157 -42 l 1,40,21
 220 -43 220 -43 248 -60 c 128,-1,22
EndSplineSet
Substitution2: "'locl' Localized Forms in Latin lookup 0 subtable" tcommaaccent
EndChar

StartChar: Tcaron
Encoding: 356 356 287
Width: 526
GlyphClass: 2
Flags: W
LayerCount: 2
Fore
SplineSet
13 586 m 1,0,-1
 13 685 l 1,1,-1
 513 685 l 1,2,-1
 513 586 l 1,3,-1
 320 586 l 1,4,-1
 320 0 l 1,5,-1
 208 0 l 1,6,-1
 208 586 l 1,7,-1
 13 586 l 1,0,-1
217 776 m 1,8,-1
 83 919 l 1,9,-1
 200 919 l 1,10,-1
 265 853 l 1,11,-1
 328 919 l 1,12,-1
 445 919 l 1,13,-1
 311 776 l 1,14,-1
 217 776 l 1,8,-1
EndSplineSet
Position2: "'cpsp' Capital Spacing in Latin lookup 0 subtable" dx=5 dy=0 dh=10 dv=0
EndChar

StartChar: tcaron
Encoding: 357 357 288
Width: 463
GlyphClass: 2
Flags: W
LayerCount: 2
Fore
SplineSet
336 401 m 1,0,-1
 198 401 l 1,1,-1
 198 193 l 2,2,3
 198 132 198 132 207 112 c 128,-1,4
 216 92 216 92 253 92 c 1,5,-1
 334 95 l 1,6,-1
 340 2 l 1,7,8
 273 -11 273 -11 238 -11 c 0,9,10
 153 -11 153 -11 121 28.5 c 128,-1,11
 89 68 89 68 89 175 c 2,12,-1
 89 401 l 1,13,-1
 25 401 l 1,14,-1
 25 499 l 1,15,-1
 89 499 l 1,16,-1
 89 645 l 1,17,-1
 198 645 l 1,18,-1
 198 499 l 1,19,-1
 336 499 l 1,20,-1
 336 401 l 1,0,-1
478 693 m 1,21,-1
 478 444 l 1,22,-1
 373 444 l 1,23,-1
 373 693 l 1,24,-1
 478 693 l 1,21,-1
EndSplineSet
EndChar

StartChar: Tbar
Encoding: 358 358 289
Width: 529
GlyphClass: 2
Flags: W
LayerCount: 2
Fore
SplineSet
14 586 m 1,0,-1
 14 685 l 1,1,-1
 514 685 l 1,2,-1
 514 586 l 1,3,-1
 321 586 l 1,4,-1
 321 368 l 1,5,-1
 471 368 l 1,6,-1
 471 274 l 1,7,-1
 321 274 l 1,8,-1
 321 0 l 1,9,-1
 209 0 l 1,10,-1
 209 274 l 1,11,-1
 64 274 l 1,12,-1
 64 368 l 1,13,-1
 209 368 l 1,14,-1
 209 586 l 1,15,-1
 14 586 l 1,0,-1
EndSplineSet
Position2: "'cpsp' Capital Spacing in Latin lookup 0 subtable" dx=5 dy=0 dh=10 dv=0
EndChar

StartChar: tbar
Encoding: 359 359 290
Width: 360
GlyphClass: 2
Flags: W
LayerCount: 2
Fore
SplineSet
336 401 m 1,0,-1
 198 401 l 1,1,-1
 198 310 l 1,2,-1
 310 310 l 1,3,-1
 310 228 l 1,4,-1
 198 228 l 1,5,-1
 198 193 l 2,6,7
 198 132 198 132 207 112 c 128,-1,8
 216 92 216 92 253 92 c 1,9,-1
 335 95 l 1,10,-1
 340 2 l 1,11,12
 273 -11 273 -11 238 -11 c 0,13,14
 153 -11 153 -11 121.5 28 c 128,-1,15
 90 67 90 67 90 175 c 2,16,-1
 90 228 l 1,17,-1
 49 228 l 1,18,-1
 49 310 l 1,19,-1
 90 310 l 1,20,-1
 90 401 l 1,21,-1
 26 401 l 1,22,-1
 26 499 l 1,23,-1
 90 499 l 1,24,-1
 90 645 l 1,25,-1
 198 645 l 1,26,-1
 198 499 l 1,27,-1
 336 499 l 1,28,-1
 336 401 l 1,0,-1
EndSplineSet
EndChar

StartChar: Utilde
Encoding: 360 360 291
Width: 650
GlyphClass: 2
Flags: W
LayerCount: 2
Fore
SplineSet
185 219 m 2,0,1
 185 86 185 86 325 86 c 128,-1,2
 465 86 465 86 465 219 c 2,3,-1
 465 685 l 1,4,-1
 577 685 l 1,5,-1
 577 221 l 2,6,7
 577 100 577 100 513.5 44.5 c 128,-1,8
 450 -11 450 -11 324.5 -11 c 128,-1,9
 199 -11 199 -11 136 44.5 c 128,-1,10
 73 100 73 100 73 221 c 2,11,-1
 73 685 l 1,12,-1
 185 685 l 1,13,-1
 185 219 l 2,0,1
403 777 m 128,-1,15
 379 777 379 777 316 802 c 128,-1,16
 253 827 253 827 240 827 c 0,17,18
 215 827 215 827 176 794 c 2,19,-1
 163 783 l 1,20,-1
 139 861 l 1,21,22
 145 868 145 868 154.5 878.5 c 128,-1,23
 164 889 164 889 190.5 906 c 128,-1,24
 217 923 217 923 243 923 c 128,-1,25
 269 923 269 923 330.5 898 c 128,-1,26
 392 873 392 873 403 873 c 0,27,28
 425 873 425 873 466 906 c 1,29,-1
 479 917 l 1,30,-1
 503 838 l 1,31,32
 488 817 488 817 457.5 797 c 128,-1,14
 427 777 427 777 403 777 c 128,-1,15
EndSplineSet
Position2: "'cpsp' Capital Spacing in Latin lookup 0 subtable" dx=5 dy=0 dh=10 dv=0
EndChar

